<?xml version="1.0" encoding="UTF-8" standalone="no"?>
<svg
   xmlns:dc="http://purl.org/dc/elements/1.1/"
   xmlns:cc="http://creativecommons.org/ns#"
   xmlns:rdf="http://www.w3.org/1999/02/22-rdf-syntax-ns#"
   xmlns:svg="http://www.w3.org/2000/svg"
   xmlns="http://www.w3.org/2000/svg"
   xmlns:sodipodi="http://sodipodi.sourceforge.net/DTD/sodipodi-0.dtd"
   xmlns:inkscape="http://www.inkscape.org/namespaces/inkscape"
   width="177.05795mm"
   height="113.49329mm"
   viewBox="0 0 177.05795 113.49329"
   version="1.1"
   id="svg8"
   inkscape:version="1.0.2 (e86c8708, 2021-01-15)"
   sodipodi:docname="pippi.svg">
  <defs
     id="defs2" />
  <sodipodi:namedview
     id="base"
     pagecolor="#ffffff"
     bordercolor="#666666"
     borderopacity="1.0"
     inkscape:pageopacity="0.0"
     inkscape:pageshadow="2"
     inkscape:zoom="1.0081283"
     inkscape:cx="598.25343"
     inkscape:cy="124.90371"
     inkscape:document-units="mm"
     inkscape:current-layer="layer1"
     inkscape:document-rotation="0"
     showgrid="false"
     inkscape:window-width="1792"
     inkscape:window-height="989"
     inkscape:window-x="0"
     inkscape:window-y="25"
     inkscape:window-maximized="1" />
  <metadata
     id="metadata5">
    <rdf:RDF>
      <cc:Work
         rdf:about="">
        <dc:format>image/svg+xml</dc:format>
        <dc:type
           rdf:resource="http://purl.org/dc/dcmitype/StillImage" />
        <dc:title></dc:title>
      </cc:Work>
    </rdf:RDF>
  </metadata>
  <g
     inkscape:label="Layer 1"
     inkscape:groupmode="layer"
     id="layer1"
     style="display:inline"
     transform="translate(-19.895033,-126.31552)" />
  <g
     inkscape:groupmode="layer"
     id="layer2"
     inkscape:label="hat"
     style="display:inline"
     sodipodi:insensitive="true"
     transform="translate(-19.895033,-126.31552)">
    <path
       style="fill:#000000;stroke:#000000;stroke-width:0.264583px;stroke-linecap:butt;stroke-linejoin:miter;stroke-opacity:1"
       d="m 70.781856,198.15327 c -12.87734,-3.19741 -28.794437,-17.19158 -30.154907,-19.5845 -1.603215,-0.77118 2.088382,-8.91796 5.254065,-13.13245 1.289299,-1.99246 20.866578,-14.58057 22.5654,-15.60874 1.883926,-1.39233 9.104393,-11.72207 11.317911,-13.1144 2.34244,-2.50347 16.563912,-8.85597 35.031625,-10.24001 11.07376,-0.60145 27.0196,9.63713 35.92988,19.04283 10.55868,8.80282 15.28107,16.70739 19.94108,25.51021 4.30138,6.4279 8.56537,12.93059 12.39581,20.30038 1.43324,5.13481 1.49993,9.17638 0.53895,12.39581 -2.81347,2.09383 -5.20364,3.34106 -7.54528,4.49123 -9.10956,2.65194 -18.4906,5.93734 -26.22881,5.38948 -0.998,-2.00616 -2.18411,-3.73015 -4.13193,-4.31158 0.82206,-4.71446 -2.11244,-5.67236 -3.95229,-7.72492 0.46389,-4.85069 1.25047,-6.82037 -0.17965,-15.80915 -5.2522,-8.87005 -6.72072,-10.34134 -8.62316,-13.4737 l -5.38949,-3.59299 c -5.48164,-1.94387 -10.80887,-4.04214 -18.14459,-4.13193 -4.9703,-0.4569 -9.940597,-0.0812 -14.910896,0.89824 -4.239767,0.95211 -7.734672,2.46286 -10.060363,4.85053 -3.10478,2.74194 -6.489967,9.18641 -7.724926,12.39581 -2.907452,6.46738 -4.670645,9.16212 -5.928429,15.44985 z"
       id="path25"
       sodipodi:nodetypes="cccccccccccccccccccccc" />
  </g>
  <g
     inkscape:groupmode="layer"
     id="layer3"
     inkscape:label="skull"
     sodipodi:insensitive="true"
     transform="translate(-19.895033,-126.31552)">
    <path
       style="fill:#cccccc;stroke:#000000;stroke-width:0.264583px;stroke-linecap:butt;stroke-linejoin:miter;stroke-opacity:1"
       d="m 107.78963,137.25213 c 1.55523,-4.17426 4.60945,-6.27847 9.70107,-5.56913 3.64397,0.99336 6.06928,3.53035 7.18597,7.72492 l 6.82668,-1.25754 c 2.29931,-3.9033 5.99321,-1.39268 4.31158,0.71859 2.42627,3.27957 0.30176,5.89068 -2.78763,3.48642 l -8.53028,1.18447 -2.15579,2.69474 c 3.58079,2.03603 6.5695,4.07205 8.80282,6.10808 7.40308,0.80489 4.07069,3.08915 2.69474,4.31158 0.90818,3.2703 -3.64635,4.70082 -4.13194,-0.7186 l -8.98247,-5.38948 c -2.69735,9.73754 -13.11065,7.74108 -13.833,-1.43719 l -9.235202,2.59808 c -1.644037,4.10461 -4.151719,4.24353 -4.058849,-0.44229 -2.084119,-1.47333 0.296662,-4.74712 2.874389,-2.87439 l 9.701062,-3.05404 0.17965,-3.59299 -7.006321,-3.41334 c -2.680589,1.8661 -6.284881,-0.16384 -1.796495,-2.87439 -0.09407,-4.06742 3.795436,-3.23672 4.491236,-1.43719 2.49644,1.80585 4.86769,3.53174 5.74878,3.23369 z"
       id="path28"
       sodipodi:nodetypes="cccccccccccccccccccccc" />
    <path
       style="fill:#000000;stroke:#000000;stroke-width:0.264583px;stroke-linecap:butt;stroke-linejoin:miter;stroke-opacity:1"
       d="m 109.14208,140.2097 c 0.52078,-1.00773 1.13549,-1.50666 2.81938,-1.39518 1.66084,0.24097 1.47031,1.49177 1.32686,2.7169 -0.67354,0.71644 -1.1095,1.63652 -2.90645,1.39004 -0.89806,-0.25788 -1.66181,-0.63877 -1.23979,-2.71176 z"
       id="path48"
       sodipodi:nodetypes="ccccc" />
    <path
       style="fill:#000000;stroke:#000000;stroke-width:0.264583px;stroke-linecap:butt;stroke-linejoin:miter;stroke-opacity:1"
       d="m 116.9925,140.90762 c 0.18169,-0.93549 0.35758,-1.87429 1.59628,-2.20577 1.24546,0.26712 2.35834,0.71653 2.98939,1.82847 -0.0222,1.56855 -0.55855,2.19434 -1.50921,2.06064 -1.49492,0.15684 -2.87587,0.13938 -3.07646,-1.68334 z"
       id="path50"
       sodipodi:nodetypes="ccccc" />
    <path
       style="fill:#000000;stroke:#000000;stroke-width:0.264583px;stroke-linecap:butt;stroke-linejoin:miter;stroke-opacity:1"
       d="m 113.07437,145.69644 c -0.74881,1.32608 -0.68039,2.01163 1.42214,1.10288 1.21122,0.34797 2.59235,0.89852 1.85748,-1.07385 -0.1714,-1.11409 -0.71063,-1.65017 -1.42213,-1.91553 -0.7256,0.41595 -1.43551,0.86331 -1.85749,1.8865 z"
       id="path52"
       sodipodi:nodetypes="ccccc" />
    <path
       style="fill:#000000;stroke:#000000;stroke-width:0.264583px;stroke-linecap:butt;stroke-linejoin:miter;stroke-opacity:1"
       d="m 110.02694,149.23727 c 3.28059,0.1849 5.48667,0.50412 7.54603,0.84168 -0.61702,1.53506 -1.60311,2.67799 -3.45376,2.90232 -2.27201,-0.14553 -3.97588,-0.98094 -4.09227,-3.744 z"
       id="path54"
       sodipodi:nodetypes="cccc" />
  </g>
  <g
     inkscape:groupmode="layer"
     id="layer4"
     inkscape:label="hair"
     sodipodi:insensitive="true"
     transform="translate(-19.895033,-126.31552)">
    <path
       style="fill:#ff6015;fill-opacity:1;stroke:#ff6015;stroke-width:0.264583px;stroke-linecap:butt;stroke-linejoin:miter;stroke-opacity:1"
       d="m 70.781856,198.15327 c -0.321101,0.83455 1.487596,1.51133 3.605419,2.16522 -1.040121,1.08156 -1.111938,2.78559 -0.878588,4.68581 -3.554917,2.41986 -4.766117,6.29802 -4.203081,11.28016 -2.745789,2.92863 -3.298769,4.82733 -3.411366,7.75596 -2.691449,-0.31938 -4.228382,1.76649 -5.857266,3.66079 -2.766533,-1.2412 -4.508329,-7.46945 -8.493035,-2.7822 -0.829779,-0.70313 -1.659559,-0.6832 -2.489338,-0.87859 0.145766,-0.90283 -1.760402,-1.29267 -3.367928,-1.75718 C 43.868199,215.86408 39.4006,212.0027 34.997165,208.07937 v 3.07506 c -0.989768,1.46159 -1.731566,1.18739 -2.489341,1.02503 -0.475129,-0.37347 -1.269837,-0.0162 -1.90361,-0.8786 -0.418526,2.543 -2.563583,4.08199 -5.417971,5.56441 -1.787953,0.7422 -3.295917,1.6478 -4.832244,1.46431 -0.318126,1.5928 1.169724,4.48861 -0.292863,8.05375 3.139645,1.82909 2.079436,2.37325 2.014017,3.70124 4.799922,-2.88792 -1.500409,8.20754 5.82707,1.95514 1.970591,0.5655 0.668497,8.45593 7.094942,0.64018 l 7.760877,-3.95366 c 1.69125,-0.59521 3.256769,-0.18456 4.832244,0.14643 2.453701,3.59762 5.270859,4.10586 8.20017,3.66079 3.51436,2.99419 7.02872,2.29481 10.54308,-1.17145 3.510898,-0.51394 6.083292,-2.46033 7.321582,-6.44299 4.400769,1.92254 6.670805,-0.17287 6.882288,-6.15013 -1.071869,-2.65432 -2.117761,-5.31188 -1.317884,-8.20017 -0.773852,-3.32751 -1.155226,-6.71389 0.439293,-10.39665 0.8659,-1.72675 2.225588,-3.37121 3.807224,-4.97867 1.587352,-0.0773 2.29866,0.34603 3.075065,0.73215 1.676243,-1.9897 4.238653,-2.50245 6.589424,-3.36793 3.363963,-0.15892 5.250114,0.3776 6.589424,1.17146 2.332408,-2.39277 5.490078,-3.60659 8.639468,-4.83225 1.96733,0.36879 3.02907,1.46207 3.80722,2.78221 0.80962,-0.9198 2.29393,-1.27735 3.80722,-1.61075 2.00118,1.1981 3.11901,2.71741 3.80723,4.39295 1.4751,-0.52614 2.87027,-1.13219 5.27154,-0.73216 1.38742,0.79702 2.66139,1.65886 3.22149,2.92863 1.01444,-1.06951 2.45219,-1.01021 3.80723,-1.17145 2.87484,2.52347 5.97029,4.25639 7.46801,11.71453 0.29111,2.83838 0.0164,4.12067 -0.14643,5.71083 -0.84569,3.16525 0.68,5.01308 1.90361,7.02872 -0.41,8.65312 3.88663,10.61238 8.7859,11.71454 1.38875,3.92158 4.66932,3.61439 8.05374,3.07506 6.91833,4.75914 11.50311,0.93414 15.08246,-6.58942 7.93742,0.95431 8.39515,6.96891 11.36944,11.53277 1.67305,-0.0746 4.30981,-0.27745 6.78808,-2.30758 1.29524,-0.13026 1.36056,0.618 1.90361,1.02502 -0.0444,-1.02502 -0.4098,-2.05004 0.4393,-3.07506 0.78097,-0.39218 1.56193,-0.49913 2.3429,-0.29287 -0.22502,-1.52074 -0.22858,-3.13006 0.73216,-5.1251 -0.88642,-1.602 -1.33769,-2.80041 -1.49008,-5.17221 -2.09934,0.24113 -5.79638,-4.52563 -8.32084,-6.83519 -0.46617,-1.93515 -0.38262,-3.64125 0.58573,-4.97868 -2.46599,-0.35335 -4.23959,-1.05289 -6.0037,-1.75718 -0.37213,-2.16669 0.33391,-3.65951 0.87794,-5.2536 -1.38561,0.29464 -2.98361,0.92304 -5.20233,2.52684 -4.68895,4.0771 -5.30583,8.3393 -7.65486,12.52276 -2.18783,-0.0477 -3.69557,0.9734 -5.05369,2.22957 -2.77793,-1.02618 -4.66162,0.74217 -6.83735,1.59786 -0.55239,-0.5624 -1.28319,-0.94638 -2.48969,-0.85467 0.9825,-1.87696 -1.96771,-3.59661 -4.97937,-5.31381 -0.82902,-1.78197 0.0455,-3.12043 -0.40831,-5.00627 -0.86291,-2.36312 -2.46567,-3.39449 -4.13193,-4.31158 1.03562,-3.39854 -1.90832,-5.40424 -3.95229,-7.72492 0.39934,-3.78608 1.41773,-5.57212 -0.17965,-15.80915 -2.10724,-4.05287 -4.2766,-8.14123 -8.62316,-13.4737 -2.80827,-2.32186 -3.99348,-2.84032 -5.38949,-3.59299 -6.81328,-2.48243 -12.80181,-3.77356 -18.14459,-4.13193 -12.153122,-0.91018 -19.662301,1.60731 -24.971259,5.74877 -7.570501,8.81011 -10.36801,18.366 -13.653355,27.84566 z"
       id="path57"
       sodipodi:nodetypes="cccccccccccccccccccccccccccccccccccccccccccccccccccccccccccccccccccccc" />
  </g>
</svg>
