<?xml version="1.0" standalone="no"?>
<!DOCTYPE svg PUBLIC "-//W3C//DTD SVG 20010904//EN"
 "http://www.w3.org/TR/2001/REC-SVG-20010904/DTD/svg10.dtd">
<svg version="1.0" xmlns="http://www.w3.org/2000/svg"
 width="1102.000000pt" height="1102.000000pt" viewBox="0 0 1102.000000 1102.000000"
 preserveAspectRatio="xMidYMid meet">
<metadata>
Created by potrace 1.14, written by Peter Selinger 2001-2017
</metadata>
<g transform="translate(0.000000,1102.000000) scale(0.100000,-0.100000)"
fill="#000000" stroke="none">
<path d="M4995 10430 c-576 -52 -1054 -232 -1650 -625 -294 -194 -763 -549
-1253 -948 -277 -226 -361 -301 -436 -386 -255 -291 -407 -512 -554 -806 -111
-224 -216 -492 -273 -703 -27 -102 -36 -123 -53 -127 -12 -2 -64 -11 -116 -20
-130 -24 -264 -67 -400 -130 -63 -30 -127 -56 -141 -59 -15 -3 -30 -14 -34
-23 -9 -24 -40 -268 -61 -483 -25 -241 -25 -683 -1 -829 9 -57 21 -109 26
-115 5 -6 9 -15 8 -21 -1 -18 235 -164 433 -268 l105 -55 8 -53 c40 -258 83
-497 107 -591 114 -454 351 -977 645 -1423 111 -169 340 -457 474 -597 258
-270 594 -555 876 -743 673 -449 1428 -728 2215 -820 557 -65 1285 6 1975 192
186 50 597 186 755 251 74 30 178 69 231 88 468 162 928 450 1308 819 625 607
1030 1367 1232 2312 l33 152 188 77 c103 43 194 85 202 93 31 36 117 434 152
706 25 190 25 599 1 770 -21 150 -53 305 -65 317 -22 22 -266 115 -441 168
l-124 37 -57 174 c-107 325 -204 539 -370 820 -193 326 -416 651 -605 879
-103 125 -477 503 -635 642 -197 174 -486 382 -762 549 -158 96 -622 331 -769
390 -462 185 -980 316 -1479 374 -160 19 -554 27 -695 15z m432 -560 c340 -46
858 -317 1069 -561 91 -106 95 -152 25 -297 -76 -155 -82 -182 -87 -387 -7
-251 -4 -241 -66 -259 -49 -14 -51 -14 -69 7 -10 12 -32 58 -49 102 -44 114
-125 228 -275 385 -71 76 -196 206 -276 291 -175 184 -226 219 -328 227 -59 4
-77 1 -123 -21 -80 -36 -111 -82 -116 -167 -6 -103 23 -147 190 -282 164 -133
216 -223 225 -393 6 -112 -8 -172 -43 -185 -41 -16 -106 -11 -141 10 -44 27
-60 62 -94 211 -38 170 -68 227 -141 265 -17 9 -48 49 -79 102 -59 101 -90
137 -141 163 -60 31 -168 19 -168 -18 0 -23 39 -53 70 -53 41 0 72 -33 98
-103 31 -83 66 -129 128 -172 47 -32 84 -77 84 -100 0 -3 -15 5 -33 19 -55 42
-118 66 -177 66 -30 0 -73 5 -95 11 -60 16 -131 96 -183 203 -56 117 -74 140
-130 173 -45 27 -54 28 -218 33 -196 6 -216 13 -234 81 -23 84 -19 88 188 196
l187 97 210 6 c205 5 211 6 267 33 64 32 83 54 148 177 38 70 53 89 88 108 70
39 160 49 289 32z m2114 -171 c450 -225 874 -524 1237 -873 347 -333 727 -792
767 -925 7 -24 7 -24 -43 -18 -30 3 -82 22 -124 44 -114 59 -182 46 -217 -43
-19 -49 -38 -74 -57 -74 -7 0 -26 -11 -41 -24 l-28 -24 2 -138 2 -137 -37 36
c-100 95 -152 77 -226 -78 l-44 -90 -6 40 c-7 47 -37 172 -71 302 -13 51 -27
139 -31 201 l-7 110 -48 6 c-37 5 -49 11 -49 24 -1 61 -21 195 -33 219 -9 17
-17 75 -20 148 -3 66 -14 151 -24 190 -17 64 -22 73 -73 113 -78 63 -100 102
-100 179 0 160 -57 256 -158 270 -53 7 -95 -10 -130 -53 -26 -31 -29 -32 -67
-23 -22 5 -81 6 -131 3 -116 -8 -136 1 -264 120 -53 50 -125 107 -159 126
-148 84 -169 100 -190 143 -26 53 -27 113 -2 152 10 17 46 46 79 65 34 19 62
42 62 50 0 9 -13 31 -30 50 -16 19 -29 38 -30 42 0 10 79 -26 291 -133z
m-3976 -456 c76 -40 109 -86 159 -225 22 -60 54 -83 148 -107 89 -22 112 -34
208 -105 146 -111 239 -136 492 -136 193 0 305 -12 391 -43 62 -22 62 -22 65
-64 4 -54 -19 -108 -57 -131 -17 -10 -79 -29 -137 -41 -167 -35 -234 -80 -270
-178 -35 -100 5 -257 91 -352 48 -53 251 -188 320 -212 71 -25 104 -19 144 26
31 36 37 57 70 250 23 140 47 195 102 234 125 91 206 62 411 -148 238 -243
371 -409 384 -477 8 -41 -6 -60 -81 -109 -60 -40 -85 -79 -85 -133 0 -39 2
-41 48 -58 98 -36 164 -68 178 -88 17 -25 19 -122 2 -133 -7 -4 -81 -9 -164
-10 -169 -2 -209 -12 -306 -76 -114 -76 -177 -164 -216 -305 -25 -90 -49 -131
-87 -154 -17 -9 -97 -30 -179 -47 -172 -35 -223 -60 -266 -128 -50 -78 -64
-171 -54 -347 11 -191 9 -291 -9 -340 -22 -63 -35 -65 -108 -15 -92 62 -141
111 -215 212 -36 49 -84 107 -107 128 -51 51 -165 106 -257 125 -200 41 -326
-62 -411 -339 -25 -81 -40 -113 -77 -157 -123 -149 -135 -326 -34 -478 115
-174 292 -207 528 -98 l74 35 22 -42 c18 -36 21 -61 23 -169 2 -115 4 -131 29
-181 21 -44 39 -64 90 -98 54 -36 117 -103 105 -113 -2 -1 -52 -28 -111 -59
l-106 -56 -104 68 c-69 45 -139 104 -213 178 -108 108 -114 112 -255 181 -80
39 -210 98 -290 132 -180 76 -226 102 -246 142 -10 19 -21 88 -30 187 -7 86
-18 170 -23 188 l-9 32 51 15 c29 8 126 36 217 61 195 55 210 63 210 108 0 69
3 68 -362 108 l-208 23 -69 140 c-78 158 -168 301 -234 368 -24 25 -86 73
-138 108 -141 94 -195 143 -215 195 -34 90 -3 173 138 372 121 170 143 218
142 308 0 85 -24 161 -103 333 -81 174 -94 225 -89 331 5 100 24 147 139 347
112 197 135 293 86 365 -52 78 -155 104 -385 97 -84 -2 -149 -1 -145 3 83 77
280 236 315 254 27 14 95 33 162 45 153 27 185 38 351 125 246 128 330 157
445 152 51 -3 88 -10 115 -24z m4453 -425 c75 -78 94 -102 121 -155 18 -37 29
-103 17 -103 -20 0 -159 58 -188 79 -41 29 -68 74 -68 116 0 30 38 125 50 125
5 0 35 -28 68 -62z m378 -550 c-8 -13 -36 -59 -61 -103 -54 -96 -63 -108 -92
-123 -31 -17 -58 -15 -103 8 -49 25 -64 51 -55 99 15 82 54 107 199 126 141
18 131 19 112 -7z m1520 -1002 c118 -250 310 -786 338 -947 5 -30 44 -233 51
-266 4 -18 -20 -35 -193 -136 -377 -219 -947 -500 -964 -474 -4 6 -8 77 -7
157 l1 145 -46 113 c-59 145 -83 231 -101 370 -54 410 40 765 240 902 73 50
116 56 247 35 111 -18 114 -18 191 2 64 16 80 17 84 6 5 -13 79 -40 88 -32 2
3 -5 70 -15 149 -11 80 -20 149 -20 155 0 21 55 -73 106 -179z m-9170 -607
c-13 -57 -34 -149 -47 -204 -12 -55 -24 -102 -25 -104 -4 -5 -254 127 -359
189 l-90 54 80 38 c110 51 217 86 349 113 61 12 112 22 113 21 1 -1 -8 -49
-21 -107z m-531 -89 c-3 -5 -11 -10 -16 -10 -6 0 -7 5 -4 10 3 6 11 10 16 10
6 0 7 -4 4 -10z m88 -114 c175 -105 529 -266 805 -365 174 -63 530 -168 777
-230 370 -94 982 -199 1440 -248 91 -9 165 -21 165 -25 0 -4 -3 -8 -6 -8 -11
0 -363 -95 -634 -172 -157 -44 -399 -109 -539 -144 -139 -34 -258 -67 -263
-72 -11 -11 80 -94 272 -248 301 -242 575 -429 825 -565 l70 -39 -152 0 c-353
0 -719 40 -1158 126 -292 57 -493 116 -845 246 -253 93 -652 287 -832 403
l-117 76 -10 52 c-20 97 -31 241 -31 417 0 235 16 439 66 847 l7 52 41 -28
c22 -15 76 -49 119 -75z m10207 18 c47 -14 132 -44 188 -67 l104 -41 -24 -18
c-53 -41 -300 -209 -303 -206 -2 2 -10 41 -19 88 -9 47 -27 129 -40 183 -20
85 -21 97 -7 93 9 -3 54 -17 101 -32z m379 -191 c44 -167 65 -413 58 -678 -9
-325 -52 -605 -143 -922 l-15 -51 -112 -48 c-119 -50 -438 -172 -677 -259
-153 -55 -681 -226 -910 -294 -617 -183 -1613 -404 -2378 -527 -296 -47 -990
-130 -1362 -162 l-85 -7 2 -56 c3 -99 95 -468 152 -608 l22 -53 -38 7 c-196
35 -592 194 -1243 496 -402 188 -1061 517 -1067 534 -2 6 25 21 59 34 288 111
1116 500 1498 704 316 168 610 343 768 455 39 29 72 51 72 49 0 -1 -12 -38
-25 -82 -14 -44 -51 -161 -81 -260 -31 -99 -81 -247 -111 -328 -30 -81 -53
-151 -49 -154 7 -8 44 0 446 97 846 204 1886 530 2720 852 30 12 189 77 354
145 821 341 1547 728 2026 1081 52 39 98 71 102 71 4 1 12 -16 17 -36z m-5008
-1837 c107 -28 224 -75 212 -86 -20 -17 -741 -195 -751 -185 -2 1 0 14 3 28 7
27 36 37 111 37 48 0 43 -9 65 105 12 64 22 89 48 119 14 17 26 18 117 12 55
-3 143 -17 195 -30z m2040 -916 c67 -63 101 -141 102 -233 2 -147 -44 -216
-244 -368 -185 -141 -239 -221 -284 -420 -39 -174 -62 -214 -217 -380 -180
-192 -215 -223 -370 -319 -280 -175 -373 -243 -572 -425 -112 -103 -199 -203
-292 -337 -41 -58 -90 -120 -109 -137 -47 -41 -125 -61 -300 -76 -38 -3 -99
-10 -135 -15 -36 -5 -120 -10 -186 -10 -135 0 -134 0 -134 68 0 63 52 150 184
311 69 85 150 191 180 236 102 153 214 433 224 556 6 89 -10 118 -93 165 -73
40 -93 70 -114 166 -12 56 -12 56 -54 63 -23 4 -66 17 -94 30 -65 29 -210 128
-278 189 l-50 45 105 -35 c235 -78 306 -85 331 -30 10 20 5 41 -29 127 -59
152 -91 262 -122 416 l-27 138 26 7 c14 3 127 16 251 28 389 37 1092 133 1475
201 205 36 668 129 674 135 9 8 106 -53 152 -96z"/>
</g>
</svg>
