<?xml version="1.0" encoding="UTF-8" standalone="no"?>
<svg
   xmlns:dc="http://purl.org/dc/elements/1.1/"
   xmlns:cc="http://creativecommons.org/ns#"
   xmlns:rdf="http://www.w3.org/1999/02/22-rdf-syntax-ns#"
   xmlns:svg="http://www.w3.org/2000/svg"
   xmlns="http://www.w3.org/2000/svg"
   xmlns:sodipodi="http://sodipodi.sourceforge.net/DTD/sodipodi-0.dtd"
   xmlns:inkscape="http://www.inkscape.org/namespaces/inkscape"
   width="145.78659mm"
   height="130.38594mm"
   viewBox="0 0 145.78659 130.38594"
   version="1.1"
   id="svg8"
   inkscape:version="1.0.2 (e86c8708, 2021-01-15)"
   sodipodi:docname="world-logo-alt-colors.svg">
  <defs
     id="defs2" />
  <sodipodi:namedview
     id="base"
     pagecolor="#ffffff"
     bordercolor="#666666"
     borderopacity="1.0"
     inkscape:pageopacity="0.0"
     inkscape:pageshadow="2"
     inkscape:zoom="0.92339928"
     inkscape:cx="192.14066"
     inkscape:cy="363.20445"
     inkscape:document-units="mm"
     inkscape:current-layer="g86"
     inkscape:document-rotation="0"
     showgrid="false"
     inkscape:lockguides="false"
     inkscape:pagecheckerboard="true"
     fit-margin-top="0"
     fit-margin-left="0"
     fit-margin-right="0"
     fit-margin-bottom="0"
     inkscape:window-width="1792"
     inkscape:window-height="991"
     inkscape:window-x="0"
     inkscape:window-y="25"
     inkscape:window-maximized="1" />
  <metadata
     id="metadata5">
    <rdf:RDF>
      <cc:Work
         rdf:about="">
        <dc:format>image/svg+xml</dc:format>
        <dc:type
           rdf:resource="http://purl.org/dc/dcmitype/StillImage" />
        <dc:title />
      </cc:Work>
    </rdf:RDF>
  </metadata>
  <g
     inkscape:label="Layer 1"
     inkscape:groupmode="layer"
     id="layer1"
     transform="translate(-32.953898,-77.553827)">
    <g
       id="g54"
       inkscape:label="hoptoad grey"
       transform="matrix(0.35277777,0,0,-0.35277777,-53.624925,463.37179)">
      <g
         id="g56"
         transform="scale(1.13993)">
        <path
           d="m 549.282,831.6179 c 0,0.1491 8.9297,-0.1542 24.3309,-7.1822 -4.6352,-4.0374 -19.834,-11.6011 -20.7368,-12.1541 -0.4484,5.0839 -1.6398,11.4701 -3.5941,19.3363 z"
           style="fill:none;stroke:#231f20;stroke-width:4;stroke-linecap:round;stroke-linejoin:round;stroke-miterlimit:2.61313;stroke-dasharray:none;stroke-opacity:1"
           id="path58" />
      </g>
      <path
         d="m 626.1423,947.9852 c 0,0.17 10.1792,-0.1758 27.7356,-8.1871 -5.2838,-4.6023 -22.6094,-13.2244 -23.6387,-13.8549 -0.511,5.7952 -1.8691,13.0751 -4.0969,22.042"
         style="fill:#918f8f;fill-opacity:1;fill-rule:evenodd;stroke:none"
         id="path60" />
      <g
         id="g62"
         transform="matrix(1.12408,-0.18942,0.18942,1.12408,0,0)">
        <path
           d="m 98.3594,850.5462 c -10.9154,2.0934 -18.9902,6.5792 -19.1398,6.2802 -0.1494,-0.2991 5.5329,6.5795 20.1866,10.7662 0,0 -1.4953,-9.57 -1.0468,-17.0464 z"
           style="fill:none;stroke:#231f20;stroke-width:4;stroke-linecap:round;stroke-linejoin:round;stroke-miterlimit:2.61313;stroke-dasharray:none;stroke-opacity:1"
           id="path64" />
      </g>
      <path
         d="m 271.6705,937.4528 c -11.8732,4.4206 -20.1005,10.9924 -20.3253,10.6846 -0.2245,-0.3079 7.4659,6.3479 24.7309,8.2786 0,0 -3.4937,-10.4743 -4.4056,-18.9632"
         style="fill:#918f8f;fill-opacity:1;fill-rule:evenodd;stroke:none"
         id="path66" />
      <path
         d="m 618.8012,985.375 c 0,0 28.6849,-42.1835 19.9666,-109.3961 C 622.1755,765.4581 538.3712,744.0851 538.3712,744.0851 c 0,0 -57.3695,-26.435 -113.0516,-18.5609 -55.6824,7.8743 -90.8345,38.8224 -97.4347,44.7913 -6.6002,5.9689 -14.7818,13.5131 -19.1829,19.1455 -5.6702,7.257 -6.289,7.1504 -12.0977,15.8678 -10.9157,16.382 -21.6811,38.7689 -25.708,58.9637 -7.8111,39.1717 -4.3132,60.111 5.3439,98.1179 1.8207,7.1651 4.6199,14.1837 7.3729,20.5923 3.1107,7.2408 5.8096,11.8757 9.6318,18.3333 3.4467,5.8232 15.039,20.196 19.1245,23.5999 l 23.084,18.8637 c 46.0633,35.2001 75.7925,60.1634 143.5155,45.6551 12.8518,-2.7533 30.6837,-8.0992 42.1413,-13.7886 9.4535,-4.6944 18.6296,-9.0601 27.6449,-15.0797 19.0358,-12.7097 22.0002,-15.5631 38.1807,-31.7316 11.4987,-11.4903 21.5773,-26.1958 29.8672,-40.0454 z m -1.9982,3.4344 c 8.2899,-13.8495 1.9982,-3.4344 1.9982,-3.4344 z"
         style="fill:#231f20;fill-opacity:1;fill-rule:evenodd;stroke:none"
         id="path76" />
      <path
         d="m 411.6283,1059.2765 c 6.671,0.7996 15.2064,-1.639 19.7971,2.734 4.2273,4.0266 2.0052,10.0171 11.9829,10.6835 14.5641,0.9728 37.9899,-12.0864 45.7795,-21.1774 5.7215,-6.6773 1.8769,-8.346 -0.8844,-15.3388 -2.6654,-6.7493 -0.2931,-13.5935 -1.9848,-19.8335 l -4.0575,-1.26 c -4.6488,5.1917 0.3946,6.1189 -14.7104,21.0028 -5.6228,5.5406 -12.683,15.1804 -17.9546,17.0104 -5.0406,1.7498 -10.4227,-0.4374 -11.4906,-4.8623 -2.2291,-9.2375 10.8723,-11.1917 14.3269,-20.2779 1.6622,-4.3721 2.0446,-9.813 0.2177,-13.5142 -11.9452,-3.7074 -8.0461,10.8675 -12.4824,16.0081 -4.1153,4.7693 -1.4584,-1.7872 -7.0313,8.5006 -1.6242,2.9982 -5.8323,5.8705 -9.9796,3.3029 1.6338,-3.7159 2.5299,-0.235 5.2636,-3.3131 1.0273,-1.1568 1.4805,-3.6133 2.452,-5.3581 2.7394,-4.9198 5.8464,-2.9086 7.0599,-8.6558 -7.4857,7.4454 -10.3328,1.3563 -15.366,6.5794 -2.778,2.8832 -3.2686,5.0488 -4.6148,7.8234 -5.8493,12.0569 -22.985,-1.5106 -21.0198,12.2743 z"
         style="fill:#778591;fill-opacity:1;fill-rule:evenodd;stroke:none"
         id="path78" />
      <path
         d="m 422.6539,1015.6907 c -5.2413,-1.7255 -7.9362,-6.6974 -5.6455,-13.0711 2.2445,-6.245 4.974,-7.2312 9.7002,-10.4845 17.335,-11.9331 9.5343,10.8104 16.5744,16.0528 6.3289,4.7124 10.7878,0.1086 14.0879,-3.2317 30.3483,-30.7188 9.6242,-18.4096 10.1265,-30.5669 4.4161,-2.3564 11.1898,-1.9097 8.896,-9.2999 -5.4621,-1.7198 -8.4288,0.4434 -13.1386,-0.9195 -2.6855,-0.777 -6.9854,-3.6066 -8.2406,-4.968 -7.077,-7.6763 -2.2876,-13.8513 -10.7549,-15.6555 -9.4686,-2.0177 -13.5956,-1.0108 -15.681,-10.7246 -1.5043,-7.0072 2.7164,-17.604 -1.8006,-22.9552 -11.9848,6.4539 -10.8983,12.7 -17.6247,16.5251 -19.944,11.3417 -22.0722,-11.4557 -23.4181,-13.6579 -1.1064,-1.8102 -2.4976,-2.825 -3.6765,-4.8359 -2.484,-4.237 -2.327,-9.9394 0.0275,-13.9683 7.9095,-13.5371 21.9208,-3.4381 23.1738,-3.2026 2.7858,-4.7525 1.5003,-3.8775 1.7359,-10.055 0.3985,-10.4582 7.1215,-6.3411 8.9461,-14.2662 0.745,-3.2364 0.7404,-7.8656 -0.0878,-10.8309 -1.3981,-0.3161 -0.4207,-1.1909 -2.647,1.8056 -2.8293,3.8081 -2.0651,3.6791 -7.3259,6.738 -17.6133,10.2416 -2.6606,8.814 -35.0033,21.7278 -6.9268,2.7655 -6.1796,4.6928 -6.6938,12.71 -0.7509,11.7114 -9.8129,32.3779 -17.2836,38.5903 -7.9932,6.6467 -18.245,7.9041 -8.3416,22.002 6.2263,8.8633 10.8652,11.0032 2.6983,26.7653 -6.6566,12.8469 -1.9204,17.2321 3.7375,27.39 10.311,18.5108 -12.5694,14.1367 -18.8274,14.33 l 10.8048,9.1729 c 4.8668,3.6204 8.6247,1.8921 15.0877,4.3923 7.4823,2.8947 19.523,12.8792 28.2991,7.1487 5.938,-3.8772 2.8052,-9.3957 8.2125,-11.198 4.1936,-1.3978 3.6071,-0.1454 7.3781,-2.755 2.1605,-1.4953 3.3661,-2.6031 5.4138,-3.8636 9.876,-6.0812 23.0437,-0.051 32.8459,-5.7881 0.7345,-8.7749 -4.6114,-6.7666 -11.5551,-9.0524"
         style="fill:#778591;fill-opacity:1;fill-rule:evenodd;stroke:none"
         id="path80" />
      <path
         d="m 344.6337,1042.092 c 0.7999,1.0723 0.5768,0.9791 1.9803,2.2127 0.7871,0.692 1.3198,0.9587 2.2569,1.6308 22.5814,16.1997 40.3829,33.2447 70.9849,39.3593 16.7443,3.3458 37.6478,2.9135 54.2597,-0.7154 12.9075,-2.8197 37.6458,-8.2117 43.0608,-15.9134 -3.0388,-2.5643 -7.7567,-3.5397 -5.993,-10.6484 0.892,-3.5955 5.9408,-6.205 9.0536,-8.0991 4.1666,-2.5354 6.2509,-4.6588 9.28,-7.7862 4.7313,-4.8844 6.1506,-0.707 11.2986,-1.8953 1.948,-4.9904 -3.2652,-4.1681 -2.6915,-11.1883 0.8754,-2.6827 13.0828,-10.0996 15.0554,-8.809 2.9049,1.9009 1.2484,7.0146 -0.743,9.0712 -3.2643,3.3706 -7.3233,5.7498 -5.6162,12.2116 l 5.0374,-0.3608 c 0.6202,-2.5008 0.6644,-5.2416 1.0633,-7.5243 l 2.1889,-4.7651 c 1.9244,-1.9697 6.8511,-8.3542 4.0808,-12.2524 -3.3738,-2.5022 -6.9951,-1.5288 -10.1767,-3.8206 -2.2516,-1.6217 -4.0575,-5.3084 -1.7527,-8.8452 6.5875,-10.1075 13.9539,4.4433 14.2342,4.6865 0.8748,-2.0511 0.1721,-4.9742 0.1193,-7.6904 l 3.3288,-1.1868 c 0.0969,0.176 0.4036,-0.1338 0.5904,-0.2333 -0.002,-4.5309 1.1832,-8.191 2.556,-12.0135 1.4224,-3.9595 0.8867,-7.9796 1.5639,-11.8043 l 0.4654,-1.173 c 5.8323,-2.4988 6.1937,3.2791 8.0215,7.5688 6.0577,-2.4387 2.6362,-1.7734 5.1052,-6.5532 6.8386,0.3342 2.5044,9.2271 3.087,12.9546 0.3058,1.9582 -0.0358,0.7322 0.7971,1.7694 5.3648,-2.9069 -2.9282,-6.1523 2.3303,-8.7063 5.4434,2.9319 -2.4837,9.8005 3.1071,16.7627 4.2256,0.153 4.6865,-1.2776 8.0662,-2.4497 4.6256,-1.6044 3.8679,1.0102 6.3905,-2.0679 3.3806,-4.1255 5.0842,-8.653 5.0779,-15.2612 -2.5191,-1.2186 -1.2027,0.8107 -3.139,-1.5922 -0.7288,-0.9048 -1.4661,-2.7476 -2.2473,-3.8341 -7.428,0.0433 -9.4791,3.7159 -17.4949,-1.3414 -14.6699,-9.2551 -13.1077,-36.7242 -6.7229,-49.9396 3.92,-8.1136 -0.0496,-10.6294 2.3978,-17.7968 1.3745,-4.0249 5.4071,-9.9448 7.734,-13.9694 2.9999,-5.188 3.8004,-11.0364 11.4421,-8.5003 6.8173,2.2627 7.9693,7.8835 13.1303,7.4175 3.6587,-4.7708 0.2815,-5.7694 5.9531,-10.3337 4.5779,-3.6845 3.7273,-3.8183 9.1706,-6.5328 -1.0839,-18.0079 -11.8542,-41.8546 -19.3252,-54.6508 -18.6451,-31.9346 -45.2307,-53.5623 -80.9209,-66.5904 -16.2898,-5.9465 -40.5147,-12.8962 -59.3305,-14.898 5.877,11.0684 23.5961,26.4994 36.2735,33.249 6.4828,3.4514 8.8336,6.9808 13.659,11.9676 1.6484,1.7033 2.7831,2.3445 4.2548,4.2664 6.6901,8.7352 0.163,13.4124 11.1033,23.131 5.5469,4.9274 15.8125,9.6108 12.2043,21.9807 -2.3524,8.0642 -10.8272,12.3888 -20.7513,13.4379 -15.0982,1.5956 -15.0131,3.0291 -20.7589,13.4266 -7.6383,13.8217 -12.6528,5.087 -22.5888,3.7834 -6.5055,5.8643 -7.759,7.5651 -19.0975,10.4439 -9.9496,2.5266 -17.6491,4.1097 -18.2223,-7.5458 -4.5666,-0.2741 -4.8152,0.0405 -7.9908,-1.6503 -2.5833,-10.0667 -0.0281,-12.92 -6.2164,-24.2822 -2.9132,-5.3487 -13.0142,-11.4162 -10.9021,-17.6025 0.8603,-2.5198 2.1751,-2.4778 3.3557,-4.4147 2.2989,-3.7715 2.3998,-9.4468 6.23,-15.5378 3.1575,-5.0208 3.1147,-3.9425 7.8777,-6.8653 4.4538,-2.7331 3.3801,-3.9994 10.1098,-4.6638 1.9723,-13.3282 15.1968,-3.5861 1.3408,-29.465 -2.723,-5.0857 -6.308,-7.7896 -9.5443,-12.2046 -3.1172,-4.2534 -6.1733,-8.3509 -4.1573,-15.1996 -20.0877,0.4155 -27.4722,1.3733 -44.8469,7.4208 -24.8,8.6318 -53.9093,24.533 -72.4391,43.3139 -15.2889,15.4962 -27.2965,32.7935 -36.2749,53.8356 -11.3038,26.492 -16.276,59.1537 -11.3046,88.1255 4.5422,26.473 11.0231,55.5332 27.2098,76.1468 4.1706,5.3115 7.289,9.1485 11.6161,13.9895 5.3761,6.0143 8.8871,10.9639 14.7302,11.0631 7.3698,0.1247 19.8649,1.6285 17.7763,-7.7097 -1.0488,-4.6908 -7.5191,-9.9822 -9.3472,-16.3406 -4.6108,-16.0353 15.9097,-22.8305 1.5562,-38.9086 -15.9653,-17.883 -0.5122,-20.6649 8.0586,-29.5722 6.5812,-6.8394 14.1888,-23.978 14.7671,-36.6298 0.4278,-9.351 3.0135,-11.9861 11.1297,-14.3374 6.806,-1.9718 12.9373,-4.4161 17.4138,-8.2641 6.2028,-5.3323 7.308,-6.7774 14.6616,-10.9488 8.0496,-4.5664 9.9933,-12.1278 12.8047,-13.0941 2.0783,6.2138 3.5886,18.6845 -2.0469,22.2636 -4.1142,2.6129 -5.6225,3.1337 -5.4853,9.5958 0.117,5.5063 1.5077,7.9852 -1.9965,11.4987 -5.9737,0.62 -4.9912,-4.5501 -12.4285,-4.5107 -4.8787,0.0258 -8.7885,2.863 -10.131,6.2422 -1.853,4.6635 -0.256,9.1938 2.2255,12.5503 6.3844,8.6358 4.4336,19.5407 14.7608,18.4825 12.4163,-1.2719 13.6613,-20.9066 28.6027,-19.849 4.6131,8.2562 0.7087,14.3127 1.9968,23.6693 1.5318,11.1274 7.1498,8.2377 16.164,11.0162 7.6178,2.348 3.7508,10.0216 10.7637,16.3851 8.6116,7.814 12.9804,1.7283 20.5205,5.0157 3.4739,10.5641 -5.6086,9.3727 -8.0875,13.5272 3.5178,5.6358 11.7417,2.4962 -1.0709,19.0754 -2.6782,3.4651 -11.8355,13.4935 -15.4179,14.9845 1.6061,3.7296 4.4436,5.0432 3.7973,11.4285 -0.4491,4.4342 -1.8599,9.0088 -3.9065,11.6359 -4.3412,5.5721 -15.1064,7.9886 -11.698,16.9195 8.0119,1.8887 9.9576,-2.7015 13.4079,-6.6847 6.7453,-7.7882 15.0726,-12.4917 19.4054,-22.5176 1.931,-4.468 3.7372,-11.6456 10.7263,-8.8058 6.1123,2.4837 3.672,10.7025 3.9634,16.8245 0.6525,13.7253 18.0289,16.6322 -15.8573,36.6409 -7.1413,4.2165 -22.432,10.4204 -32.8099,9.32 -17.9132,-1.8995 -2.5787,-15.12 -27.9587,-13.5879 -8.8769,0.5358 -8.7205,-2.5151 -15.1324,-5.5927 -5.6634,-2.7182 -7.1122,-7.638 -1.4777,-11.6062 5.9136,-4.1649 12.2839,1.1225 17.0322,-2.3836 2.3899,-1.7649 5.6115,-9.3073 7.8327,-11.7111 -6.3879,-0.6395 -13.8203,-0.4124 -18.8512,2.2158 -7.7321,4.0391 -3.6014,4.7291 -14.6381,7.3446 -8.5981,27.2276 -30.2451,3.9926 -44.011,2.3658"
         style="fill:#778591;fill-opacity:1;fill-rule:evenodd;stroke:none"
         id="path82" />
      <path
         d="m 443.1971,1011.9589 c -5.3008,-4.5831 -7.1455,-5.9063 -7.588,-14.796 -0.2345,-4.7143 -1.16,-5.9553 -6.0897,-3.79 -2.3253,1.0214 -4.7696,3.3591 -6.0242,4.8836 -3.8344,4.6596 -5.6492,11.4786 0.8408,14.9573 8.1728,4.3815 7.5495,-0.927 14.2792,8.2819 0.4521,-5.4249 2.3485,-7.0772 4.5819,-9.5368"
         style="fill:#778591;fill-opacity:1;fill-rule:evenodd;stroke:none"
         id="path84" />
      <g
         id="g86">
        <g
           id="g88">
          <path
             d="m 326.1671,1027.6339 c 6.258,-0.1933 29.1384,4.1808 18.8274,-14.33 -5.6579,-10.1579 -10.3941,-14.5431 -3.7375,-27.39 8.1669,-15.7621 3.528,-17.902 -2.6983,-26.7653 -9.9034,-14.0979 0.3484,-15.3553 8.3416,-22.002 7.4707,-6.2124 16.5327,-26.8789 17.2836,-38.5903 0.5142,-8.0172 -0.233,-9.9445 6.6938,-12.71 32.3427,-12.9138 17.39,-11.4862 35.0033,-21.7278 5.2608,-3.0589 4.4966,-2.9299 7.3259,-6.738 2.2263,-2.9965 1.2489,-2.1217 2.647,-1.8056 0.8282,2.9653 0.8328,7.5945 0.0878,10.8309 -1.8246,7.9251 -8.5476,3.808 -8.9461,14.2662 -0.2356,6.1775 1.0499,5.3025 -1.7359,10.055 -1.253,-0.2355 -15.2643,-10.3345 -23.1738,3.2026 -2.3545,4.0289 -2.5115,9.7313 -0.0275,13.9683 1.1789,2.0109 2.5701,3.0257 3.6765,4.8359 1.3459,2.2022 3.4741,24.9996 23.4181,13.6579 6.7264,-3.8251 5.6399,-10.0712 17.6247,-16.5251 4.517,5.3512 0.2963,15.948 1.8006,22.9552 2.0854,9.7138 6.2124,8.7069 15.681,10.7246 8.4673,1.8042 3.6779,7.9792 10.7549,15.6555 1.2552,1.3614 5.5551,4.191 8.2406,4.968 4.7098,1.3629 7.6765,-0.8003 13.1386,0.9195 2.2938,7.3902 -4.4799,6.9435 -8.896,9.2999 -0.5023,12.1573 20.2218,-0.1519 -10.1265,30.5669 -3.3001,3.3403 -7.759,7.9441 -14.0879,3.2317 -7.0401,-5.2424 0.7606,-27.9859 -16.5744,-16.0528 -4.7262,3.2533 -7.4557,4.2395 -9.7002,10.4845 -2.2907,6.3737 0.4042,11.3456 5.6455,13.0711 6.9437,2.2858 12.2896,0.2775 11.5551,9.0524 -9.8022,5.7368 -22.9699,-0.2931 -32.8459,5.7881 -2.0477,1.2605 -3.2533,2.3683 -5.4138,3.8636 -3.771,2.6096 -3.1845,1.3572 -7.3781,2.755 -5.4073,1.8023 -2.2745,7.3208 -8.2125,11.198 -8.7761,5.7305 -20.8168,-4.254 -28.2991,-7.1487 -6.463,-2.5002 -10.2209,-0.7719 -15.0877,-4.3923 z"
             style="fill:#37b53f;fill-opacity:1;fill-rule:evenodd;stroke:none"
             id="path90" />
          <path
             d="m 451.6206,861.5971 -7.0583,-0.5259 c -5.1242,-15.2333 2.9959,-13.5626 -15.9537,-34.7519 -3.1439,-3.5155 -2.2855,-4.5476 0.1894,-7.6223 7.067,-8.7803 -1.2132,-13.4413 15.0488,-23.8028 12.106,-7.7131 8.3279,0.1448 10.4052,-8.1009 1.91,-7.5818 13.113,0.1007 3.8486,-21.7993 -7.9271,-18.7384 -20.6374,-22.7426 -18.1894,-32.2817 4.7152,-1.3108 14.2742,0.504 19.7847,1.133 14.0355,1.6024 6.2521,4.4651 23.7127,20.6022 12.3976,11.4579 15.6926,11.5735 25.7507,18.5496 4.3104,2.9897 7.8452,7.6657 11.3485,11.1739 10.9687,10.9831 0.7915,16.2961 16.9589,28.0582 3.6428,2.6501 8.8458,5.8195 9.1264,12.5983 0.305,7.3567 -4.2117,10.8453 -8.9986,13.3364 -12.3142,6.4083 -23.5437,-1.239 -31.2485,13.0224 -8.9244,16.518 -10.4426,7.2459 -20.3831,6.3595 -4.7415,-0.4227 -4.3753,2.2127 -6.5123,4.7772 -2.846,3.4155 -9.2484,5.9338 -15.346,7.1827 -10.8062,2.2136 -10.8374,2.0404 -12.484,-7.9086"
             style="fill:#b1dc9a;fill-opacity:1;fill-rule:evenodd;stroke:none"
             id="path92" />
          <path
             d="m 614.586,970.1116 c -5.7115,0.7545 -1.1959,2.6773 -5.4779,1.2271 -8.5011,-2.8789 -12.1,4.5295 -20.1821,-3.9053 -8.6468,-9.0241 -8.4178,-32 -3.06,-44.46 3.5711,-8.3047 1.9321,-5.5315 1.9885,-14.3306 0.0317,-4.9436 9.2656,-22.5507 11.7042,-24.8456 10.7178,0.9861 11.0583,10.9579 19.2912,6.8255 4.5097,-2.2635 2.221,-5.1154 5.1395,-8.8095 1.0452,-1.3224 2.6728,-1.8947 3.8736,-3.1215 2.2493,-2.2989 0.6956,-2.7374 4.3217,-3.6462 l 1.5406,6.4094 c 1.758,28.9069 0.5029,50.0048 -10.0973,78.4074 -1.8947,5.0769 -7.7689,19.6172 -10.5673,22.4799 z"
             style="fill:#b1dc9a;fill-opacity:1;fill-rule:evenodd;stroke:none"
             id="path94" />
          <path
             d="m 396.9317,1051.6048 c -1.9652,-13.7849 15.1705,-0.2174 21.0198,-12.2743 1.3462,-2.7746 1.8368,-4.9402 4.6148,-7.8234 5.0332,-5.2231 7.8803,0.866 15.366,-6.5794 -1.2135,5.7472 -4.3205,3.736 -7.0599,8.6558 -0.9715,1.7448 -1.4247,4.2013 -2.452,5.3581 -2.7337,3.0781 -3.6298,-0.4028 -5.2636,3.3131 4.1473,2.5676 8.3554,-0.3047 9.9796,-3.3029 5.5729,-10.2878 2.916,-3.7313 7.0313,-8.5006 4.4363,-5.1406 0.5372,-19.7155 12.4824,-16.0081 1.8269,3.7012 1.4445,9.1421 -0.2177,13.5142 -3.4546,9.0862 -16.556,11.0404 -14.3269,20.2779 1.0679,4.4249 6.45,6.6121 11.4906,4.8623 5.2716,-1.83 12.3318,-11.4698 17.9546,-17.0104 15.105,-14.8839 10.0616,-15.8111 14.7104,-21.0028 l 4.0575,1.26 c 1.6917,6.24 -0.6806,13.0842 1.9848,19.8335 2.7613,6.9928 6.6059,8.6615 0.8844,15.3388 -7.7896,9.091 -31.2154,22.1502 -45.7795,21.1774 -9.9777,-0.6664 -7.7556,-6.6569 -11.9829,-10.6835 -4.5907,-4.373 -13.1261,-1.9344 -19.7971,-2.734 z"
             style="fill:#37b53f;fill-opacity:1;fill-rule:evenodd;stroke:none"
             id="path96" />
          <path
             d="m 519.6932,1067.1123 -1.0639,-0.5752 c -2.8488,-1.487 -6.6081,-3.164 -4.9589,-8.3395 1.1639,-3.6522 5.5602,-4.8146 8.7644,-6.8417 3.9065,-2.4712 5.2118,-4.9439 8.2591,-7.2513 4.7551,-3.6011 6.5593,0.075 13.2273,-2.0205 2.2478,5.0856 8.1864,4.2091 10.3198,-0.081 2.6949,-5.4179 -1.0299,-9.0239 4.2633,-12.8367 2.215,-1.5957 2.4984,-1.0625 3.4268,-5.0758 0.519,-2.2436 0.9723,-5.1797 0.8855,-7.4106 -0.263,-6.7716 -0.3078,-1.5803 1.1792,-5.9828 0.8385,-2.4831 0.5576,-5.3458 0.6925,-7.9699 l 4.0088,-0.3288 c -0.5828,-13.0986 3.5819,-14.9989 3.8208,-25.3032 2.6858,2.7494 3.6199,15.7182 12.2114,5.2059 0.131,4.6547 -1.3221,6.887 0.005,11.014 2.2099,2.6467 1.8057,0.6868 3.253,2.2575 1.0347,1.1228 0.8598,2.4443 2.0498,4.1768 5.4638,3.4665 7.05,-2.8995 13.6978,-2.0718 0.1636,3.3199 -13.6791,19.9559 -16.6663,22.7701 -2.3312,2.196 -2.7456,3.0498 -4.7508,5.3377 -1.8474,2.1078 -3.1808,3.026 -5.1072,4.9924 -15.5758,15.8986 -37.9239,31.4416 -60.5239,40.6896 1.2838,-2.2473 1.8399,-1.9522 3.0067,-4.3557"
             style="fill:#b1dc9a;fill-opacity:1;fill-rule:evenodd;stroke:none"
             id="path98" />
          <path
             d="m 548.5158,1005.1747 c 8.4892,-6.5089 8.0317,3.7565 13.0805,8.0963 -6.6061,-1.3014 -14.3291,0.5505 -13.0805,-8.0963"
             style="fill:#b1dc9a;fill-opacity:1;fill-rule:evenodd;stroke:none"
             id="path100" />
          <path
             d="m 551.454,1022.8388 c 0.8747,3.8704 -2.9172,7.8914 -6.0571,11.09 -1.6166,1.6466 -0.1021,0.4847 -2.0291,1.5392 -1.2469,-2.6606 -6.561,-8.3877 8.0862,-12.6292"
             style="fill:#b1dc9a;fill-opacity:1;fill-rule:evenodd;stroke:none"
             id="path102" />
        </g>
        <path
           d="m 518.6293,1066.5371 1.0639,0.5752 c -1.1668,2.4035 -1.7229,2.1084 -3.0067,4.3557 22.6,-9.248 44.9481,-24.791 60.5239,-40.6896 1.9264,-1.9664 3.2598,-2.8846 5.1072,-4.9924 2.0052,-2.2879 2.4196,-3.1417 4.7508,-5.3377 2.9872,-2.8142 16.8299,-19.4502 16.6663,-22.7701 -6.6478,-0.8277 -8.234,5.5383 -13.6978,2.0718 -1.19,-1.7325 -1.0151,-3.054 -2.0498,-4.1768 -1.4473,-1.5707 -1.0431,0.3892 -3.253,-2.2575 -1.3269,-4.127 0.1262,-6.3593 -0.005,-11.014 -8.5915,10.5123 -9.5256,-2.4565 -12.2114,-5.2059 -0.2389,10.3043 -4.4036,12.2046 -3.8208,25.3032 l -4.0088,0.3288 c -0.1349,2.6241 0.146,5.4868 -0.6925,7.9699 -1.487,4.4025 -1.4422,-0.7888 -1.1792,5.9828 0.0868,2.2309 -0.3665,5.167 -0.8855,7.4106 -0.9284,4.0133 -1.2118,3.4801 -3.4268,5.0758 -5.2932,3.8128 -1.5684,7.4188 -4.2633,12.8367 -2.1334,4.2896 -8.072,5.1661 -10.3198,0.081 -6.668,2.0956 -8.4722,-1.5806 -13.2273,2.0205 -3.0473,2.3074 -4.3526,4.7801 -8.2591,7.2513 -3.2042,2.0271 -7.6005,3.1895 -8.7644,6.8417 -1.6492,5.1755 2.1101,6.8525 4.9589,8.3395 z"
           style="fill:#37b53f;fill-opacity:1;fill-rule:evenodd;stroke:#7b8793;stroke-width:0.216;stroke-linecap:butt;stroke-linejoin:miter;stroke-miterlimit:2.61313;stroke-dasharray:none;stroke-opacity:1"
           id="path104" />
        <path
           d="m 551.454,1022.8388 c -14.6472,4.2415 -9.3331,9.9686 -8.0862,12.6292 1.927,-1.0545 0.4125,0.1074 2.0291,-1.5392 3.1399,-3.1986 6.9318,-7.2196 6.0571,-11.09"
           style="fill:#37b53f;fill-opacity:1;fill-rule:evenodd;stroke:none"
           id="path106" />
        <path
           d="m 548.5158,1005.1747 c -1.2486,8.6468 6.4744,6.7949 13.0805,8.0963 -5.0488,-4.3398 -4.5913,-14.6052 -13.0805,-8.0963"
           style="fill:#37b53f;fill-opacity:1;fill-rule:evenodd;stroke:none"
           id="path108" />
        <path
           d="m 585.866,922.9734 c -5.3578,12.46 -5.5868,35.4359 3.06,44.46 8.0821,8.4348 11.681,1.0264 20.1821,3.9053 4.282,1.4502 -0.2336,-0.4726 5.4779,-1.2271 l -1.5253,12.2306 c 2.7984,-2.8627 8.6726,-17.403 10.5673,-22.4799 10.6002,-28.4026 11.8553,-49.5005 10.0973,-78.4074 l -1.5406,-6.4094 c -3.6261,0.9088 -2.0724,1.3473 -4.3217,3.6462 -1.2008,1.2268 -2.8284,1.7991 -3.8736,3.1215 -2.9185,3.6941 -0.6298,6.546 -5.1395,8.8095 -8.2329,4.1324 -8.5734,-5.8394 -19.2912,-6.8255 -2.4386,2.2949 -11.6725,19.902 -11.7042,24.8456 -0.0564,8.7991 1.5826,6.0259 -1.9885,14.3306"
           style="fill:#37b53f;fill-opacity:1;fill-rule:evenodd;stroke:none"
           id="path110" />
        <path
           d="m 451.6206,861.5971 c 1.6466,9.949 1.6778,10.1222 12.484,7.9086 6.0976,-1.2489 12.5,-3.7672 15.346,-7.1827 2.137,-2.5645 1.7708,-5.1999 6.5123,-4.7772 9.9405,0.8864 11.4587,10.1585 20.3831,-6.3595 7.7048,-14.2614 18.9343,-6.6141 31.2485,-13.0224 4.7869,-2.4911 9.3036,-5.9797 8.9986,-13.3364 -0.2806,-6.7788 -5.4836,-9.9482 -9.1264,-12.5983 -16.1674,-11.7621 -5.9902,-17.0751 -16.9589,-28.0582 -3.5033,-3.5082 -7.0381,-8.1842 -11.3485,-11.1739 -10.0581,-6.9761 -13.3531,-7.0917 -25.7507,-18.5496 -17.4606,-16.1371 -9.6772,-18.9998 -23.7127,-20.6022 -5.5105,-0.629 -15.0695,-2.4438 -19.7847,-1.133 -2.448,9.5391 10.2623,13.5433 18.1894,32.2817 9.2644,21.9 -1.9386,14.2175 -3.8486,21.7993 -2.0773,8.2457 1.7008,0.3878 -10.4052,8.1009 -16.262,10.3615 -7.9818,15.0225 -15.0488,23.8028 -2.4749,3.0747 -3.3333,4.1068 -0.1894,7.6223 18.9496,21.1893 10.8295,19.5186 15.9537,34.7519 z"
           style="fill:#37b53f;fill-opacity:1;fill-rule:evenodd;stroke:none"
           id="path112" />
        <path
           style="fill:#bad9ad;fill-opacity:1;stroke:#bad9ad;stroke-width:1.08296;stroke-opacity:1"
           d="m 210.49219,303.23774 c -2.64802,-1.71136 -6.76391,-5.17428 -9.14641,-7.69536 -5.87537,-6.21713 -10.5378,-9.03818 -25.31431,-15.31671 -6.92402,-2.94201 -13.3934,-6.30273 -14.37642,-7.46826 -0.99913,-1.18464 -2.09878,-5.10977 -2.49362,-8.90086 -0.38848,-3.72993 -0.95005,-8.06258 -1.24794,-9.6281 -0.45954,-2.41504 -0.0816,-2.95649 2.49362,-3.57291 1.66939,-0.3996 7.05571,-1.93653 11.96962,-3.41541 7.18115,-2.16123 8.93438,-3.09961 8.93438,-4.78188 0,-3.09391 -2.48955,-3.92306 -16.24432,-5.41021 l -12.45399,-1.34651 -4.57609,-9.34802 c -5.59233,-11.424 -9.48933,-16.27062 -17.45729,-21.71131 -3.3679,-2.29968 -7.28671,-5.43449 -8.70846,-6.96624 -4.03525,-4.34744 -2.75064,-9.63751 5.19645,-21.39917 8.51037,-12.59533 8.72301,-15.92296 1.99112,-31.15904 -6.33951,-14.34802 -6.33676,-19.42399 0.0165,-30.39758 2.54047,-4.38801 5.46087,-10.34843 6.48977,-13.24537 1.69186,-4.763524 1.71304,-5.548129 0.22153,-8.205445 -2.50096,-4.455756 -5.98412,-5.640032 -16.74512,-5.69334 l -9.74659,-0.04828 4.87329,-4.348847 c 8.17294,-7.293383 12.12119,-9.46595 19.4932,-10.726343 4.56742,-0.780892 11.38586,-3.353875 19.41772,-7.327412 10.15561,-5.024203 13.39827,-6.13354 18.05721,-6.177497 6.99548,-0.066 11.10047,2.636059 13.42396,8.836178 2.23998,5.977267 3.93798,7.72402 8.3048,8.543241 2.06544,0.387479 6.03816,2.274807 8.82827,4.194063 10.01135,6.886594 11.6225,7.361486 27.80957,8.196951 16.71126,0.862522 22.20058,2.229177 22.20058,5.527197 0,3.42596 -4.55043,7.049974 -9.85005,7.844704 -9.84417,1.47622 -15.8311,8.1586 -14.3604,16.02854 1.56539,8.37666 7.14145,14.47944 18.48179,20.2276 8.65446,4.38674 10.66212,2.79335 13.34763,-10.59345 2.12846,-10.61003 3.56735,-13.15723 8.61299,-15.2472 4.72572,-1.95746 9.50024,0.95273 20.20238,12.31386 10.55021,11.19985 15.5475,17.96527 15.5475,21.04847 0,1.16215 -1.70565,3.41396 -3.79034,5.00403 -2.78066,2.12091 -3.79034,3.71943 -3.79034,6.0008 0,2.63975 0.61381,3.30684 4.06108,4.41363 5.30178,1.70219 7.85142,4.0187 7.85142,7.13349 0,2.949 -1.44443,3.39633 -12.57367,3.894 -6.21077,0.27773 -8.56246,0.91484 -12.15694,3.29355 -5.42146,3.58776 -7.29518,6.3287 -10.30908,15.08041 -2.5857,7.50831 -3.67858,8.22481 -16.28207,10.67467 -11.11589,2.16069 -14.23807,8.51947 -12.97884,26.4334 0.50544,7.19054 0.31617,11.1792 -0.64,13.48763 l -1.35769,3.27775 -4.62808,-3.1842 c -2.54544,-1.75131 -7.16215,-6.40876 -10.25935,-10.34988 -9.35667,-11.90612 -22.62385,-16.03197 -30.43032,-9.46326 -3.42079,2.8784 -8.56054,12.19581 -8.5814,15.55648 -0.006,0.93751 -1.70125,4.08251 -3.76762,6.98891 -6.22394,8.7541 -6.15586,17.94589 0.18876,25.48604 5.74102,6.82281 13.64278,8.21397 23.22973,4.08978 6.60226,-2.84022 7.37147,-2.13481 7.39585,6.7825 0.0231,8.46536 1.62002,12.22627 6.58681,15.51314 2.34262,1.55028 4.25932,3.44566 4.25932,4.21196 0,1.05637 -8.37121,6.15669 -10.10502,6.15669 -0.16527,0 -2.46705,-1.40021 -5.11506,-3.11157 z"
           id="path936"
           transform="matrix(0.75000002,0,0,-0.75000002,245.42029,1093.6572)" />
        <path
           style="fill:#bad9ad;fill-opacity:1;stroke:#bad9ad;stroke-width:1.08296;stroke-opacity:1"
           d="m 211.63386,303.35267 c -1.48907,-0.99004 -5.86372,-4.70614 -9.72145,-8.25803 -5.60527,-5.16087 -10.31423,-8.03526 -23.44507,-14.31105 -17.98017,-8.59349 -18.29827,-8.91718 -19.3722,-19.71216 -0.23085,-2.32044 -0.50136,-4.65626 -0.60115,-5.19074 -0.62946,-3.37156 0.43882,-4.44423 5.76058,-5.78419 3.12703,-0.78736 8.244,-2.37649 11.37103,-3.53141 4.66017,-1.72115 5.68551,-2.5609 5.68551,-4.65644 0,-3.26937 -3.19592,-4.23475 -17.86876,-5.39754 -10.51768,-0.83351 -10.83477,-1.0057 -13.54954,-7.35786 -4.37526,-10.23745 -10.61123,-18.3218 -19.8502,-25.73385 -11.77892,-9.44976 -12.02155,-11.2309 -3.45805,-25.38493 6.66754,-11.02033 8.43151,-15.72326 7.48591,-19.95822 -0.34376,-1.53955 -2.55865,-7.84155 -4.92197,-14.00445 -6.22147,-16.22385 -6.28659,-15.48079 2.9901,-34.1182 5.74912,-11.550337 6.09286,-15.641949 1.62956,-19.397566 -2.56004,-2.154129 -4.46597,-2.680075 -10.29302,-2.840384 -3.93318,-0.108206 -8.1677,-0.572754 -9.41005,-1.032328 -2.09008,-0.773173 -1.9077,-1.12116 2.4416,-4.658646 7.27992,-5.921089 9.49245,-7.054566 18.53376,-9.494845 4.63021,-1.24971 13.15849,-4.494663 18.95171,-7.211007 17.85349,-8.371191 24.89417,-7.626441 30.20133,3.194641 2.58803,5.276905 3.47772,6.056126 11.06625,9.692204 4.53857,2.17468 10.44506,5.179527 13.12553,6.677435 4.9122,2.745057 7.61769,3.243368 23.33547,4.298046 4.73629,0.317809 10.92625,1.113612 13.75547,1.768451 4.38801,1.015633 5.14403,1.574987 5.14403,3.805908 0,3.176447 -4.7364,6.356811 -10.94566,7.349711 -12.65778,2.02406 -16.51788,16.50775 -7.19224,26.98636 4.44202,4.99122 15.45076,11.56559 19.36648,11.56559 4.08025,0 5.87829,-2.97098 8.12614,-13.42718 3.03748,-14.12927 8.71864,-17.94331 17.28594,-11.60489 9.17138,6.78536 25.34119,25.7651 25.34119,29.7449 0,1.35445 -1.46199,3.86331 -3.24887,5.57524 -2.07666,1.98957 -3.24886,4.19343 -3.24886,6.10819 0,2.50039 0.79028,3.34516 4.78068,5.1103 4.97003,2.19848 7.54537,5.31183 6.19769,7.49242 -0.43065,0.69682 -4.41711,1.56711 -8.85881,1.934 -4.4417,0.36688 -9.59481,1.12706 -11.45138,1.68929 -5.07074,1.53559 -10.74136,7.89125 -13.41185,15.03207 -1.30555,3.49099 -3.25968,7.14903 -4.34251,8.12898 -1.08284,0.97996 -5.44041,2.67472 -9.68351,3.76615 -9.09863,2.34039 -12.71131,4.47458 -14.32522,8.4626 -0.65026,1.60682 -1.35384,8.76945 -1.56353,15.91695 -0.20968,7.14751 -0.64882,14.55888 -0.97585,16.46974 -0.5814,3.39711 -0.647,3.43318 -2.95399,1.62443 -1.29767,-1.01742 -6.76371,-6.30915 -12.14674,-11.7594 -8.64499,-8.75292 -10.52588,-10.12425 -16.11478,-11.74899 -5.92087,-1.72124 -6.63151,-1.7233 -11.06017,-0.0319 -3.75429,1.43378 -5.52382,3.07216 -8.55914,7.92477 -2.10453,3.36449 -3.82641,6.75888 -3.82641,7.54307 0,0.78418 -1.99378,5.1854 -4.43063,9.78048 -3.96658,7.47965 -4.37477,8.94701 -3.8973,14.01005 1.3846,14.68227 14.65009,21.83807 28.67969,15.47068 5.43646,-2.46737 5.184,-2.81847 6.61282,9.1967 0.98489,8.28203 1.22464,8.8319 5.44308,12.48352 2.42705,2.10093 4.41282,4.17924 4.41282,4.61848 0,1.16728 -6.76239,5.09948 -8.66364,5.03773 -0.89344,-0.029 -2.84276,-0.86279 -4.33182,-1.85283 z"
           id="path938"
           transform="matrix(0.75000002,0,0,-0.75000002,245.42029,1093.6572)" />
        <path
           style="fill:#bad9ad;fill-opacity:1;stroke:#bad9ad;stroke-width:1.08296;stroke-opacity:1"
           d="m 267.09275,103.33933 c -1.15222,-1.46481 -2.65175,-5.485278 -3.33231,-8.934384 -1.27768,-6.475398 -4.68735,-13.310309 -6.64,-13.310309 -0.61178,0 -2.81802,-2.666428 -4.90276,-5.925397 -4.33059,-6.769803 -6.75572,-8.422033 -11.66481,-7.947163 -4.1923,0.405532 -4.70909,3.197828 -0.76218,4.118092 1.82044,0.424453 3.66383,2.391746 5.62688,6.005078 1.60573,2.955602 4.28604,6.52581 5.95626,7.933793 2.2331,1.882491 2.46356,2.35709 0.87085,1.793352 -1.19126,-0.421641 -4.8094,-1.138097 -8.04032,-1.592124 -6.47314,-0.909644 -8.27066,-2.469151 -12.53249,-10.873027 -4.06237,-8.010548 -5.84512,-9.041081 -16.79783,-9.7101 -10.22577,-0.624616 -11.66423,-1.265728 -12.14344,-5.412235 -0.25893,-2.240528 0.93017,-3.30978 8.36178,-7.519008 8.4872,-4.807108 8.90901,-4.920031 20.7118,-5.544849 14.18303,-0.750822 16.21239,-1.7315 20.62596,-9.967404 2.33656,-4.360115 3.96272,-6.032269 6.85374,-7.047623 11.37807,-3.996073 37.42726,4.980566 56.58408,19.499067 7.08433,5.369044 12.72505,11.902482 12.72505,14.738957 0,0.761589 -1.48282,4.763181 -3.29516,8.892429 -2.69507,6.140482 -3.4151,9.526251 -3.95377,18.591756 -0.36289,6.10701 -1.19308,11.441289 -1.84889,11.879669 -2.58667,1.72907 -4.12232,0.59388 -6.57002,-4.856719 -1.40424,-3.127033 -3.79541,-7.338707 -5.31368,-9.359273 -5.45009,-7.253141 -30.22604,-32.709241 -33.46596,-34.384668 -4.95948,-2.564643 -12.46275,-1.41684 -15.75448,2.410022 -2.10116,2.442747 -2.47964,3.822936 -2.0095,7.328077 0.49604,3.698204 1.89691,5.575613 9.75288,13.070547 8.1604,7.785369 9.31608,9.374745 10.46321,14.389758 1.33529,5.837571 0.645,12.182106 -1.47622,13.568166 -2.42483,1.58443 -5.97796,0.77257 -8.02867,-1.83448 z"
           id="path940"
           transform="matrix(0.75000002,0,0,-0.75000002,245.42029,1093.6572)" />
        <path
           style="fill:#bad9ad;fill-opacity:1;stroke:#bad9ad;stroke-width:1.08296;stroke-opacity:1"
           d="m 436.5299,150.37342 c -2.3156,-7.76869 -4.19858,-16.67191 -4.73033,-22.36629 -0.5784,-6.19401 -0.87107,-6.84315 -3.08529,-6.84315 -2.11926,0 -2.51971,-0.68762 -2.99573,-5.14404 -2.67758,-25.067293 -3.19409,-26.985273 -8.46061,-31.41675 -2.45798,-2.068253 -3.11147,-3.515022 -3.11147,-6.888469 0,-5.390698 -2.41125,-11.256971 -5.2519,-12.777243 -3.21329,-1.719701 -7.33221,-1.426769 -9.4296,0.67062 -1.70844,1.708443 -4.2309,1.949268 -15.35904,1.466368 -0.73823,-0.03204 -3.95646,-2.425704 -7.15163,-5.319263 -3.19517,-2.89356 -8.25958,-6.594576 -11.25425,-8.224481 -9.05561,-4.928681 -10.28236,-11.249809 -3.05064,-15.719256 2.37576,-1.468296 3.51781,-2.88175 3.13482,-3.879792 -0.33136,-0.86351 -0.26752,-1.570018 0.14187,-1.570018 0.40938,0 6.14065,2.760283 12.73615,6.133962 24.42839,12.49543 47.52941,29.743611 67.59966,50.472718 14.67276,15.154424 30.69596,35.058364 30.69596,38.130374 0,1.16857 -2.87977,0.4878 -6.78058,-1.60291 -6.4645,-3.46477 -10.08568,-2.85414 -12.72248,2.14533 -0.77938,1.47775 -2.61189,3.62667 -4.07224,4.77538 -2.35303,1.85089 -2.60153,2.73535 -2.18381,7.77254 l 0.47136,5.68399 -2.45489,-1.6085 c -3.87416,-2.53846 -7.10534,-1.41723 -9.80252,3.40149 -1.55815,2.78375 -2.57532,3.73903 -2.88281,2.70739 z"
           id="path942"
           transform="matrix(0.75000002,0,0,-0.75000002,245.42029,1093.6572)" />
        <path
           style="fill:#bad9ad;fill-opacity:1;stroke:#bad9ad;stroke-width:1.08296;stroke-opacity:1"
           d="m 457.46467,242.66223 c 0,-5.60992 -0.81492,-9.55979 -3.40735,-16.51506 -2.91067,-7.8091 -3.48341,-11.01834 -3.92916,-22.01614 -0.79483,-19.61067 3.17004,-32.5753 11.65353,-38.10555 3.49226,-2.27654 4.79951,-2.45183 15.89797,-2.1317 6.65105,0.19184 12.69848,0.72312 13.43873,1.18062 1.04397,0.64521 1.20922,-0.84631 0.73664,-6.64867 l -0.60927,-7.48049 5.20107,10.82956 c 2.86059,5.95625 6.98742,15.94651 9.17074,22.20058 3.90483,11.18528 9.23958,31.29436 9.24232,34.8385 9.2e-4,1.18093 -4.41366,4.2929 -12.72332,8.96907 -11.67995,6.57277 -42.75275,22.25269 -44.098,22.25269 -0.31564,0 -0.5739,-3.31803 -0.5739,-7.37341 z"
           id="path944"
           transform="matrix(0.75000002,0,0,-0.75000002,245.42029,1093.6572)" />
        <path
           style="fill:#bad9ad;fill-opacity:1;stroke:#bad9ad;stroke-width:1.08296;stroke-opacity:1"
           d="m 403.31692,92.225757 c -0.89344,-0.335717 -2.96459,-1.548753 -4.60256,-2.695635 -3.07536,-2.153318 -3.94036,-6.320939 -1.96113,-9.448804 1.24063,-1.960613 3.32049,-0.425167 7.8272,5.778363 4.38789,6.039994 3.93544,8.319626 -1.26351,6.366076 z"
           id="path946"
           transform="matrix(0.75000002,0,0,-0.75000002,245.42029,1093.6572)" />
        <path
           style="fill:#bad9ad;fill-opacity:1;stroke:#bad9ad;stroke-width:1.08296;stroke-opacity:1"
           d="m 406.29504,118.91132 c -2.4384,-1.42024 -2.43567,-5.58615 0.005,-7.79504 1.04516,-0.94585 4.47882,-2.06179 7.63036,-2.47986 l 5.73008,-0.76012 -2.40162,4.20719 c -4.58028,8.02377 -6.67305,9.32705 -10.96395,6.82783 z"
           id="path948"
           transform="matrix(0.75000002,0,0,-0.75000002,245.42029,1093.6572)" />
        <path
           style="fill:#bad9ad;fill-opacity:1;stroke:#bad9ad;stroke-width:1.08296;stroke-opacity:1"
           d="m 261.17906,481.07281 c -4.25955,-1.18344 -1.55182,-7.80947 7.89489,-19.31944 3.42199,-4.16938 7.73959,-9.99644 9.59467,-12.94901 4.84291,-7.70804 9.85505,-21.37728 9.85505,-26.87693 0,-4.31807 -0.38411,-4.97051 -4.72958,-8.03348 -3.60404,-2.54036 -4.90433,-4.26516 -5.46385,-7.24768 -0.45459,-2.42319 -1.35072,-3.91396 -2.35277,-3.91396 -3.02614,0 -20.74217,-10.39082 -19.62343,-11.50955 0.17348,-0.17349 3.38373,0.63954 7.13389,1.80672 8.07399,2.51291 11.89076,2.68894 12.69787,0.58565 0.32428,-0.84507 -0.70661,-5.10921 -2.29087,-9.47586 -1.58426,-4.36664 -3.74954,-11.88464 -4.81174,-16.70665 l -1.93128,-8.76729 15.28844,-1.33295 c 20.14096,-1.75603 61.15096,-7.75349 86.50035,-12.65016 l 20.31303,-3.9238 3.80501,2.90222 c 10.5784,8.06854 10.62576,19.81764 0.11233,27.86199 -10.69754,8.18522 -18.01099,17.02295 -18.01099,21.76486 0,5.71559 -3.7436,12.90321 -11.08399,21.28097 -6.27592,7.16286 -10.93518,11.0214 -23.02909,19.07139 -17.99746,11.97952 -28.94832,21.72427 -37.67807,33.52829 -3.524,4.76501 -7.45299,9.21379 -8.73109,9.88617 -3.56868,1.87745 -29.81792,5.03005 -33.45878,4.0185 z"
           id="path950"
           transform="matrix(0.75000002,0,0,-0.75000002,245.42029,1093.6572)" />
        <path
           style="fill:#bad9ad;fill-opacity:1;stroke:#bad9ad;stroke-width:1.08296;stroke-opacity:1"
           d=""
           id="path952"
           transform="matrix(0.75000002,0,0,-0.75000002,245.42029,1093.6572)" />
        <path
           style="fill:#bad9ad;fill-opacity:1;stroke:#bad9ad;stroke-width:1.08296;stroke-opacity:1"
           d="m 266.74821,313.67162 c 0.58166,-1.57237 2.25128,-2.7446 4.75125,-3.33583 3.50015,-0.82777 3.97101,-1.39744 5.12252,-6.19748 0.86806,-3.61846 1.94129,-5.49959 3.4022,-5.96327 2.29088,-0.72709 16.36902,2.0748 21.71138,4.32109 3.12839,1.31539 2.73808,1.49204 -10.66786,4.82831 -22.7149,5.65294 -22.27522,5.50625 -21.62023,7.21314 0.3934,1.02517 -0.11948,1.55832 -1.49904,1.55832 -1.71662,0 -1.93434,-0.43976 -1.20022,-2.42428 z"
           id="path954"
           transform="matrix(0.75000002,0,0,-0.75000002,245.42029,1093.6572)" />
      </g>
      <g
         id="g114">
        <path
           d="m 344.6337,1042.092 c 13.7659,1.6268 35.4129,24.8618 44.011,-2.3658 11.0367,-2.6155 6.906,-3.3055 14.6381,-7.3446 5.0309,-2.6282 12.4633,-2.8553 18.8512,-2.2158 -2.2212,2.4038 -5.4428,9.9462 -7.8327,11.7111 -4.7483,3.5061 -11.1186,-1.7813 -17.0322,2.3836 -5.6345,3.9682 -4.1857,8.888 1.4777,11.6062 6.4119,3.0776 6.2555,6.1285 15.1324,5.5927 25.38,-1.5321 10.0455,11.6884 27.9587,13.5879 10.3779,1.1004 25.6686,-5.1035 32.8099,-9.32 33.8862,-20.0087 16.5098,-22.9156 15.8573,-36.6409 -0.2914,-6.122 2.1489,-14.3408 -3.9634,-16.8245 -6.9891,-2.8398 -8.7953,4.3378 -10.7263,8.8058 -4.3328,10.0259 -12.6601,14.7294 -19.4054,22.5176 -3.4503,3.9832 -5.396,8.5734 -13.4079,6.6847 -3.4084,-8.9309 7.3568,-11.3474 11.698,-16.9195 2.0466,-2.6271 3.4574,-7.2017 3.9065,-11.6359 0.6463,-6.3853 -2.1912,-7.6989 -3.7973,-11.4285 3.5824,-1.491 12.7397,-11.5194 15.4179,-14.9845 12.8126,-16.5792 4.5887,-13.4396 1.0709,-19.0754 2.4789,-4.1545 11.5614,-2.9631 8.0875,-13.5272 -7.5401,-3.2874 -11.9089,2.7983 -20.5205,-5.0157 -7.0129,-6.3635 -3.1459,-14.0371 -10.7637,-16.3851 -9.0142,-2.7785 -14.6322,0.1112 -16.164,-11.0162 -1.2881,-9.3566 2.6163,-15.4131 -1.9968,-23.6693 -14.9414,-1.0576 -16.1864,18.5771 -28.6027,19.849 -10.3272,1.0582 -8.3764,-9.8467 -14.7608,-18.4825 -2.4815,-3.3565 -4.0785,-7.8868 -2.2255,-12.5503 1.3425,-3.3792 5.2523,-6.2164 10.131,-6.2422 7.4373,-0.0394 6.4548,5.1307 12.4285,4.5107 3.5042,-3.5135 2.1135,-5.9924 1.9965,-11.4987 -0.1372,-6.4621 1.3711,-6.9829 5.4853,-9.5958 5.6355,-3.5791 4.1252,-16.0498 2.0469,-22.2636 -2.8114,0.9663 -4.7551,8.5277 -12.8047,13.0941 -7.3536,4.1714 -8.4588,5.6165 -14.6616,10.9488 -4.4765,3.848 -10.6078,6.2923 -17.4138,8.2641 -8.1162,2.3513 -10.7019,4.9864 -11.1297,14.3374 -0.5783,12.6518 -8.1859,29.7904 -14.7671,36.6298 -8.5708,8.9073 -24.0239,11.6892 -8.0586,29.5722 14.3535,16.0781 -6.167,22.8733 -1.5562,38.9086 1.8281,6.3584 8.2984,11.6498 9.3472,16.3406 2.0886,9.3382 -10.4065,7.8344 -17.7763,7.7097 -5.8431,-0.099 -9.3541,-5.0488 -14.7302,-11.0631 -4.3271,-4.841 -7.4455,-8.678 -11.6161,-13.9895 -16.1867,-20.6136 -22.6676,-49.6738 -27.2098,-76.1468 -4.9714,-28.9718 8e-4,-61.6335 11.3046,-88.1255 8.9784,-21.0421 20.986,-38.3394 36.2749,-53.8356 18.5298,-18.7809 47.6391,-34.6821 72.4391,-43.3139 17.3747,-6.0475 24.7592,-7.0053 44.8469,-7.4208 -2.016,6.8487 1.0401,10.9462 4.1573,15.1996 3.2363,4.415 6.8213,7.1189 9.5443,12.2046 13.856,25.8789 0.6315,16.1368 -1.3408,29.465 -6.7297,0.6644 -5.656,1.9307 -10.1098,4.6638 -4.763,2.9228 -4.7202,1.8445 -7.8777,6.8653 -3.8302,6.091 -3.9311,11.7663 -6.23,15.5378 -1.1806,1.9369 -2.4954,1.8949 -3.3557,4.4147 -2.1121,6.1863 7.9889,12.2538 10.9021,17.6025 6.1883,11.3622 3.6331,14.2155 6.2164,24.2822 3.1756,1.6908 3.4242,1.3762 7.9908,1.6503 0.5732,11.6555 8.2727,10.0724 18.2223,7.5458 11.3385,-2.8788 12.592,-4.5796 19.0975,-10.4439 9.936,1.3036 14.9505,10.0383 22.5888,-3.7834 5.7458,-10.3975 5.6607,-11.831 20.7589,-13.4266 9.9241,-1.0491 18.3989,-5.3737 20.7513,-13.4379 3.6082,-12.3699 -6.6574,-17.0533 -12.2043,-21.9807 -10.9403,-9.7186 -4.4132,-14.3958 -11.1033,-23.131 -1.4717,-1.9219 -2.6064,-2.5631 -4.2548,-4.2664 -4.8254,-4.9868 -7.1762,-8.5162 -13.659,-11.9676 -12.6774,-6.7496 -30.3965,-22.1806 -36.2735,-33.249 18.8158,2.0018 43.0407,8.9515 59.3305,14.898 35.6902,13.0281 62.2758,34.6558 80.9209,66.5904 7.471,12.7962 18.2413,36.6429 19.3252,54.6508 -5.4433,2.7145 -4.5927,2.8483 -9.1706,6.5328 -5.6716,4.5643 -2.2944,5.5629 -5.9531,10.3337 -5.161,0.466 -6.313,-5.1548 -13.1303,-7.4175 -7.6417,-2.5361 -8.4422,3.3123 -11.4421,8.5003 -2.3269,4.0246 -6.3595,9.9445 -7.734,13.9694 -2.4474,7.1674 1.5222,9.6832 -2.3978,17.7968 -6.3848,13.2154 -7.947,40.6845 6.7229,49.9396 8.0158,5.0573 10.0669,1.3847 17.4949,1.3414 0.7812,1.0865 1.5185,2.9293 2.2473,3.8341 1.9363,2.4029 0.6199,0.3736 3.139,1.5922 0.006,6.6082 -1.6973,11.1357 -5.0779,15.2612 -2.5226,3.0781 -1.7649,0.4635 -6.3905,2.0679 -3.3797,1.1721 -3.8406,2.6027 -8.0662,2.4497 -5.5908,-6.9622 2.3363,-13.8308 -3.1071,-16.7627 -5.2585,2.554 3.0345,5.7994 -2.3303,8.7063 -0.8329,-1.0372 -0.4913,0.1888 -0.7971,-1.7694 -0.5826,-3.7275 3.7516,-12.6204 -3.087,-12.9546 -2.469,4.7798 0.9525,4.1145 -5.1052,6.5532 -1.8278,-4.2897 -2.1892,-10.0676 -8.0215,-7.5688 l -0.4654,1.173 c -0.6772,3.8247 -0.1415,7.8448 -1.5639,11.8043 -1.3728,3.8225 -2.5577,7.4826 -2.556,12.0135 -0.1868,0.0995 -0.4935,0.4093 -0.5904,0.2333 l -3.3288,1.1868 c 0.0528,2.7162 0.7555,5.6393 -0.1193,7.6904 -0.2803,-0.2432 -7.6467,-14.794 -14.2342,-4.6865 -2.3048,3.5368 -0.4989,7.2235 1.7527,8.8452 3.1816,2.2918 6.8029,1.3184 10.1767,3.8206 2.7703,3.8982 -2.1564,10.2827 -4.0808,12.2524 l -2.1889,4.7651 c -0.3989,2.2827 -0.4431,5.0235 -1.0633,7.5243 l -5.0374,0.3608 c -1.7071,-6.4618 2.3519,-8.841 5.6162,-12.2116 1.9914,-2.0566 3.6479,-7.1703 0.743,-9.0712 -1.9726,-1.2906 -14.18,6.1263 -15.0554,8.809 -0.5737,7.0202 4.6395,6.1979 2.6915,11.1883 -5.148,1.1883 -6.5673,-2.9891 -11.2986,1.8953 -3.0291,3.1274 -5.1134,5.2508 -9.28,7.7862 -3.1128,1.8941 -8.1616,4.5036 -9.0536,8.0991 -1.7637,7.1087 2.9542,8.0841 5.993,10.6484 -5.415,7.7017 -30.1533,13.0937 -43.0608,15.9134 -16.6119,3.6289 -37.5154,4.0612 -54.2597,0.7154 -30.602,-6.1146 -48.4035,-23.1596 -70.9849,-39.3593 -0.9371,-0.6721 -1.4698,-0.9388 -2.2569,-1.6308 -1.4035,-1.2336 -1.1804,-1.1404 -1.9803,-2.2127"
           style="fill:#353f9e;fill-opacity:1;fill-rule:evenodd;stroke:none"
           id="path116" />
        <path
           d="m 443.1971,1011.9589 c -2.2334,2.4596 -4.1298,4.1119 -4.5819,9.5368 -6.7297,-9.2089 -6.1064,-3.9004 -14.2792,-8.2819 -6.49,-3.4787 -4.6752,-10.2977 -0.8408,-14.9573 1.2546,-1.5245 3.6989,-3.8622 6.0242,-4.8836 4.9297,-2.1653 5.8552,-0.9243 6.0897,3.79 0.4425,8.8897 2.2872,10.2129 7.588,14.796"
           style="fill:#353f9e;fill-opacity:1;fill-rule:evenodd;stroke:none"
           id="path118" />
      </g>
      <g
         id="g120"
         transform="matrix(1.23244,-0.20767,0.20665,1.22635,0,0)">
        <path
           d="m 174.8055,734.701 c -57.4506,-11.0656 -97.4296,9.8691 -97.2723,9.5701 -5.8235,13.7568 -5.8238,41.2696 -5.9811,41.4193 -0.1573,0.1491 31.6369,-17.4949 106.0864,-11.8129 0.1576,0 -32.3879,-15.5026 -42.6184,-19.6894 -0.7872,0 22.6287,-14.4034 39.7854,-19.4871 z"
           style="fill:none;stroke:#231f20;stroke-width:3.6663;stroke-linecap:round;stroke-linejoin:round;stroke-miterlimit:2.61313;stroke-dasharray:none;stroke-opacity:1"
           id="path122" />
      </g>
      <path
         d="m 367.2612,864.7002 c -73.0907,-1.6393 -118.036,32.3365 -117.9039,31.9371 -4.3345,18.0799 1.351,51.8204 1.1877,52.0367 -0.163,0.2157 35.3752,-28.025 128.3037,-36.5182 0.1942,-0.0326 -43.1195,-12.2853 -56.5934,-15.2955 -0.97,0.1636 24.9123,-22.3628 45.0059,-32.1601"
         style="fill:#918f8f;fill-opacity:1;fill-rule:evenodd;stroke:none"
         id="path124" />
      <g
         id="g126"
         transform="scale(1.13993)">
        <path
           d="m 573.3876,824.6477 c 6.9812,-28.6826 -3.3585,-57.4072 -2.8726,-56.4349 -89.7211,-37.9636 -182.3029,-42.48 -182.1147,-42.7689 0.188,-0.2888 1.3842,-12.2507 6.4681,-23.7979 -17.3469,2.7487 -76.5198,33.2407 -79.0027,34.7836 0.6942,0.2727 53.0702,21.4461 80.714,41.5811 -0.216,0.0771 -5.0009,-16.9684 -9.413,-27.8535 0.0734,-0.4181 122.6696,26.233 186.2209,74.4905 z"
           style="fill:none;stroke:#231f20;stroke-width:4;stroke-linecap:round;stroke-linejoin:round;stroke-miterlimit:2.61313;stroke-dasharray:none;stroke-opacity:1"
           id="path128" />
      </g>
      <path
         d="m 653.6211,940.0397 c 7.958,-32.6963 -3.8285,-65.4401 -3.2746,-64.3318 -102.2757,-43.2756 -207.8124,-48.4242 -207.5978,-48.7536 0.2143,-0.3291 1.5778,-13.9649 7.3732,-27.1278 -19.7742,3.1334 -87.2272,37.8921 -90.0576,39.651 0.7915,0.3107 60.4965,24.4468 92.0084,47.3995 -0.2463,0.0879 -5.7008,-19.343 -10.7303,-31.7511 0.0836,-0.4765 139.8345,29.9035 212.2787,84.9138"
         style="fill:#918f8f;fill-opacity:1;fill-rule:evenodd;stroke:none"
         id="path130" />
      <path
         style="fill:#ff6015;stroke:#ff6015;stroke-width:0.656393"
         d=""
         id="path173"
         transform="matrix(0.75000002,0,0,-0.75000002,152.00766,1313.4949)" />
      <path
         style="fill:#a1ced8;fill-opacity:1;stroke:#a1ced8;stroke-width:1.08296;stroke-opacity:1"
         d="m 307.94831,299.70332 c -9.30572,-4.82985 -29.27862,-7.97482 -32.18546,-5.06798 -2.48007,2.48007 -2.61658,-0.14764 -0.35549,-6.84309 1.56684,-4.63968 1.91629,-6.99353 1.11204,-7.49058 -0.75469,-0.46643 -0.56131,-0.95947 0.54244,-1.38302 2.16387,-0.83036 2.22439,-4.37023 0.10483,-6.12934 -1.33043,-1.10416 -3.4488,-0.12032 -12.18325,5.65835 -10.88545,7.20176 -22.23684,13.95107 -30.37731,18.06175 l -4.64315,2.34464 -3.29158,-3.29158 c -1.81041,-1.81037 -3.76633,-3.29158 -4.34654,-3.29158 -2.28292,0 -4.29322,-7.63935 -3.65295,-13.88159 1.12513,-10.96913 -3.48942,-14.86309 -11.24465,-9.48871 -6.06259,4.20138 -13.01394,3.92195 -18.0474,-0.72545 -2.55494,-2.35897 -4.02215,-4.84189 -4.4493,-7.52944 -0.63799,-4.01406 -0.16328,-5.19144 13.01079,-32.26916 2.09404,-4.30405 6.58367,-5.94072 11.9148,-4.34347 4.55599,1.365 8.12682,4.56846 17.38608,15.59736 5.30709,6.32139 11.74918,10.3345 16.66483,10.38143 4.24823,0.0405 5.62157,-5.36534 5.4078,-21.28671 -0.26767,-19.93405 0.44564,-20.95656 16.88965,-24.21086 7.17435,-1.41982 10.89947,-4.51968 12.09602,-10.06568 1.24036,-5.74908 4.58181,-11.27315 8.73534,-14.4412 3.48521,-2.6583 5.13809,-3.07738 14.12877,-3.58234 11.09878,-0.62336 12.22112,-1.27688 12.25044,-7.13334 0.0206,-4.11297 -1.38783,-5.93596 -7.50237,-9.71083 l -4.81155,-2.97045 3.99934,-3.20838 c 4.50128,-3.61105 5.03638,-6.50387 2.21719,-11.98646 -2.94128,-5.72003 -10.48606,-14.91015 -18.96193,-23.09705 l -7.99115,-7.71873 2.4677,-5.27674 c 2.68686,-5.745387 2.6,-9.574487 -0.43338,-19.105267 -1.23355,-3.875755 -3.01941,-6.308463 -7.15502,-9.746596 -10.45593,-8.69252 -11.62819,-10.115845 -11.62819,-14.118695 0,-2.900185 0.51592,-3.882255 2.28214,-4.344131 4.21579,-1.102454 7.59202,1.378031 22.22468,16.328248 12.55625,12.828742 15.19278,16.149189 19.12439,24.08527 5.42557,10.951691 8.14732,12.931501 14.26412,10.375741 4.97888,-2.08031 5.99903,-4.97683 5.99903,-17.033192 0,-8.48344 0.42648,-10.736999 3.24886,-17.167562 5.15143,-11.737056 4.23299,-15.547147 -5.93153,-24.606638 -12.75318,-11.366723 -34.29279,-21.898665 -50.66398,-24.772509 -14.20909,-2.4943 -22.59252,-0.0032 -26.63311,7.91363 -3.87579,7.593998 -5.3808,8.292285 -19.45721,9.027605 -12.29807,0.642425 -12.8291,0.775081 -19.14662,4.782975 -3.57375,2.267223 -7.59422,5.116064 -8.93438,6.330759 -3.46213,3.138008 -3.17329,7.758683 0.72891,11.660886 3.03159,3.031587 3.57964,3.165561 12.94929,3.165561 9.74346,0 9.79523,0.01449 12.57532,3.519605 1.53537,1.935782 4.02042,5.590756 5.52233,8.122163 l 2.73074,4.60256 h -6.92848 c -8.7817,0 -15.64745,-2.065798 -22.77159,-6.851617 -3.0903,-2.075993 -7.40724,-4.332556 -9.59319,-5.014584 -2.95252,-0.921203 -4.27632,-2.106 -5.14848,-4.60786 -0.64571,-1.852295 -2.41554,-4.995524 -3.93295,-6.984953 -6.88851,-9.0313 -15.16656,-9.049065 -34.66649,-0.0744 -13.57503,6.247783 -19.13804,8.328813 -17.25494,6.454789 2.58759,-2.575106 35.95129,-26.783458 45.86287,-33.277611 27.64229,-18.111472 50.75887,-24.8080481 85.71618,-24.8308829 21.58492,-0.0141 27.46737,0.7198957 51.44037,6.4185719 22.03432,5.237828 36.62654,10.608004 42.01662,15.462794 1.85491,1.670715 1.76504,1.920823 -1.89518,5.274028 -3.11921,2.857573 -3.84244,4.300518 -3.84244,7.666207 0,5.525402 2.10575,8.237712 10.67928,13.755431 3.95422,2.544839 9.74851,6.938519 12.87622,9.763734 5.59721,5.055894 5.77194,5.125033 11.10029,4.3922 4.84253,-0.666019 5.41355,-0.52953 5.41355,1.293996 0,1.121203 -0.97466,3.950289 -2.16591,6.286857 -2.89379,5.676 -2.79402,6.263351 1.74016,10.244414 5.99282,5.261765 15.22368,9.473373 17.51761,7.992461 3.58589,-2.314974 2.18377,-8.292473 -3.40258,-14.505837 -3.89243,-4.329326 -5.02564,-6.417975 -5.02564,-9.262939 0,-3.319638 0.29822,-3.673217 3.09802,-3.673217 2.92134,0 3.13561,0.31741 3.75717,5.565516 0.44484,3.755893 2.07843,7.914492 5.02415,12.789822 2.67273,4.423527 4.36499,8.561815 4.36499,10.674265 0,3.292162 -0.29584,3.532212 -6.46799,5.248222 -3.55739,0.98904 -7.53725,2.93644 -8.84413,4.32755 -4.95706,5.27655 -1.43548,14.75347 5.6731,15.2669 4.0202,0.29036 5.39518,-0.55412 10.01356,-6.15005 l 3.06862,-3.71815 -0.33965,4.70415 c -0.28319,3.92217 0.0395,4.87331 1.94105,5.72182 1.59582,0.71207 2.64358,2.69242 3.4891,6.59468 0.66462,3.06737 1.94042,8.2417 2.8351,11.49854 0.89469,3.25684 1.6267,7.91084 1.6267,10.34222 0,10.0826 8.88702,9.45182 11.40962,-0.80983 0.6261,-2.5469 1.02306,-2.79774 2.86631,-1.81127 1.17676,0.62979 2.63606,2.56929 3.24287,4.31002 0.60683,1.74074 1.759,3.16496 2.5604,3.16496 1.80617,0 4.82877,-4.17099 4.82877,-6.66338 0,-1.09362 0.99594,-1.99106 2.43665,-2.19568 2.32765,-0.33058 2.42181,-0.73362 2.10501,-9.0097 -0.2413,-6.30397 0.0974,-9.24497 1.24337,-10.79804 1.56268,-2.11774 1.62866,-2.11554 8.45378,0.2817 3.78335,1.32885 7.60981,2.41449 8.50325,2.41253 1.89362,-0.004 5.98733,5.6447 7.45938,10.29311 1.83155,5.78357 2.25632,11.34844 0.86543,11.33788 -0.70708,-0.005 -2.55748,1.53761 -4.11199,3.42885 l -2.82638,3.43861 -6.02735,-1.21048 c -8.67899,-1.74298 -16.2691,0.87986 -21.93559,7.58008 -11.10761,13.13397 -12.87745,38.56839 -4.24156,60.95513 1.70707,4.4252 2.64087,9.49839 2.92765,15.90533 l 0.42109,9.4076 -13.06848,5.44853 c -32.94321,13.73476 -73.91736,28.0736 -109.99297,38.49186 -7.44531,2.15012 -14.26793,4.06873 -15.16137,4.26355 -0.89344,0.19483 -3.36094,-0.54705 -5.48333,-1.64861 z"
         id="path926"
         transform="matrix(0.75000002,0,0,-0.75000002,245.42029,1093.6572)" />
      <path
         style="fill:#a1ced8;fill-opacity:1;stroke:#a1ced8;stroke-width:1.08296;stroke-opacity:1"
         d="m 241.74437,480.66507 c -20.37494,-1.28606 -40.19714,-6.79224 -65.9421,-18.31732 C 120.76634,437.71019 84.491678,403.98809 59.639557,354.35912 49.784158,334.67817 41.47967,309.04843 38.952003,290.51211 l -0.756695,-5.54912 14.141166,5.3046 c 32.247967,12.09679 69.627756,18.8208 100.276326,18.03805 12.31288,-0.31447 13.01275,-0.45306 13.3245,-2.63867 0.2666,-1.86899 -1.17204,-3.13725 -7.58069,-6.68286 -4.35034,-2.40685 -12.22101,-7.33576 -17.49036,-10.95312 -9.58871,-6.58257 -31.15857,-23.07699 -30.72103,-23.49231 0.54779,-0.51997 41.19328,-11.26503 41.49,-10.96831 0.18023,0.18023 0.65915,3.72278 1.06427,7.87234 1.33625,13.68697 3.7917,16.61837 17.78207,21.22879 10.17426,3.35284 16.09557,6.56255 23.46204,12.71781 3.57778,2.98953 9.07564,7.12843 12.21747,9.19757 l 5.71241,3.76207 -4.1809,2.13254 c -5.9821,3.05127 -38.40894,17.69338 -48.343,21.82894 -8.2327,3.42728 -11.1318,5.96279 -9.61817,8.41188 1.13328,1.83369 61.14742,31.24644 81.15783,39.77522 15.08833,6.43089 17.76977,7.94519 19.93578,11.2583 3.13197,4.79065 16.68607,14.18034 20.50674,14.20615 2.28992,0.0155 2.96991,0.65497 3.4966,3.2884 0.35961,1.79805 2.67002,5.24546 5.13425,7.66089 4.2213,4.13774 4.43905,4.65323 3.76534,8.91406 -1.07588,6.80418 -8.43197,21.02572 -14.6627,28.34735 -9.68473,11.38042 -11.23586,14.18116 -11.74393,21.2052 -0.28273,3.90866 -0.94114,6.34704 -1.6872,6.24842 -0.67295,-0.089 -6.92333,-0.52152 -13.88975,-0.96123 z"
         id="path928"
         transform="matrix(0.75000002,0,0,-0.75000002,245.42029,1093.6572)" />
      <path
         style="fill:#a1ced8;fill-opacity:1;stroke:#a1ced8;stroke-width:1.08296;stroke-opacity:1"
         d="M 140.7003,234.10003 C 112.37382,230.17904 57.291259,215.59774 44.364257,208.59822 l -2.473499,-1.33931 2.672148,-11.91251 c 6.239076,-27.81397 17.188743,-54.03643 29.239421,-70.02311 9.452356,-12.53968 25.131442,-30.137127 28.898483,-32.434244 4.47143,-2.726657 23.73205,-2.98045 27.47045,-0.361972 4.08046,2.858064 3.21554,8.040076 -2.84479,17.044046 -9.42701,14.00592 -9.85485,20.16323 -2.50909,36.10994 6.44763,13.99696 6.05194,17.15683 -3.71045,29.63067 -4.94859,6.32304 -8.02199,12.55388 -8.02199,16.26333 0,4.21486 3.15693,8.37693 11.26005,14.84513 9.74471,7.77859 12.22248,10.62488 17.316,19.8914 4.00592,7.28789 4.5213,8.68428 3.10039,8.40042 -0.44672,-0.0892 -2.27421,-0.36463 -4.06108,-0.61198 z"
         id="path930"
         transform="matrix(0.75000002,0,0,-0.75000002,245.42029,1093.6572)" />
      <path
         style="fill:#a1ced8;fill-opacity:1;stroke:#a1ced8;stroke-width:1.08296;stroke-opacity:1"
         d="m 242.33133,131.05753 c -4.56257,-3.30511 -9.03837,-10.84059 -9.03837,-15.21706 0,-3.90026 6.51139,-9.64128 11.91503,-10.50536 2.73907,-0.43799 6.05236,-1.9945 8.13144,-3.81996 l 3.50881,-3.080773 2.66544,5.385883 2.66544,5.38588 -2.63001,2.45931 c -3.78833,3.54245 -4.70786,5.67724 -6.15037,14.27879 -1.16457,6.94418 -1.54177,7.70418 -3.9676,7.9941 -1.64209,0.19625 -4.39283,-0.91989 -7.09981,-2.88081 z"
         id="path932"
         transform="matrix(0.75000002,0,0,-0.75000002,245.42029,1093.6572)" />
      <path
         style="fill:#a1ced8;fill-opacity:1;stroke:#a1ced8;stroke-width:1.08296;stroke-opacity:1"
         d="m 304.768,475.68808 c 0,-1.80622 7.53015,-10.81419 15.32031,-18.32696 10.45205,-10.07989 18.92403,-16.70738 29.62233,-23.17307 7.96194,-4.81193 25.56364,-21.20756 28.27615,-26.33866 0.87374,-1.65279 2.10152,-5.77964 2.7284,-9.17076 1.74125,-9.41928 4.49212,-13.64689 13.99631,-21.5099 4.93095,-4.07947 9.61859,-8.99734 10.81903,-11.35039 3.81721,-7.48235 2.11462,-17.51602 -4.06745,-23.97026 -2.12118,-2.21456 -2.44306,-3.06726 -1.29625,-3.43396 0.83911,-0.26832 11.51592,-2.95321 23.72623,-5.96643 24.89058,-6.14241 54.28813,-14.84554 75.18345,-22.25802 7.67433,-2.72241 14.17666,-4.72652 14.44962,-4.45356 0.77883,0.77883 -1.87166,10.97237 -5.93196,22.81378 -5.14641,15.00892 -15.99058,36.82888 -25.02684,50.35741 -29.56273,44.25949 -69.16473,70.30047 -134.03199,88.13506 -17.84624,4.90664 -43.76734,10.02705 -43.76734,8.64572 z"
         id="path934"
         transform="matrix(0.75000002,0,0,-0.75000002,245.42029,1093.6572)" />
    </g>
  </g>
</svg>
