<?xml version="1.0" encoding="UTF-8" standalone="no"?>
<svg
   xmlns:dc="http://purl.org/dc/elements/1.1/"
   xmlns:cc="http://creativecommons.org/ns#"
   xmlns:rdf="http://www.w3.org/1999/02/22-rdf-syntax-ns#"
   xmlns:svg="http://www.w3.org/2000/svg"
   xmlns="http://www.w3.org/2000/svg"
   xmlns:sodipodi="http://sodipodi.sourceforge.net/DTD/sodipodi-0.dtd"
   xmlns:inkscape="http://www.inkscape.org/namespaces/inkscape"
   width="171.09863mm"
   height="187.91367mm"
   viewBox="0 0 171.09863 187.91367"
   version="1.1"
   id="svg8"
   inkscape:version="1.0.2 (e86c8708, 2021-01-15)"
   sodipodi:docname="world-with-text-logo.svg">
  <defs
     id="defs2" />
  <sodipodi:namedview
     id="base"
     pagecolor="#ffffff"
     bordercolor="#666666"
     borderopacity="1.0"
     inkscape:pageopacity="0.0"
     inkscape:pageshadow="2"
     inkscape:zoom="1.2146167"
     inkscape:cx="317.78791"
     inkscape:cy="344.63964"
     inkscape:document-units="mm"
     inkscape:current-layer="g54"
     inkscape:document-rotation="0"
     showgrid="false"
     inkscape:lockguides="false"
     inkscape:pagecheckerboard="true"
     fit-margin-top="0"
     fit-margin-left="0"
     fit-margin-right="0"
     fit-margin-bottom="0"
     inkscape:window-width="1792"
     inkscape:window-height="991"
     inkscape:window-x="0"
     inkscape:window-y="25"
     inkscape:window-maximized="1" />
  <metadata
     id="metadata5">
    <rdf:RDF>
      <cc:Work
         rdf:about="">
        <dc:format>image/svg+xml</dc:format>
        <dc:type
           rdf:resource="http://purl.org/dc/dcmitype/StillImage" />
        <dc:title></dc:title>
      </cc:Work>
    </rdf:RDF>
  </metadata>
  <g
     inkscape:label="Layer 1"
     inkscape:groupmode="layer"
     id="layer1"
     transform="translate(-19.231224,-47.01312)">
    <g
       id="g54"
       inkscape:label="hoptoad grey"
       transform="matrix(0.35277777,0,0,-0.35277777,-53.624925,463.37179)">
      <g
         id="g56"
         transform="scale(1.13993)">
        <path
           d="m 549.282,831.6179 c 0,0.1491 8.9297,-0.1542 24.3309,-7.1822 -4.6352,-4.0374 -19.834,-11.6011 -20.7368,-12.1541 -0.4484,5.0839 -1.6398,11.4701 -3.5941,19.3363 z"
           style="fill:none;stroke:#231f20;stroke-width:4;stroke-linecap:round;stroke-linejoin:round;stroke-miterlimit:2.61313;stroke-dasharray:none;stroke-opacity:1"
           id="path58" />
      </g>
      <path
         d="m 626.1423,947.9852 c 0,0.17 10.1792,-0.1758 27.7356,-8.1871 -5.2838,-4.6023 -22.6094,-13.2244 -23.6387,-13.8549 -0.511,5.7952 -1.8691,13.0751 -4.0969,22.042"
         style="fill:#918f8f;fill-opacity:1;fill-rule:evenodd;stroke:none"
         id="path60" />
      <g
         id="g62"
         transform="matrix(1.12408,-0.18942,0.18942,1.12408,0,0)">
        <path
           d="m 98.3594,850.5462 c -10.9154,2.0934 -18.9902,6.5792 -19.1398,6.2802 -0.1494,-0.2991 5.5329,6.5795 20.1866,10.7662 0,0 -1.4953,-9.57 -1.0468,-17.0464 z"
           style="fill:none;stroke:#231f20;stroke-width:4;stroke-linecap:round;stroke-linejoin:round;stroke-miterlimit:2.61313;stroke-dasharray:none;stroke-opacity:1"
           id="path64" />
      </g>
      <path
         d="m 271.6705,937.4528 c -11.8732,4.4206 -20.1005,10.9924 -20.3253,10.6846 -0.2245,-0.3079 7.4659,6.3479 24.7309,8.2786 0,0 -3.4937,-10.4743 -4.4056,-18.9632"
         style="fill:#918f8f;fill-opacity:1;fill-rule:evenodd;stroke:none"
         id="path66" />
      <path
         d="m 217.3949,1053.1942 c -0.0932,0.7818 -0.0734,1.4828 0.0162,2.1107 0.0898,0.6281 0.2809,1.1817 0.5672,1.6806 1.0145,1.7637 3.2981,2.7646 6.8584,3.0155 3.5606,0.2509 6.7927,-0.4586 9.6721,-2.1144 1.2237,-0.7035 2.0089,-1.5593 2.3672,-2.5744 0.358,-1.0153 0.2373,-2.0304 -0.35,-3.052 -0.8462,-1.4715 -3.0892,-2.5124 -6.7094,-3.117 -0.1377,-0.018 -0.2449,-0.037 -0.3209,-0.059 -3.1288,-0.4989 -5.5272,-1.2557 -7.1895,-2.2584 -1.6741,-0.9958 -3.0472,-2.4395 -4.1241,-4.3126 -1.3215,-2.2986 -1.8496,-4.4388 -1.5582,-6.4029 0.2914,-1.9638 1.3399,-3.4727 3.1394,-4.5076 2.9874,-1.7176 8.0217,0.097 15.1084,5.4249 0.8756,0.6616 1.548,1.1653 1.9868,1.5117 5.6352,4.2205 10.2517,6.696 13.8302,7.4223 3.5784,0.7262 7.1671,0.054 10.7544,-2.0084 4.8469,-2.787 7.6226,-6.9556 8.3332,-12.4945 0.7107,-5.5389 -0.7908,-11.5373 -4.4906,-17.9714 -2.126,-3.6975 -4.5408,-6.9537 -7.2329,-9.7753 -2.6971,-2.8026 -5.0445,-4.6086 -7.0523,-5.3799 -1.1894,-0.5139 -3.0308,-0.523 -5.5001,-0.0419 -2.4502,0.4861 -4.7888,1.3615 -6.9959,2.6308 -1.6441,0.9451 -2.719,1.9355 -3.2181,2.9832 -0.4989,1.0477 -0.4363,2.128 0.2072,3.2471 0.902,1.569 3.2286,2.3675 6.9854,2.376 1.4264,0.038 2.5359,0.079 3.3403,0.1182 2.797,0.1721 5.2039,0.8597 7.2536,2.0922 2.0429,1.2209 3.7148,2.9623 5.0088,5.2124 1.2444,2.1648 1.6728,4.2976 1.2909,6.4105 -0.3693,2.1059 -1.4445,3.6788 -3.2323,4.7067 -1.6676,0.959 -3.3908,1.2379 -5.182,0.8439 -1.7844,-0.3824 -4.6018,-1.9506 -8.4433,-4.6613 -0.4765,-0.3572 -1.2203,-0.9009 -2.2496,-1.6359 -5.0457,-3.7502 -9.3024,-6.2388 -12.7718,-7.4968 -2.2096,-0.8172 -4.4237,-1.114 -6.637,-0.9093 -2.2065,0.2165 -4.3807,0.9326 -6.5163,2.1605 -4.2834,2.4628 -6.8165,6.3309 -7.5932,11.6164 -0.7761,5.2852 0.4488,10.747 3.6794,16.3661 0.8255,1.4352 1.8051,2.8622 2.9617,4.3175 1.1559,1.4553 2.4899,2.9701 4.0067,4.5255 z m 73.8071,-4.7191 c -0.9921,-1.1452 -3.34,-1.1716 -7.0534,-0.089 -0.3929,0.1173 -0.6849,0.2029 -0.855,0.2389 -13.1023,3.6658 -26.6085,7.9226 -40.5482,12.7772 -2.0902,0.7155 -3.5141,1.2064 -4.2508,1.455 -2.3309,0.7759 -4.3585,0.6758 -6.0902,-0.3299 -0.2098,-0.1151 -0.3433,-0.1851 -0.4093,-0.2396 -1.164,-0.6253 -2.2082,-0.964 -3.1238,-1.0063 -0.9258,-0.033 -1.7139,0.241 -2.3726,0.8119 -1.1821,1.0239 -1.3116,2.5653 -0.3977,4.6136 0.9136,2.0484 3.1442,5.1095 6.6807,9.1922 3.2884,3.7962 5.7696,6.1949 7.4437,7.1762 1.683,0.9919 3.1054,0.9851 4.2458,0 0.4286,-0.3716 0.7432,-0.8116 0.9246,-1.321 0.19,-0.4989 0.243,-1.0088 0.1676,-1.5185 -0.0768,-0.3421 -0.1874,-0.7659 -0.3206,-1.3002 -0.3062,-1.2198 -0.2237,-2.0339 0.2472,-2.4415 0.7948,-0.6886 6.3399,-2.7635 16.6543,-6.2229 1.3913,-0.4445 2.4622,-0.815 3.1899,-1.0741 2.997,-1 5.3427,-1.6954 7.0169,-2.0877 1.6832,-0.3818 2.626,-0.4561 2.8465,-0.2015 0.3033,0.35 -0.4541,2.4349 -2.2816,6.2645 -0.3107,0.6775 -0.5519,1.2019 -0.7441,1.5724 -3.435,7.3006 -5.8513,12.2893 -7.2295,14.9684 -1.3782,2.6787 -2.266,4.1901 -2.6529,4.5255 -0.3453,0.299 -0.7311,0.4663 -1.1384,0.5037 -0.4269,0.036 -0.9156,-0.042 -1.4752,-0.2444 -0.3299,-0.085 -0.7718,-0.278 -1.3549,-0.5711 -1.7445,-0.809 -3.1496,-0.7611 -4.2064,0.1542 -1.1296,0.9785 -1.3748,2.3232 -0.7744,4.0306 0.6001,1.7075 2.1861,4.0458 4.7492,7.0044 2.3148,2.6722 4.3033,4.4393 5.9652,5.3013 1.6623,0.8617 3.0059,0.8487 4.0521,-0.058 1.1821,-1.0242 1.3085,-2.8228 0.3691,-5.3867 -0.1097,-0.2954 -0.2018,-0.5496 -0.2585,-0.7418 -0.5624,-1.6849 -0.1012,-3.9218 1.4131,-6.7181 0.214,-0.4085 0.3821,-0.7212 0.4841,-0.9207 3.9152,-7.5495 7.5691,-14.8726 10.9916,-21.9765 3.4209,-7.0843 6.613,-13.989 9.5959,-20.7122 0.7957,-1.766 1.1905,-2.9803 1.2024,-3.6218 0.0119,-0.6412 -0.2247,-1.2529 -0.7024,-1.8042 z m 36.9165,76.979 c 3.3326,1.9162 5.229,3.2618 5.7016,4.0442 0.4654,0.7948 0.2749,1.9142 -0.5735,3.39 -1.5661,2.7235 -2.9185,4.9634 -4.0694,6.7121 -1.1514,1.7484 -1.8924,2.7275 -2.2209,2.9055 -0.343,0.2018 -1.3746,0.2795 -3.0989,0.182 -1.7189,-0.078 -2.933,0.4847 -3.6365,1.7084 -0.7932,1.3797 -0.5494,2.8131 0.7387,4.2883 1.2758,1.4681 4.1581,3.4923 8.6459,6.0729 4.6582,2.6782 7.924,4.2044 9.8274,4.5805 1.9038,0.3765 3.2602,-0.1527 4.0672,-1.5565 0.7174,-1.2478 0.5641,-2.6132 -0.4467,-4.1204 -1.0109,-1.5069 -1.55,-2.4554 -1.5911,-2.8621 -0.0715,-0.6639 0.6389,-2.4903 2.0999,-5.482 1.4802,-2.9962 3.5832,-6.8794 6.336,-11.6665 3.4767,-6.0469 6.3405,-10.802 8.5785,-14.2722 2.2504,-3.4633 3.6717,-5.3444 4.2814,-5.6165 0.2891,-0.1367 1.3677,-0.1551 3.21,-0.038 1.849,0.1054 3.1254,-0.4538 3.8361,-1.6898 0.807,-1.4034 0.5751,-2.8301 -0.7075,-4.2859 -1.283,-1.4559 -4.2446,-3.5102 -8.9031,-6.1886 -4.4881,-2.5807 -7.6876,-4.053 -9.5981,-4.4173 -1.9225,-0.371 -3.2774,0.127 -4.0776,1.5188 -0.7104,1.2357 -0.616,2.5353 0.278,3.8795 0.9131,1.3394 1.3927,2.1099 1.4451,2.2998 0.1421,0.5128 -0.1097,1.4856 -0.7798,2.9041 -0.6511,1.4136 -2.1495,4.1601 -4.4949,8.2394 -0.8762,1.5234 -1.5502,2.6683 -2.0284,3.4152 -0.4848,0.7589 -0.8598,1.2138 -1.1002,1.3788 -0.4946,0.354 -1.2336,0.3444 -2.2614,-0.01 -1.0157,-0.3444 -3.2899,-1.54 -6.8293,-3.5753 -3.077,-1.7691 -5.0856,-3.0039 -6.0437,-3.7304 -0.9579,-0.7265 -1.4834,-1.332 -1.5891,-1.8238 -0.0567,-0.3518 0.0629,-0.8416 0.3415,-1.4956 0.2793,-0.6536 1.0154,-2.0185 2.2227,-4.1182 1.7246,-2.9993 3.1391,-5.3469 4.2556,-7.0355 1.1169,-1.6889 1.8437,-2.6436 2.1867,-2.8457 0.3946,-0.2359 1.4329,-0.3255 3.1017,-0.2441 1.6877,0.076 2.8703,-0.4884 3.5674,-1.7005 0.807,-1.4037 0.5754,-2.8301 -0.6954,-4.2792 -1.2705,-1.4488 -4.1354,-3.4472 -8.6111,-6.0208 -4.6584,-2.6784 -7.9358,-4.2117 -9.8396,-4.5879 -1.9037,-0.3764 -3.253,0.1409 -4.06,1.5446 -0.7107,1.236 -0.5763,2.6065 0.4084,4.1304 0.9919,1.5123 1.5132,2.4347 1.554,2.7295 0.0578,0.6877 -0.8476,2.8814 -2.7088,6.5684 -1.8488,3.6941 -4.5179,8.5612 -7.9946,14.6081 -2.7527,4.7871 -5.0504,8.5584 -6.8955,11.3448 -1.8502,2.7678 -3.0903,4.3056 -3.7381,4.5876 -0.2962,0.1491 -1.3555,0.1624 -3.1546,0.054 -1.8057,-0.096 -3.0575,0.4768 -3.7752,1.7246 -0.8068,1.4038 -0.5823,2.8421 0.701,4.2979 1.2827,1.4562 4.2565,3.5175 8.9149,6.196 4.4757,2.5736 7.6442,4.0436 9.5355,4.413 1.8916,0.3693 3.2409,-0.148 4.055,-1.5636 0.7656,-1.332 0.5317,-2.8395 -0.7135,-4.5292 -0.521,-0.6985 -0.8192,-1.2212 -0.9,-1.5871 -0.1423,-0.5128 0.1664,-1.6124 0.9258,-3.299 0.7594,-1.6866 2.1211,-4.2242 4.0805,-7.6314 0.8486,-1.4757 1.7447,-2.1898 2.7019,-2.1663 0.9383,0.029 3.0555,0.9908 6.3394,2.8789 l 3.1987,1.8394 z m 79.766,14.7594 c -0.8869,3.8435 -2.2685,7.4588 -4.1312,10.8496 -1.8592,3.3775 -4.0337,6.185 -6.5194,8.4093 -2.3853,2.1623 -4.7642,3.6729 -7.1232,4.5346 -2.3723,0.8583 -4.6434,1.0301 -6.8445,0.5221 -3.6499,-0.8424 -6.2345,-3.058 -7.7562,-6.6333 -1.5049,-3.5858 -1.6659,-7.941 -0.4801,-13.0788 0.8747,-3.7893 2.2439,-7.3508 4.1045,-10.671 1.8771,-3.3307 4.1145,-6.2232 6.7357,-8.6579 2.2476,-2.0659 4.5196,-3.4874 6.8049,-4.2811 2.2989,-0.7901 4.5881,-0.9151 6.8989,-0.3819 3.6771,0.8487 6.2844,3.0272 7.791,6.5424 1.5103,3.5016 1.6867,7.7893 0.5196,12.846 z m -9.1627,-28.3629 c -3.4171,-0.7886 -6.7827,-1.0539 -10.1208,-0.816 -3.3242,0.2412 -6.5183,0.981 -9.5561,2.2257 -4.8036,1.9738 -8.828,4.9366 -12.0623,8.9053 -3.2343,3.9694 -5.4995,8.7302 -6.7819,14.2861 -0.7999,3.4653 -1.0534,6.8726 -0.7679,10.1911 0.2818,3.3318 1.1044,6.5047 2.4483,9.5417 1.8881,4.1712 4.8115,7.7862 8.8013,10.8374 3.9866,3.0648 8.6062,5.1965 13.8282,6.4018 3.6091,0.8328 7.1476,1.0959 10.6169,0.7886 3.469,-0.307 6.7462,-1.1557 9.8209,-2.5625 4.4419,-2.0285 8.2236,-5.0613 11.3913,-9.1171 3.1541,-4.0584 5.3334,-8.697 6.535,-13.9025 0.7719,-3.3441 1.0142,-6.6402 0.7407,-9.8847 -0.2764,-3.2312 -1.0738,-6.3272 -2.3978,-9.2605 -1.9344,-4.4087 -4.8575,-8.1516 -8.7693,-11.2275 -3.9152,-3.0625 -8.4906,-5.1982 -13.7265,-6.4069 z m 48.6757,33.0463 c -0.0198,-0.7886 -0.0604,-1.8396 -0.1222,-3.181 -0.062,-1.3413 -0.1006,-2.3094 -0.1159,-2.9044 -0.0825,-3.2649 -0.076,-5.771 0.0352,-7.4902 0.1108,-1.7195 0.3084,-2.7907 0.5927,-3.1995 0.1896,-0.2676 1.1015,-0.8444 2.7218,-1.7025 1.6339,-0.8716 2.4333,-2.0134 2.3973,-3.4384 -0.0403,-1.5908 -1.0083,-2.6878 -2.918,-3.2627 -1.9092,-0.5885 -5.48,-0.8167 -10.7391,-0.6837 -5.428,0.1375 -9.0527,0.5335 -10.902,1.2033 -1.8499,0.6698 -2.7471,1.8139 -2.7063,3.4325 0.036,1.4252 0.8776,2.5254 2.5399,3.314 1.6614,0.7747 2.6008,1.2908 2.789,1.5216 0.4354,0.5564 0.8033,2.9007 1.1319,7.018 0.3146,4.1173 0.5672,9.6625 0.7438,16.6354 0.1394,5.5202 0.1386,9.9366 0.0127,13.2761 -0.1403,3.3261 -0.3997,5.2846 -0.8059,5.8623 -0.1757,0.2815 -1.0873,0.8444 -2.7082,1.6886 -1.6203,0.8575 -2.4052,1.999 -2.3689,3.4379 0.0326,1.2863 0.6327,2.268 1.8,2.9171 1.167,0.6486 2.8726,0.938 5.1168,0.881 1.4582,-0.037 3.1969,-0.1086 5.2433,-0.2157 2.0324,-0.1066 3.35,-0.1678 3.9248,-0.1823 2.1039,-0.053 4.9533,-0.042 8.5337,0.034 3.5805,0.076 6.0934,0.095 7.5376,0.059 6.9988,-0.1771 12.1672,-1.6922 15.533,-4.5601 3.3665,-2.8539 4.9853,-7.0897 4.843,-12.7204 -0.1539,-6.0874 -2.2359,-10.728 -6.2322,-13.9218 -3.9969,-3.2077 -9.6347,-4.7126 -16.8857,-4.5292 -1.3743,0.035 -2.8041,0.1125 -4.2747,0.233 -1.4845,0.1205 -3.0526,0.2707 -4.7174,0.479 z m 0.2965,11.7185 -0.0884,-3.4864 c 0.4056,-0.066 0.8257,-0.104 1.2744,-0.1153 0.4349,-0.011 1.1078,-0.028 2.0055,-0.051 4.9233,-0.1244 8.4487,0.5616 10.5775,2.0444 2.1147,1.4833 3.2176,4.0303 3.3086,7.6274 0.0794,3.1405 -0.8008,5.5163 -2.6407,7.1272 -1.8255,1.6104 -4.6112,2.4701 -8.3277,2.5639 -1.6409,0.042 -2.8372,-0.094 -3.5606,-0.3943 -0.7378,-0.3135 -1.2846,-0.8535 -1.6268,-1.62 -0.2401,-0.6168 -0.4084,-1.7203 -0.5332,-3.323 -0.1244,-1.5888 -0.2539,-5.0465 -0.3886,-10.3731 z m 82.3,10.7515 c 1.8184,-0.4195 3.7196,-0.6026 5.6939,-0.5329 0.5947,0.019 0.9689,0.018 1.1055,-0.014 1.2714,-0.2934 2.1481,-2.1716 2.6028,-5.6285 0.455,-3.4571 0.218,-7.1665 -0.6942,-11.1175 -0.3203,-1.3887 -0.826,-2.3941 -1.497,-2.9922 -0.6738,-0.6117 -1.4958,-0.8053 -2.4528,-0.5845 -1.7087,0.3946 -2.9792,2.2501 -3.8154,5.5536 -0.1432,0.5018 -0.2506,0.9099 -0.3144,1.1948 -0.015,0.06 -0.03,0.1205 -0.0448,0.1806 -1.0933,4.0589 -3.3828,6.4908 -6.8689,7.2952 -1.7634,0.4071 -2.9965,0.4927 -3.7017,0.2435 -0.7025,-0.2355 -1.3043,-1.0338 -1.8162,-2.3788 -0.2285,-0.6146 -0.6993,-2.2813 -1.4238,-4.9833 -0.7243,-2.702 -1.4627,-5.713 -2.2221,-9.0034 -1.5812,-6.8505 -2.7907,-12.4659 -3.6122,-16.8355 -0.8215,-4.3696 -1.1917,-7.0966 -1.1106,-8.1805 0.0306,-0.6177 0.6556,-1.4012 1.9068,-2.3434 0.0275,-0.01 0.038,-0.023 0.0318,-0.05 1.0165,-0.7748 1.6668,-1.4503 1.9482,-2.0407 0.2676,-0.5873 0.3065,-1.292 0.1197,-2.1013 -0.3612,-1.5642 -1.5259,-2.4316 -3.5011,-2.6292 -1.9616,-0.2007 -5.5191,0.2937 -10.6724,1.4831 -5.1537,1.1897 -8.5683,2.3043 -10.2433,3.3443 -1.6883,1.0432 -2.3522,2.3471 -1.9945,3.8977 0.3237,1.4026 1.3825,2.3088 3.1825,2.7453 1.7997,0.4368 2.8063,0.7444 3.0126,0.9522 0.584,0.5329 1.442,2.8771 2.6178,7.0373 1.1733,4.1465 2.6538,10.1253 4.453,17.9198 0.7625,3.3037 1.4156,6.3204 1.9485,9.0663 0.5332,2.7462 0.8399,4.4509 0.9046,5.1035 0.1292,1.4332 -0.0618,2.4145 -0.5732,2.9443 -0.5142,0.5165 -1.66,0.98 -3.4509,1.3933 -3.5405,0.8172 -6.7314,-0.4065 -9.5729,-3.6709 v 0 c -0.182,-0.2279 -0.4972,-0.5953 -0.9119,-1.082 -2.1331,-2.5047 -4.0215,-3.5742 -5.6758,-3.1924 -0.9567,0.2208 -1.6112,0.7552 -1.9485,1.6002 -0.3411,0.8317 -0.3549,1.9567 -0.0341,3.3457 0.9117,3.9509 2.3244,7.3891 4.2483,10.2972 1.9239,2.9077 3.5351,4.212 4.8067,3.9183 0.1846,-0.071 0.508,-0.2308 0.9992,-0.472 1.7442,-0.928 3.5337,-1.5967 5.3519,-2.0166 l 33.2189,-7.6671 z m 44.2817,-59.7169 c 1.798,3.5107 3.0713,7.1657 3.8319,10.959 0.7543,3.7809 0.9005,7.3287 0.4331,10.6316 -0.4309,3.1907 -1.2767,5.8785 -2.5254,8.0575 -1.2608,2.185 -2.8871,3.7797 -4.8977,4.8096 -3.3344,1.7078 -6.7379,1.6789 -10.2056,-0.075 -3.4614,-1.7725 -6.391,-4.9989 -8.7947,-9.6922 -1.7725,-3.4611 -3.0206,-7.0671 -3.7372,-10.8051 -0.7104,-3.7565 -0.8638,-7.4101 -0.4281,-10.9607 0.3878,-3.0283 1.209,-5.5795 2.4455,-7.659 1.2489,-2.0854 2.9191,-3.6564 5.0298,-4.7372 3.3587,-1.7204 6.7564,-1.7348 10.1735,-0.018 3.4109,1.7048 6.3091,4.8699 8.6749,9.489 z m -25.2828,-15.7856 c -3.1215,1.599 -5.8666,3.5646 -8.2655,5.8975 -2.3865,2.3267 -4.3526,4.9504 -5.8737,7.8599 -2.4018,4.6043 -3.5702,9.4632 -3.486,14.5825 0.0844,5.1194 1.4198,10.2195 4.0189,15.2947 1.6217,3.1654 3.6233,5.9343 5.9797,8.2885 2.3624,2.366 5.036,4.2621 8.0206,5.7189 4.1318,1.9729 8.697,2.8539 13.7143,2.6161 5.0233,-0.2251 9.9292,-1.5716 14.6991,-4.0148 3.297,-1.6886 6.1721,-3.7678 8.6275,-6.2379 2.4548,-2.4701 4.4141,-5.2307 5.8589,-8.2879 2.09,-4.4136 3.0274,-9.1695 2.8367,-14.3121 -0.2033,-5.1361 -1.5256,-10.0877 -3.9612,-14.8425 -1.5647,-3.0546 -3.5027,-5.7314 -5.8028,-8.0365 -2.2935,-2.293 -4.898,-4.1465 -7.8009,-5.5361 -4.3203,-2.1254 -8.9668,-3.1042 -13.9405,-2.9358 -4.9674,0.1808 -9.8422,1.4958 -14.6251,3.9455 z m 64.912,-16.5915 c 0.286,0.6254 0.6925,1.5191 1.218,2.7009 3.8665,8.5895 5.5001,13.17 4.9111,13.7316 -0.6398,0.61 -5.491,-1.2663 -14.5735,-5.6288 l -1.9134,-0.9295 c 1.3266,-1.15 2.3499,-2.0488 3.0702,-2.7164 0.7101,-0.6582 1.3907,-1.3068 2.0407,-1.9264 0.619,-0.5905 1.2891,-1.2294 2.0006,-1.9264 0.7217,-0.7073 1.7901,-1.8026 3.2463,-3.305 z m -7.0141,-28.0757 c -3.3715,3.2142 -5.5278,5.7095 -6.4496,7.4874 -0.9323,1.7876 -0.8683,3.2372 0.1723,4.3288 0.411,0.4309 0.8748,0.7345 1.3816,0.9204 0.5264,0.1863 0.9989,0.214 1.4565,0.084 0.2882,-0.084 0.697,-0.2443 1.2257,-0.4422 1.2648,-0.4218 2.1121,-0.4076 2.5418,0.043 0.7639,0.8014 1.4442,2.084 2.0704,3.839 0.6163,1.7645 0.832,3.0886 0.6469,3.9721 -0.1032,0.4814 -0.711,1.3284 -1.8026,2.5413 -1.0924,1.2132 -2.679,2.8023 -4.7404,4.7673 -2.5993,2.4783 -4.4452,4.1616 -5.5371,5.0494 -1.1016,0.8977 -1.8465,1.3974 -2.253,1.4794 -0.5678,0.1774 -1.5954,-0.067 -3.0841,-0.6934 -1.4984,-0.6366 -2.5818,-1.3053 -3.2502,-2.0066 -0.3915,-0.4105 -0.6149,-0.8479 -0.65,-1.3116 -0.0445,-0.474 0.1029,-1.0919 0.4331,-1.9043 0.0647,-0.1764 0.1602,-0.4014 0.288,-0.7146 0.8844,-2.1626 0.8547,-3.7594 -0.1097,-4.771 -1.0312,-1.082 -2.3873,-1.2232 -4.0765,-0.4539 -1.6897,0.7691 -4.2454,2.7851 -7.6779,6.0574 -2.376,2.2652 -3.9444,4.2194 -4.7038,5.8422 -0.7501,1.6327 -0.6715,2.9347 0.2452,3.8962 1.0789,1.1319 2.8618,1.1721 5.339,0.1108 0.8782,-0.3395 1.5163,-0.585 1.9242,-0.7061 1.5435,-0.496 6.6742,1.2666 15.4321,5.2886 2.6337,1.2175 4.714,2.1598 6.2311,2.8358 1.1373,0.5222 2.8006,1.2501 4.989,2.204 10.853,4.8163 17.9546,8.5243 21.3446,11.1245 1.5403,1.1892 2.7666,1.7025 3.6876,1.5707 0.911,-0.1227 2.0664,-0.8422 3.4271,-2.1393 1.2693,-1.2101 2.1118,-2.319 2.5373,-3.3364 0.4056,-1.0182 0.5207,-2.1988 0.3356,-3.5518 -0.2892,-1.8082 -1.5225,-5.6231 -3.6902,-11.4344 -2.1778,-5.8017 -6.6053,-16.9926 -13.3219,-33.5537 -0.0358,-0.1188 -0.0811,-0.2477 -0.1361,-0.3864 -1.3232,-3.1365 -1.4531,-5.6514 -0.3697,-7.5447 0.7311,-1.3277 1.1314,-2.4936 1.1812,-3.4781 0.0601,-0.9944 -0.2199,-1.8167 -0.86,-2.4882 -1.0978,-1.1517 -2.694,-1.1792 -4.7874,-0.1012 -2.0931,1.0777 -5.2163,3.5963 -9.3901,7.5753 z m 58.7226,-35.9099 c 6.4666,3.7182 10.8402,8.0779 13.138,13.1055 2.2858,5.0201 2.1106,9.8231 -0.5468,14.4447 -0.9513,1.6541 -1.8794,2.852 -2.7709,3.5697 -0.9034,0.7101 -1.7841,0.9646 -2.6657,0.7489 -1.0726,-0.2446 -3.0342,-1.0811 -5.8725,-2.5027 -2.8506,-1.4286 -6.3596,-3.3491 -10.5588,-5.7637 -5.1233,-2.9457 -9.4844,-5.5505 -13.0405,-7.8057 -3.5688,-2.2621 -5.688,-3.7398 -6.3476,-4.4263 -0.5338,-0.5981 -0.6951,-1.6781 -0.4765,-3.2519 0.2114,-1.5614 0.7914,-3.1536 1.7217,-4.7713 2.6224,-4.561 6.325,-7.1416 11.1013,-7.729 4.788,-0.5811 10.2235,0.8774 16.3183,4.3818 z m -32.5696,-2.6889 c -1.2869,2.2377 -2.9072,5.2225 -4.8614,8.9541 -1.9471,3.7196 -3.3295,6.2906 -4.1335,7.6892 -0.3707,0.6446 -0.8793,1.5013 -1.5256,2.5702 -0.6395,1.0565 -1.0992,1.8278 -1.3719,2.3023 -0.4683,0.8147 -0.8431,1.5219 -1.1376,2.1453 -0.2948,0.6239 -0.5309,1.2002 -0.7194,1.7229 -0.3895,1.2325 -0.472,2.2368 -0.2548,3.0254 0.2171,0.7883 0.7543,1.4369 1.6177,1.9335 1.2481,0.7177 2.6303,0.5899 4.1425,-0.4017 1.5239,-0.9847 2.4347,-1.5128 2.7414,-1.5471 0.6877,-0.058 2.8693,0.8407 6.5563,2.7017 3.6944,1.8493 8.5615,4.5181 14.5964,7.988 4.7869,2.7524 8.5584,5.0505 11.3329,6.8885 2.7675,1.8502 4.3056,3.0906 4.5873,3.738 0.1491,0.2962 0.1625,1.3558 0.0542,3.1547 -0.0964,1.8057 0.4771,3.0577 1.7246,3.7752 1.3079,0.7517 2.5571,0.661 3.7556,-0.2843 1.1908,-0.9335 2.9537,-3.4158 5.2614,-7.4294 1.5035,-2.6149 3.3066,-5.64 5.4099,-9.0754 2.103,-3.4358 3.4098,-5.5972 3.9135,-6.4729 2.7414,-4.7678 4.6199,-8.7854 5.6106,-12.035 0.9975,-3.2621 1.3638,-6.3692 1.0973,-9.322 -0.3571,-4.737 -1.9581,-9.0882 -4.7783,-13.0405 -2.8131,-3.964 -6.7488,-7.3922 -11.7879,-10.2895 -8.2066,-4.7186 -16.0489,-6.0721 -23.5344,-4.0485 -7.4735,2.0308 -13.5765,7.1473 -18.2968,15.3573"
         style="fill:#231f20;fill-opacity:1;fill-rule:nonzero;stroke:none"
         id="path68" />
      <g
         id="g70">
        <path
           d="m 289.0015,775.5381 c 0.4756,-0.1052 0.8765,-0.2597 1.2169,-0.4405 0.341,-0.1812 0.6131,-0.4059 0.8294,-0.6758 0.7648,-0.9544 0.7682,-2.4973 0.0153,-4.6349 -0.7526,-2.1379 -1.9783,-3.8869 -3.6621,-5.2365 -0.716,-0.5731 -1.4091,-0.8586 -2.0865,-0.8611 -0.6781,-0.003 -1.2345,0.2755 -1.6776,0.8282 -0.6381,0.7966 -0.6746,2.3236 -0.112,4.5686 0.0247,0.0845 0.0403,0.1511 0.0471,0.1999 0.5003,1.9355 0.6673,3.496 0.5066,4.6746 -0.1543,1.1843 -0.6435,2.2839 -1.4554,3.2975 -0.9969,1.2439 -2.1021,1.9905 -3.312,2.221 -1.2098,0.2302 -2.347,-0.076 -3.3998,-0.9193 -1.747,-1.3997 -1.9667,-4.7205 -0.6713,-9.9618 0.1625,-0.6483 0.2843,-1.1452 0.3739,-1.4729 1.0208,-4.1646 1.2895,-7.3754 0.807,-9.621 -0.4819,-2.2454 -1.7759,-4.2112 -3.8738,-5.8921 -2.8349,-2.2711 -5.9468,-3.0461 -9.3308,-2.3315 -3.384,0.7146 -6.4757,2.8199 -9.2656,6.302 -1.6036,2.0009 -2.8786,4.081 -3.8324,6.2348 -0.9414,2.1532 -1.3944,3.8976 -1.3343,5.2319 0.002,0.8019 0.4615,1.883 1.3629,3.2317 0.8989,1.3366 1.995,2.5283 3.2862,3.5626 0.9612,0.7702 1.8054,1.1979 2.537,1.2765 0.7325,0.0785 1.3419,-0.1789 1.8272,-0.7847 0.68,-0.8489 0.5553,-2.3757 -0.3869,-4.5788 -0.3382,-0.8436 -0.5936,-1.502 -0.7742,-1.9819 -0.6054,-1.6742 -0.8146,-3.225 -0.6182,-4.6781 0.1911,-1.4465 0.777,-2.7819 1.7527,-3.9994 0.9388,-1.1718 2.065,-1.8584 3.3837,-2.0661 1.3116,-0.2135 2.4928,0.0952 3.5385,0.9328 0.9754,0.7816 1.5712,1.7346 1.7946,2.8647 0.229,1.1237 0.032,3.0952 -0.5678,5.9001 -0.0862,0.352 -0.2137,0.8988 -0.3793,1.6526 -0.8974,3.7224 -1.2642,6.7252 -1.1171,9.0153 0.0848,1.4621 0.4711,2.8202 1.1477,4.0753 0.6818,1.2487 1.6444,2.3766 2.8934,3.3772 2.5049,2.0073 5.3818,2.702 8.6357,2.0776 3.2539,-0.6245 6.1053,-2.458 8.5417,-5.4987 0.6222,-0.7767 1.201,-1.6424 1.7512,-2.6175 0.5508,-0.9746 1.0908,-2.0656 1.6084,-3.2723 z m 21.5521,-22.3875 c 0.6327,-0.6072 1.3521,-1.1732 2.1642,-1.7036 0.8059,-0.5247 1.2331,-0.8104 1.2819,-0.8572 0.5598,-0.5372 0.5425,-1.4927 -0.0454,-2.8602 -0.5941,-1.3617 -1.6262,-2.8142 -3.096,-4.3449 -0.635,-0.6613 -1.23,-1.05 -1.7787,-1.1585 -0.5551,-0.1157 -1.0576,0.0431 -1.514,0.481 -0.4743,0.4558 -0.6066,1.2682 -0.3838,2.4378 0.2228,1.1696 0.3172,1.9015 0.2899,2.202 -0.0949,0.839 -0.4538,1.7195 -1.0763,2.654 -0.6293,0.9281 -1.6373,2.058 -3.0305,3.3957 -1.6001,1.5363 -2.6966,2.4769 -3.2831,2.8034 -0.5808,0.3331 -1.0661,0.3875 -1.438,0.1588 -0.4209,-0.2192 -1.1846,-0.8442 -2.2793,-1.8749 -1.101,-1.0244 -2.4205,-2.338 -3.9583,-3.9401 -0.8535,-0.8887 -0.5834,-1.9956 0.8039,-3.3273 1.4723,-1.4137 2.5214,-2.2088 3.1408,-2.3797 0.6193,-0.1707 1.3473,0.002 2.1651,0.5258 0.2542,0.1675 0.5896,0.4314 0.9995,0.7855 1.2305,1.0256 2.2286,1.1764 2.9953,0.4402 0.6631,-0.6367 0.7268,-1.5205 0.1721,-2.6458 -0.5542,-1.1257 -1.8714,-2.7652 -3.9515,-4.9315 -2.3352,-2.4321 -4.0501,-3.939 -5.146,-4.5198 -1.0956,-0.5811 -2.0052,-0.5176 -2.7292,0.1777 -0.6877,0.6599 -0.5786,1.5772 0.3333,2.7459 0.3994,0.5015 0.6809,0.9046 0.8504,1.2028 0.4899,0.8387 0.6333,1.5729 0.4312,2.1784 -0.2018,0.6055 -1.027,1.6095 -2.4749,2.9999 l -0.2129,0.2044 c -0.925,0.8878 -1.5347,1.3487 -1.842,1.3819 -0.2951,0.0337 -0.7599,-0.2801 -1.3949,-0.9414 l -0.7849,-0.8175 c -1.7,-1.7705 -3.0022,-3.1876 -3.888,-4.2441 -0.8858,-1.0567 -1.4361,-1.8371 -1.6512,-2.3411 -0.2531,-0.6046 -0.1933,-1.2728 0.1794,-2.0171 0.3728,-0.7319 1.1557,-1.6708 2.3483,-2.8157 1.8371,-1.764 3.355,-2.9718 4.5476,-3.6057 1.1982,-0.6392 2.3213,-0.8702 3.3817,-0.6913 0.684,0.1156 1.7345,0.5034 3.1507,1.1378 1.41,0.6409 2.401,0.6866 2.9727,0.1375 0.438,-0.4207 0.5859,-0.9366 0.4499,-1.5412 -0.1429,-0.6112 -0.5627,-1.2801 -1.2663,-2.0129 -1.8496,-1.9264 -3.7122,-3.3789 -5.5933,-4.3645 -1.8757,-0.9788 -3.0963,-1.203 -3.6561,-0.6656 -0.061,0.0584 -0.1755,0.2435 -0.3566,0.5542 -0.5908,1.0287 -1.294,1.9281 -2.1152,2.7167 l -12.9654,12.4481 c -2.4217,2.325 -3.7999,3.8976 -4.1406,4.7236 -0.3413,0.8261 -0.1726,1.5863 0.4938,2.2805 0.6477,0.6744 1.5049,0.8734 2.5722,0.5842 1.0735,-0.2826 1.7053,-0.4158 1.8966,-0.375 0.4255,0.1023 1.6118,1.0698 3.5646,2.9092 1.9596,1.8335 4.5051,4.3875 7.6374,7.6501 2.4848,2.5878 4.4226,4.7036 5.826,6.3477 1.3969,1.65 2.1413,2.6932 2.2139,3.1342 0.0459,0.2058 -0.1072,0.8385 -0.4456,1.8862 -0.3322,1.0548 -0.1746,1.9128 0.4731,2.5875 0.6661,0.6939 1.419,0.8935 2.2583,0.5862 0.8394,-0.307 2.5396,-1.6903 5.1069,-4.1553 z m 6.0434,-34.4327 c 0.1355,0.4224 0.3274,1.0253 0.5749,1.8215 1.8232,5.7906 2.5322,8.8308 2.1339,9.1151 -0.4325,0.3087 -3.293,-1.4051 -8.5946,-5.1437 l -1.116,-0.7943 c 0.8892,-0.5686 1.5758,-1.0145 2.0616,-1.3504 0.4791,-0.3308 0.9391,-0.6591 1.3782,-0.9729 0.4187,-0.2987 0.872,-0.6222 1.3541,-0.9776 0.489,-0.36 1.2161,-0.9233 2.2079,-1.6977 z m -2.5027,-18.2976 c -2.2793,1.6268 -3.7652,2.942 -4.4467,3.9478 -0.6877,1.0105 -0.7418,1.9213 -0.1723,2.7192 0.2248,0.3147 0.4901,0.5559 0.7897,0.7288 0.3115,0.1752 0.6001,0.2455 0.8892,0.2155 0.1832,-0.0199 0.4448,-0.0743 0.7824,-0.1384 0.8045,-0.1216 1.3243,-0.0175 1.5593,0.3118 0.4179,0.5854 0.7535,1.4619 1.0253,2.6263 0.2651,1.1699 0.3124,2.0197 0.142,2.5504 -0.0946,0.2883 -0.5227,0.7486 -1.2721,1.383 -0.7492,0.6344 -1.8267,1.4476 -3.2202,2.4426 -1.7572,1.2543 -3.0002,2.0974 -3.7281,2.5291 -0.7353,0.4365 -1.2254,0.6647 -1.4806,0.6701 -0.3597,0.047 -0.9759,-0.2203 -1.8504,-0.7778 -0.8802,-0.565 -1.5029,-1.1036 -1.8686,-1.6155 -0.2143,-0.3002 -0.3232,-0.5981 -0.3149,-0.8912 0.003,-0.3005 0.1332,-0.6696 0.3889,-1.1393 0.051,-0.1026 0.1241,-0.2321 0.2228,-0.4135 0.6834,-1.2498 0.7676,-2.249 0.2401,-2.9883 -0.5644,-0.7903 -1.3887,-1.0304 -2.4764,-0.7396 -1.0882,0.2906 -2.7887,1.2614 -5.1091,2.918 -1.6064,1.1466 -2.6958,2.1895 -3.2673,3.1167 -0.566,0.9349 -0.602,1.7555 -0.1003,2.4582 0.5904,0.8269 1.6835,1.0517 3.2746,0.667 0.5612,-0.1134 0.9694,-0.1947 1.2282,-0.2248 0.98,-0.1366 4.0201,1.5378 9.144,5.0275 1.5404,1.0548 2.7584,1.8754 3.6474,2.4673 0.665,0.453 1.6404,1.0933 2.9242,1.9332 6.3601,4.2205 10.4862,7.3287 12.4021,9.3306 0.8703,0.9144 1.5908,1.3719 2.1654,1.3926 0.5675,0.0258 1.3241,-0.2934 2.2442,-0.9502 0.8578,-0.6122 1.4468,-1.2098 1.7739,-1.7968 0.3152,-0.5896 0.4621,-1.313 0.4351,-2.1779 -0.0615,-1.1602 -0.5737,-3.6777 -1.5312,-7.5455 -0.9655,-3.8628 -2.9656,-11.3392 -6.0273,-22.4212 -0.0142,-0.078 -0.0338,-0.1636 -0.0587,-0.2566 -0.6112,-2.1047 -0.529,-3.6878 0.2588,-4.7471 0.5346,-0.7464 0.856,-1.4287 0.9499,-2.0373 0.1012,-0.6134 -0.0185,-1.1577 -0.3682,-1.6481 -0.601,-0.8416 -1.5801,-1.0372 -2.9362,-0.5995 -1.3561,0.4377 -3.4378,1.6586 -6.2589,3.6729 z m 46.7535,17.9557 c 0.9709,-0.5618 2.0376,-0.9918 3.197,-1.2787 0.3489,-0.0876 0.5658,-0.1505 0.6389,-0.193 0.6789,-0.3929 0.8115,-1.6954 0.3841,-3.8999 -0.4283,-2.204 -1.3079,-4.4479 -2.6272,-6.7281 -0.464,-0.8016 -0.9584,-1.3359 -1.4672,-1.5922 -0.5133,-0.2639 -1.0292,-0.2457 -1.5403,0.0499 -0.9122,0.5281 -1.2785,1.8825 -1.1024,4.0558 0.0173,0.3331 0.0365,0.6021 0.0567,0.7881 0.003,0.0396 0.007,0.0793 0.01,0.1184 0.1777,2.6816 -0.6639,4.561 -2.5254,5.6384 -0.9419,0.5449 -1.6398,0.8034 -2.099,0.7679 -0.4547,-0.0277 -0.9638,-0.4189 -1.5296,-1.1613 -0.2557,-0.3404 -0.8626,-1.2878 -1.8233,-2.8301 -0.9609,-1.5423 -1.9916,-3.2732 -3.0903,-5.1718 -2.2881,-3.9535 -4.1134,-7.2083 -5.4641,-9.7611 -1.351,-2.5532 -2.1112,-4.1701 -2.281,-4.851 -0.1063,-0.3852 0.1001,-0.972 0.6375,-1.7608 0.0145,-0.009 0.0173,-0.0207 0.008,-0.036 0.4349,-0.6466 0.6772,-1.171 0.722,-1.5815 0.0377,-0.4062 -0.0808,-0.8467 -0.3509,-1.3136 -0.5224,-0.9025 -1.372,-1.2424 -2.5571,-1.034 -1.1781,0.2038 -3.1434,1.1021 -5.8953,2.6949 -2.7521,1.5927 -4.5102,2.8491 -5.2738,3.7689 -0.771,0.9241 -0.8955,1.8374 -0.3776,2.7323 0.4686,0.8096 1.2643,1.1906 2.3958,1.1588 1.1316,-0.0312 1.7771,-0.0102 1.9387,0.0834 0.4453,0.2304 1.4122,1.5307 2.9267,3.895 1.5101,2.357 3.5655,5.7904 6.1685,10.2884 1.1035,1.9066 2.0857,3.655 2.9444,5.2566 0.8586,1.6012 1.3779,2.5993 1.546,2.9905 0.3617,0.8606 0.4473,1.497 0.2562,1.9083 -0.1947,0.4039 -0.7668,0.8804 -1.7232,1.4338 -1.8907,1.0944 -3.9869,0.8736 -6.2883,-0.6617 v 0 c -0.1514,-0.1097 -0.4077,-0.2834 -0.7458,-0.5139 -1.7388,-1.1857 -3.0484,-1.529 -3.9314,-1.0176 -0.5114,0.2956 -0.7838,0.7342 -0.8104,1.3107 -0.0318,0.5687 0.1854,1.2634 0.6494,2.0653 1.3195,2.28 2.827,4.1605 4.5247,5.6297 1.6985,1.4692 2.8938,2.0029 3.5727,1.61 0.093,-0.0748 0.2486,-0.227 0.4856,-0.4578 0.8263,-0.8623 1.7306,-1.5726 2.7017,-2.1347 l 17.7389,-10.2663 z m 33.0098,-12.0209 c 1.0641,-0.3546 2.1957,-0.5606 3.3891,-0.6077 0.3591,-0.0156 0.5842,-0.0334 0.6644,-0.0601 0.7441,-0.248 1.137,-1.4973 1.1625,-3.7423 0.0255,-2.2453 -0.3835,-4.6205 -1.2161,-7.1198 -0.2928,-0.8787 -0.6692,-1.5018 -1.116,-1.8552 -0.4495,-0.362 -0.9584,-0.4485 -1.5185,-0.262 -1,0.3331 -1.6319,1.586 -1.8978,3.7503 -0.0501,0.3296 -0.0856,0.5969 -0.1034,0.7832 -0.005,0.0394 -0.009,0.0788 -0.0139,0.1182 -0.3668,2.662 -1.5704,4.333 -3.6108,5.0128 -1.0324,0.3438 -1.7685,0.4564 -2.2107,0.3291 -0.4397,-0.1191 -0.8595,-0.6049 -1.2643,-1.4463 -0.1814,-0.3849 -0.5848,-1.4351 -1.2149,-3.1396 -0.6299,-1.7045 -1.2903,-3.6074 -1.984,-5.6886 -1.4437,-4.3336 -2.5747,-7.8897 -3.3829,-10.6628 -0.8084,-2.7728 -1.2268,-4.5099 -1.2557,-5.2112 -0.0264,-0.3985 0.294,-0.9317 0.9797,-1.5959 0.0155,-0.005 0.0209,-0.0167 0.0153,-0.0337 0.5561,-0.5457 0.8991,-1.0103 1.0261,-1.4035 0.1188,-0.39 0.0916,-0.8455 -0.0791,-1.3572 -0.3294,-0.9896 -1.093,-1.4933 -2.2958,-1.5287 -1.1951,-0.0377 -3.3012,0.4459 -6.3178,1.4508 -3.0167,1.0048 -4.9921,1.881 -5.9256,2.628 -0.9416,0.7494 -1.2475,1.6188 -0.9207,2.5999 0.2957,0.8872 0.9978,1.421 2.1127,1.618 1.1146,0.1976 1.7427,0.3484 1.8819,0.4728 0.3895,0.3155 1.0746,1.7839 2.0809,4.4053 1.0041,2.613 2.3247,6.3905 3.9671,11.3211 0.6962,2.0899 1.3057,4.0005 1.8238,5.7421 0.5182,1.7416 0.8252,2.8239 0.9108,3.2408 0.1809,0.9162 0.1364,1.5565 -0.1335,1.9211 -0.2724,0.3563 -0.9286,0.7075 -1.9769,1.0567 -2.0727,0.6906 -4.0813,0.0516 -6.0259,-1.9162 v 0 c -0.1261,-0.138 -0.3421,-0.36 -0.6264,-0.6536 -1.4641,-1.5123 -2.6776,-2.1124 -3.6457,-1.7898 -0.5607,0.1865 -0.9158,0.5609 -1.0584,1.1202 -0.1454,0.5508 -0.0729,1.275 0.2199,2.1538 0.8326,2.4993 1.9299,4.6454 3.2964,6.4267 1.3669,1.7813 2.4302,2.5455 3.1746,2.2975 0.1063,-0.0545 0.2891,-0.1724 0.5677,-0.3507 0.9831,-0.6777 2.0124,-1.1911 3.0768,-1.5457 z m 7.9701,-42.4819 -0.6553,0.1224 c -3.2995,0.6174 -5.3226,1.1787 -6.0523,1.681 -0.7381,0.504 -1.0136,1.2325 -0.8368,2.1781 0.1721,0.9193 0.7881,1.554 1.8562,1.8938 1.0689,0.349 1.6786,0.5826 1.8164,0.7215 0.3166,0.3157 0.7784,1.7753 1.4034,4.384 0.6174,2.6107 1.3468,6.1421 2.1782,10.5877 0.6596,3.5263 1.1208,6.3584 1.3935,8.5028 0.2639,2.1458 0.3146,3.4262 0.1338,3.835 -0.0879,0.2177 -0.5709,0.6647 -1.4363,1.3572 -0.866,0.6928 -1.2144,1.4896 -1.0426,2.4086 0.1899,1.0165 0.8447,1.6257 1.9704,1.8179 1.1259,0.1919 3.3091,-0.0156 6.5426,-0.6205 3.2332,-0.6049 5.3444,-1.2008 6.3241,-1.7867 0.9802,-0.5859 1.3705,-1.3907 1.1803,-2.4069 -0.1717,-0.9193 -0.7784,-1.5466 -1.8294,-1.8899 -1.0494,-0.3342 -1.6626,-0.5853 -1.8236,-0.7565 -0.3362,-0.3305 -0.8013,-1.7618 -1.4102,-4.2826 -0.6004,-2.522 -1.3595,-6.2124 -2.2706,-11.0823 -0.3041,-1.6263 -0.5853,-3.2658 -0.8461,-4.9366 -0.0513,-0.3656 -0.0828,-0.5794 -0.0961,-0.65 -0.2973,-1.591 -0.4824,-2.9922 -0.538,-4.2077 -0.0544,-1.2067 -0.004,-1.9477 0.1618,-2.2073 0.1327,-0.2081 0.5143,-0.4165 1.154,-0.6186 0.6387,-0.2109 1.5673,-0.4303 2.7777,-0.6567 1.8655,-0.349 3.4072,-0.4088 4.6159,-0.1866 1.217,0.2206 2.1532,0.7314 2.8276,1.5381 0.5151,0.599 1.1049,1.4582 1.7629,2.5886 0.9073,1.5038 1.7314,2.1915 2.4774,2.052 0.821,-0.1536 1.3533,-0.5644 1.5906,-1.2214 0.2375,-0.6574 0.2148,-1.7416 -0.0647,-3.2352 -0.481,-2.5722 -1.2245,-4.7566 -2.228,-6.5444 -1.0054,-1.7969 -1.8887,-2.6197 -2.6512,-2.4769 -0.0834,0.0156 -0.2807,0.1075 -0.6024,0.2679 -1.0746,0.5397 -2.164,0.9082 -3.2666,1.1146 z m 50.1571,33.6311 c 0.8742,-0.0667 1.7895,-0.0463 2.7533,0.0606 0.9559,0.1074 1.4672,0.1588 1.5347,0.1537 0.7736,-0.059 1.3677,-0.8076 1.7833,-2.2369 0.4073,-1.4289 0.534,-3.206 0.373,-5.3217 -0.0697,-0.9145 -0.282,-1.5928 -0.6364,-2.0254 -0.3552,-0.4422 -0.8438,-0.6392 -1.4746,-0.591 -0.6559,0.0499 -1.2747,0.5927 -1.8464,1.6373 -0.5715,1.0445 -0.9638,1.6696 -1.1759,1.8842 -0.6066,0.587 -1.4434,1.0386 -2.5183,1.364 -1.0757,0.3166 -2.5721,0.5477 -4.4977,0.6945 -2.2121,0.1684 -3.6567,0.197 -4.3169,0.0762 -0.6599,-0.1119 -1.0692,-0.3784 -1.2109,-0.7914 -0.1854,-0.4368 -0.3776,-1.4051 -0.5672,-2.8964 -0.1982,-1.4908 -0.3816,-3.3435 -0.5502,-5.5579 -0.0939,-1.2286 0.8186,-1.9111 2.736,-2.0571 2.0352,-0.1551 3.3508,-0.1018 3.9373,0.1599 0.5865,0.2622 1.038,0.8588 1.3371,1.7827 0.0898,0.2908 0.1808,0.7078 0.2718,1.2418 0.2977,1.5735 0.9726,2.3247 2.0319,2.2439 0.9167,-0.0697 1.5279,-0.7115 1.8153,-1.9329 0.2877,-1.2209 0.3135,-3.3242 0.0853,-6.3184 -0.2559,-3.3622 -0.6222,-5.6155 -1.0984,-6.7607 -0.4765,-1.1452 -1.2189,-1.6744 -2.2198,-1.5982 -0.9502,0.0723 -1.4491,0.8499 -1.4885,2.3318 -0.0105,0.6409 -0.0496,1.1308 -0.1083,1.4689 -0.155,0.9587 -0.5111,1.6169 -1.0519,1.9557 -0.5409,0.339 -1.8164,0.5893 -3.8177,0.7418 l -0.2945,0.0224 c -1.2782,0.0975 -2.0418,0.0655 -2.3003,-0.1046 -0.2489,-0.161 -0.4085,-0.699 -0.4782,-1.6135 l -0.0859,-1.1296 c -0.1863,-2.4474 -0.2909,-4.3693 -0.3028,-5.7481 -0.0119,-1.3788 0.0596,-2.3312 0.214,-2.8568 0.1888,-0.6275 0.6599,-1.1052 1.421,-1.4428 0.7532,-0.328 1.9543,-0.5547 3.6026,-0.6803 2.5396,-0.1936 4.4793,-0.1607 5.8025,0.108 1.3315,0.2684 2.3451,0.8042 3.0501,1.6163 0.4541,0.5244 1.0185,1.4916 1.7082,2.8817 0.6808,1.391 1.417,2.0563 2.2073,1.9962 0.6055,-0.0462 1.0477,-0.3504 1.3269,-0.9037 0.2786,-0.5624 0.3795,-1.3456 0.3024,-2.3587 -0.2029,-2.6629 -0.7168,-4.9683 -1.5426,-6.9251 -0.8248,-1.9479 -1.6248,-2.897 -2.3984,-2.838 -0.0841,0.006 -0.2902,0.0762 -0.6278,0.201 -1.1098,0.4184 -2.2247,0.6655 -3.3599,0.752 l -17.9215,1.3652 c -3.3477,0.2551 -5.4114,0.5924 -6.1994,1.0134 -0.7886,0.4206 -1.1418,1.1148 -1.0687,2.0741 0.0709,0.9326 0.6064,1.631 1.6138,2.0863 1.0083,0.4643 1.5809,0.7633 1.7022,0.9164 0.2636,0.3495 0.5641,1.8507 0.902,4.5119 0.3467,2.6612 0.6877,6.251 1.0312,10.7606 0.2725,3.577 0.4233,6.4423 0.4612,8.6037 0.0292,2.1617 -0.0595,3.4401 -0.2837,3.8268 -0.0958,0.1876 -0.6157,0.5791 -1.5435,1.1724 -0.9269,0.6029 -1.351,1.3655 -1.2798,2.2981 0.0728,0.9592 0.5272,1.5919 1.3705,1.8884 0.8431,0.2965 3.0348,0.3098 6.5838,0.0394 z m 7.7803,-34.3361 c -0.0474,1.4017 0.3254,2.6019 1.1106,3.6003 0.7937,0.9893 1.7801,1.5086 2.9687,1.5488 1.5426,0.0522 2.7953,-0.5533 3.75,-1.8255 0.9623,-1.2722 1.4774,-3.0268 1.5536,-5.2733 0.0505,-1.4919 -0.1579,-3.0733 -0.6327,-4.7446 -0.4671,-1.6622 -1.1928,-3.4141 -2.169,-5.2373 -0.866,-1.5948 -1.5069,-2.6059 -1.9233,-3.0251 -0.4162,-0.4187 -0.8561,-0.6316 -1.3366,-0.6478 -0.7251,-0.0246 -1.3116,0.0995 -1.7594,0.3632 -0.4391,0.2642 -0.6704,0.6162 -0.6855,1.0564 -0.007,0.2155 0.2367,0.737 0.7399,1.5815 0.3671,0.6242 0.6616,1.1469 0.8838,1.5593 0.6183,1.1815 1.0653,2.1952 1.3488,3.0504 0.2831,0.8552 0.4192,1.5707 0.3994,2.1549 -0.0165,0.485 -0.3235,0.8345 -0.9216,1.0482 -0.2732,0.099 -0.4873,0.1902 -0.6511,0.2929 -0.9303,0.5533 -1.5922,1.1695 -2.0041,1.8666 -0.4122,0.7055 -0.6358,1.5797 -0.6715,2.6311 z m 46.1282,20.1606 c -0.4451,-2.8341 -0.9545,-6.4398 -1.5387,-10.8102 -0.8923,-6.8222 -1.8119,-10.3383 -2.7652,-10.5583 -0.8303,-0.1916 -1.9726,0.7076 -3.4109,2.7009 -0.1531,0.214 -0.2594,0.3739 -0.3328,0.4677 -5.3467,7.4123 -10.5055,14.9879 -15.4689,22.7285 -0.7209,1.135 -1.1824,1.8587 -1.3984,2.1966 -0.8784,1.3291 -1.8878,2.065 -3.0226,2.2183 -0.1437,0.0222 -0.2522,0.0434 -0.3424,0.0593 -0.7367,0.1162 -1.3354,0.347 -1.7983,0.7016 -0.4626,0.3546 -0.7546,0.7945 -0.8779,1.3291 -0.2287,0.9902 0.2325,1.844 1.374,2.5594 1.1503,0.7178 3.2386,1.4213 6.2711,2.1212 2.745,0.6335 4.7063,0.8739 5.8759,0.7194 1.1614,-0.1564 1.8635,-0.7234 2.0883,-1.6957 0.087,-0.3767 0.0978,-0.7248 0.0351,-1.0533 -0.0567,-0.3172 -0.193,-0.5888 -0.3909,-0.8189 -0.1153,-0.1375 -0.3092,-0.3113 -0.5604,-0.5355 -0.587,-0.5323 -0.8368,-0.9867 -0.7497,-1.3635 0.1414,-0.6131 1.8416,-3.4041 5.0984,-8.3647 0.9192,-1.3933 1.6381,-2.4823 2.1546,-3.2584 1.1905,-1.8199 2.0951,-3.115 2.7105,-3.9051 0.6131,-0.7812 1.0119,-1.1599 1.1846,-1.1199 0.2548,0.0587 0.6723,2.0007 1.2421,5.8325 0.3322,2.2729 0.6304,4.1321 0.8674,5.5798 -0.3308,0.496 -0.79,1.2112 -1.3618,2.1495 -1.9374,3.0688 -3.3808,4.784 -4.3338,5.1638 -0.1724,0.0712 -0.4165,0.1531 -0.7444,0.2622 -1.2263,0.3997 -1.9364,1.0387 -2.1388,1.9149 -0.2406,1.0423 0.165,1.9111 1.2226,2.6166 1.0497,0.7039 3.0209,1.3893 5.9137,2.0571 2.6297,0.6069 4.5172,0.8303 5.6539,0.6681 1.1367,-0.1621 1.8142,-0.7347 2.039,-1.7073 0.0825,-0.3588 0.0916,-0.6984 0.0289,-1.0264 -0.0731,-0.3214 -0.2157,-0.6038 -0.426,-0.8552 -0.1112,-0.1179 -0.2741,-0.2755 -0.5006,-0.4938 -0.5993,-0.5536 -0.8552,-1.0188 -0.7682,-1.3955 0.1576,-0.6834 2.0355,-3.7565 5.6313,-9.2106 0.6803,-1.0332 1.2047,-1.8442 1.5724,-2.4239 1.1701,-1.7694 2.0625,-3.0487 2.6861,-3.837 0.6253,-0.7971 1.0304,-1.1647 1.2197,-1.1211 0.2464,0.0567 0.5882,1.5384 1.0318,4.4552 l 0.1092,0.7265 0.1559,1.088 c 1.2345,7.8888 1.7694,12.2105 1.5993,12.9467 -0.0788,0.2678 -0.2058,0.4784 -0.3983,0.6372 -0.1905,0.1497 -0.6041,0.3308 -1.2438,0.5525 -0.1089,0.0209 -0.2586,0.0694 -0.4635,0.1329 -1.0831,0.3036 -1.7254,0.8751 -1.9137,1.69 -0.2185,0.9462 0.1191,1.7345 1.0001,2.3808 0.8807,0.6461 2.435,1.2263 4.6454,1.7365 2.0055,0.4629 3.5498,0.5979 4.6267,0.3943 1.0772,-0.2035 1.7221,-0.7466 1.9281,-1.6404 0.2285,-0.9901 -0.3004,-1.961 -1.5888,-2.9046 -0.1564,-0.1097 -0.2902,-0.205 -0.3849,-0.2824 -0.8235,-0.6329 -1.3476,-1.963 -1.5741,-3.9807 -0.0278,-0.2922 -0.0575,-0.5391 -0.0847,-0.7205 -0.6642,-5.561 -1.3502,-10.8777 -2.0725,-15.9628 -0.7236,-5.0762 -1.4626,-9.75 -2.2189,-14.0122 l -0.0335,-0.1925 c -0.318,-1.6973 -0.8387,-2.6297 -1.5619,-2.7966 -1.0763,-0.2483 -3.8837,3.0254 -8.4276,9.8113 -2.0849,3.1081 -3.7744,5.5882 -5.0692,7.4486 z m 39.185,9.7168 c -0.2775,0.3459 -0.6752,0.8385 -1.2031,1.4837 -3.8262,4.7132 -5.9723,6.9806 -6.4284,6.8051 -0.4963,-0.1905 -0.6431,-3.5223 -0.4461,-10.0063 l 0.0473,-1.3691 c 0.9646,0.4289 1.7152,0.7557 2.2632,0.976 0.54,0.2171 1.0675,0.4201 1.5712,0.6137 0.4805,0.1845 1.0001,0.3841 1.5622,0.5904 0.57,0.2098 1.4411,0.506 2.6337,0.9065 z m 13.8869,-12.1745 c -2.6138,-1.0049 -4.5303,-1.5196 -5.745,-1.5338 -1.2223,-0.017 -2.0123,0.4402 -2.3638,1.3552 -0.1389,0.3609 -0.1939,0.7152 -0.1729,1.0605 0.0255,0.3566 0.1261,0.6361 0.3107,0.8609 0.1173,0.1417 0.307,0.3299 0.5465,0.5762 0.5448,0.6044 0.7447,1.0953 0.5995,1.4732 -0.2582,0.6713 -0.8045,1.4343 -1.6262,2.3032 -0.8297,0.8659 -1.5129,1.3739 -2.0495,1.5241 -0.2928,0.08 -0.9127,-0.0235 -1.8552,-0.2987 -0.9423,-0.2758 -2.2147,-0.7263 -3.8129,-1.3405 -2.0155,-0.7747 -3.4039,-1.3471 -4.1655,-1.7164 -0.7694,-0.373 -1.23,-0.6559 -1.3751,-0.866 -0.2376,-0.2744 -0.3541,-0.9354 -0.3711,-1.9726 -0.0139,-1.0457 0.0922,-1.8624 0.3181,-2.4497 0.1321,-0.3444 0.3206,-0.5993 0.57,-0.754 0.2523,-0.163 0.6321,-0.2577 1.1648,-0.3036 0.1136,-0.0139 0.2619,-0.0244 0.4677,-0.042 1.4193,-0.1188 2.2997,-0.5992 2.6254,-1.4468 0.3484,-0.9065 0.0944,-1.7266 -0.7477,-2.4741 -0.8422,-0.7475 -2.5901,-1.6313 -5.2512,-2.654 -1.842,-0.7081 -3.3129,-1.0423 -4.4014,-1.008 -1.0919,0.0428 -1.7963,0.4654 -2.1061,1.2713 -0.3646,0.9482 0.0504,1.9842 1.2484,3.0997 0.4039,0.4059 0.697,0.7016 0.8645,0.9008 0.6545,0.7427 0.9332,4.2021 0.8459,10.4006 -0.0312,1.8666 -0.0442,3.3356 -0.0479,4.4034 -0.0114,0.8044 -0.008,1.9715 -10e-4,3.5056 -0.0153,7.6328 -0.3342,12.7888 -0.9484,15.491 -0.2829,1.23 -0.2673,2.0835 0.032,2.5742 0.2914,0.4878 0.9746,0.9433 2.0296,1.3487 0.9839,0.3781 1.8074,0.5403 2.4775,0.4898 0.6653,-0.0623 1.3499,-0.3384 2.0568,-0.8376 0.934,-0.6908 2.7522,-2.5061 5.4513,-5.4371 2.6909,-2.9348 7.8262,-8.7248 15.3845,-17.3883 0.0575,-0.055 0.1182,-0.1185 0.1817,-0.1902 1.419,-1.6702 2.7853,-2.4744 4.1034,-2.401 0.9173,0.0346 1.6642,-0.0734 2.2235,-0.3305 0.5675,-0.2537 0.9561,-0.6537 1.1721,-1.2158 0.3711,-0.9652 -0.006,-1.8901 -1.1179,-2.7802 -1.1129,-0.8901 -3.2794,-1.9539 -6.5149,-3.1975 z m 22.7052,32.1046 c 1.2827,-1.7795 2.342,-3.1331 3.189,-4.0634 0.8351,-0.9275 1.6175,-1.6382 2.3369,-2.1169 1.1749,-0.7934 2.5359,-1.1095 4.0691,-0.9573 1.5336,0.1519 3.0322,0.7554 4.4827,1.8011 1.512,1.09 2.5611,2.2451 3.1595,3.4631 0.5916,1.2135 0.7702,2.5951 0.5358,4.1327 -0.0961,0.8396 -0.6047,2.0358 -1.5248,3.6008 -0.9212,1.5523 -2.577,3.994 -4.9799,7.3276 -2.1557,2.9905 -3.8965,5.3047 -5.2225,6.9423 -1.3142,1.6353 -2.1833,2.5384 -2.594,2.719 -0.2115,0.0913 -0.8513,0.0845 -1.9126,-0.0153 -1.0734,-0.0975 -1.8756,0.2219 -2.412,0.966 -0.5624,0.7804 -0.5839,1.6183 -0.0595,2.5061 0.5315,0.893 1.7379,2.0175 3.6193,3.3736 1.8612,1.3413 3.2958,2.1206 4.3299,2.3451 1.027,0.2194 1.8323,-0.0757 2.4052,-0.8708 0.5471,-0.7586 0.5692,-1.6402 0.0771,-2.6598 -0.4918,-1.0199 -0.7367,-1.6174 -0.7174,-1.8031 0.0104,-0.4468 0.7429,-1.7807 2.1897,-4.0187 1.4536,-2.2331 3.5022,-5.1902 6.1518,-8.8665 l 1.3881,-1.9256 c 1.8768,-2.6039 3.1385,-4.6428 3.7899,-6.1236 0.6517,-1.4811 1.0015,-2.9472 1.0545,-4.4054 0.0816,-2.1909 -0.489,-4.2981 -1.7181,-6.3144 -1.2237,-2.0237 -3.0699,-3.9198 -5.5261,-5.6903 -4.3861,-3.1615 -8.2823,-4.5065 -11.6901,-4.0481 -3.4135,0.4657 -6.6129,2.77 -9.5995,6.9131 -0.6993,0.9703 -1.7864,2.5361 -3.2616,4.6984 -1.4751,2.162 -2.6322,3.8106 -3.4684,4.9706 -1.2405,1.7212 -2.3349,3.1382 -3.2959,4.2409 -0.9612,1.1027 -1.6067,1.7237 -1.9443,1.8462 -0.2114,0.0915 -0.8648,0.0748 -1.974,-0.0595 -1.1075,-0.1225 -1.9355,0.1896 -2.4823,0.9481 -0.5942,0.8244 -0.5803,1.6991 0.0425,2.6244 0.6222,0.9252 2.2856,2.3677 4.9884,4.3157 2.7094,1.9531 4.6109,3.0801 5.6855,3.3781 1.0743,0.2976 1.9085,0.0345 2.5027,-0.7898 0.5468,-0.7585 0.5811,-1.6427 0.1012,-2.6645 -0.4848,-1.0148 -0.7265,-1.6319 -0.7101,-1.842 0.0283,-0.5009 0.779,-1.8882 2.2572,-4.17 1.4712,-2.2865 3.7194,-5.5208 6.7371,-9.7079"
           style="fill:#231f20;fill-opacity:1;fill-rule:nonzero;stroke:none"
           id="path72" />
        <path
           d="m 604.8876,760.3804 c 0.0618,0.4833 0.18,0.896 0.3294,1.2518 0.1496,0.3557 0.3492,0.6471 0.5987,0.8866 0.8815,0.8473 2.4179,0.9893 4.6148,0.4318 2.1968,-0.5579 4.0487,-1.6212 5.544,-3.1774 0.6352,-0.6613 0.9819,-1.3261 1.0451,-2.0007 0.0635,-0.6749 -0.1633,-1.254 -0.6741,-1.745 -0.7361,-0.707 -2.2535,-0.8807 -4.5402,-0.5219 -0.0862,0.0168 -0.154,0.0267 -0.2033,0.0292 -1.9723,0.3243 -3.5416,0.3504 -4.701,0.0842 -1.1659,-0.2599 -2.2172,-0.8458 -3.1538,-1.7456 -1.1492,-1.1043 -1.7935,-2.2722 -1.9142,-3.4979 -0.1208,-1.2257 0.2863,-2.3309 1.2206,-3.3035 1.5514,-1.6143 4.8787,-1.535 9.9822,0.2265 0.631,0.2197 1.1148,0.3858 1.4335,0.5046 4.0558,1.3906 7.2297,1.9465 9.5093,1.6679 2.2797,-0.2784 4.3538,-1.3907 6.2164,-3.3293 2.5163,-2.6192 3.568,-5.6489 3.1601,-9.0834 -0.4079,-3.4347 -2.2269,-6.7031 -5.444,-9.7945 -1.8493,-1.7765 -3.8063,-3.2332 -5.8657,-4.3767 -2.0596,-1.131 -3.7565,-1.7391 -5.091,-1.7989 -0.7988,-0.0694 -1.9168,0.2906 -3.3409,1.067 -1.412,0.7755 -2.6972,1.76 -3.8435,2.9528 -0.8535,0.8884 -1.3553,1.6906 -1.499,2.4126 -0.144,0.722 0.0576,1.3521 0.6171,1.8899 0.7847,0.7537 2.3162,0.7664 4.5953,0.026 0.8705,-0.2608 1.5494,-0.4563 2.0435,-0.593 1.7214,-0.4527 3.285,-0.5218 4.7143,-0.1956 1.4238,0.3204 2.7011,1.0239 3.8262,2.1048 1.0825,1.0403 1.665,2.2235 1.7538,3.5555 0.0946,1.3257 -0.3186,2.4743 -1.247,3.4407 -0.866,0.9011 -1.8689,1.4091 -3.0144,1.5301 -1.1395,0.127 -3.0855,-0.2463 -5.8249,-1.0956 -0.3432,-0.1176 -0.8764,-0.2934 -1.612,-0.5261 -3.627,-1.2283 -6.5846,-1.8629 -8.8784,-1.9225 -1.4638,-0.0467 -2.8511,0.216 -4.1624,0.777 -1.3045,0.5669 -2.5144,1.4241 -3.6233,2.5781 -2.224,2.3148 -3.1742,5.1177 -2.8448,8.4144 0.3297,3.297 1.8998,6.3014 4.7095,9.0011 0.7177,0.6897 1.5278,1.3436 2.4494,1.9795 0.9212,0.6358 1.9593,1.2716 3.1147,1.8955 z m 33.8544,3.5305 c -0.4158,0.1557 -1.0088,0.3759 -1.7923,0.6605 -5.6979,2.0959 -8.7007,2.9483 -9.0037,2.5645 -0.3288,-0.4175 1.2475,-3.3565 4.7305,-8.8293 l 0.7401,-1.1526 c 0.6103,0.8617 1.0882,1.5264 1.4468,1.9956 0.3532,0.4626 0.703,0.9065 1.0372,1.3306 0.3183,0.4039 0.663,0.841 1.0406,1.3059 0.383,0.4714 0.9802,1.1713 1.8008,2.1248 z m 18.1585,-3.3678 c -1.7334,-2.1994 -3.1178,-3.6216 -4.1545,-4.2542 -1.042,-0.6393 -1.9544,-0.65 -2.7246,-0.0434 -0.3036,0.2392 -0.5321,0.5159 -0.6905,0.8232 -0.1602,0.3197 -0.2166,0.6114 -0.1729,0.8988 0.0286,0.1817 0.0952,0.4405 0.1751,0.7747 0.1596,0.7977 0.0805,1.3221 -0.2372,1.5727 -0.565,0.445 -1.4244,0.8218 -2.5747,1.1486 -1.156,0.3203 -2.0027,0.4076 -2.541,0.2628 -0.2923,-0.0811 -0.7725,-0.4867 -1.4417,-1.205 -0.669,-0.7186 -1.5327,-1.7561 -2.5926,-3.1009 -1.3365,-1.6956 -2.2376,-2.8973 -2.7031,-3.6039 -0.4708,-0.7138 -0.722,-1.1923 -0.7396,-1.4471 -0.0643,-0.3572 0.1738,-0.9851 0.6891,-1.8853 0.5228,-0.906 1.031,-1.5537 1.5251,-1.9432 0.2897,-0.2282 0.5822,-0.3509 0.8753,-0.3566 0.3005,-0.011 0.675,0.1012 1.1563,0.3342 0.1051,0.0462 0.2381,0.1131 0.4235,0.203 1.2809,0.6233 2.2833,0.6602 2.9962,0.0981 0.7631,-0.6013 0.9638,-1.4358 0.6219,-2.5087 -0.3421,-1.0729 -1.3926,-2.7258 -3.1575,-4.9649 -1.2214,-1.55 -2.3151,-2.5889 -3.2683,-3.1158 -0.9604,-0.521 -1.7816,-0.5179 -2.4599,0.0164 -0.798,0.629 -0.9703,1.7317 -0.5109,3.3027 0.1398,0.5553 0.2404,0.9589 0.2827,1.216 0.1831,0.9726 -1.3454,4.0887 -4.5882,9.3722 -0.9805,1.5885 -1.7425,2.8443 -2.2912,3.7605 -0.421,0.6857 -1.0143,1.6903 -1.7924,3.0126 -3.9141,6.5531 -6.823,10.8218 -8.7315,12.8308 -0.872,0.9127 -1.2952,1.6543 -1.2884,2.2291 10e-4,0.5681 0.3558,1.3088 1.0553,2.1966 0.6526,0.8277 1.2773,1.3878 1.8791,1.6869 0.6041,0.2866 1.3337,0.3988 2.1963,0.3311 1.1557,-0.1165 3.6462,-0.7478 7.4642,-1.8879 3.8129,-1.1472 11.1855,-3.4999 22.11,-7.0841 0.0773,-0.0178 0.1621,-0.0414 0.2534,-0.0705 2.0732,-0.7104 3.6587,-0.7036 4.7542,0.0331 0.7708,0.4986 1.4675,0.7875 2.0798,0.8521 0.6177,0.072 1.1557,-0.0731 1.6288,-0.4459 0.8124,-0.64 0.9612,-1.6273 0.4598,-2.9613 -0.5015,-1.3335 -1.8199,-3.3551 -3.9654,-6.0775"
           style="fill:#231f20;fill-opacity:1;fill-rule:nonzero;stroke:none"
           id="path74" />
      </g>
      <path
         d="m 618.8012,985.375 c 0,0 28.6849,-42.1835 19.9666,-109.3961 C 622.1755,765.4581 538.3712,744.0851 538.3712,744.0851 c 0,0 -57.3695,-26.435 -113.0516,-18.5609 -55.6824,7.8743 -90.8345,38.8224 -97.4347,44.7913 -6.6002,5.9689 -14.7818,13.5131 -19.1829,19.1455 -5.6702,7.257 -6.289,7.1504 -12.0977,15.8678 -10.9157,16.382 -21.6811,38.7689 -25.708,58.9637 -7.8111,39.1717 -4.3132,60.111 5.3439,98.1179 1.8207,7.1651 4.6199,14.1837 7.3729,20.5923 3.1107,7.2408 5.8096,11.8757 9.6318,18.3333 3.4467,5.8232 15.039,20.196 19.1245,23.5999 l 23.084,18.8637 c 46.0633,35.2001 75.7925,60.1634 143.5155,45.6551 12.8518,-2.7533 30.6837,-8.0992 42.1413,-13.7886 9.4535,-4.6944 18.6296,-9.0601 27.6449,-15.0797 19.0358,-12.7097 22.0002,-15.5631 38.1807,-31.7316 11.4987,-11.4903 21.5773,-26.1958 29.8672,-40.0454 z m -1.9982,3.4344 c 8.2899,-13.8495 1.9982,-3.4344 1.9982,-3.4344 z"
         style="fill:#231f20;fill-opacity:1;fill-rule:evenodd;stroke:none"
         id="path76" />
      <path
         d="m 411.6283,1059.2765 c 6.671,0.7996 15.2064,-1.639 19.7971,2.734 4.2273,4.0266 2.0052,10.0171 11.9829,10.6835 14.5641,0.9728 37.9899,-12.0864 45.7795,-21.1774 5.7215,-6.6773 1.8769,-8.346 -0.8844,-15.3388 -2.6654,-6.7493 -0.2931,-13.5935 -1.9848,-19.8335 l -4.0575,-1.26 c -4.6488,5.1917 0.3946,6.1189 -14.7104,21.0028 -5.6228,5.5406 -12.683,15.1804 -17.9546,17.0104 -5.0406,1.7498 -10.4227,-0.4374 -11.4906,-4.8623 -2.2291,-9.2375 10.8723,-11.1917 14.3269,-20.2779 1.6622,-4.3721 2.0446,-9.813 0.2177,-13.5142 -11.9452,-3.7074 -8.0461,10.8675 -12.4824,16.0081 -4.1153,4.7693 -1.4584,-1.7872 -7.0313,8.5006 -1.6242,2.9982 -5.8323,5.8705 -9.9796,3.3029 1.6338,-3.7159 2.5299,-0.235 5.2636,-3.3131 1.0273,-1.1568 1.4805,-3.6133 2.452,-5.3581 2.7394,-4.9198 5.8464,-2.9086 7.0599,-8.6558 -7.4857,7.4454 -10.3328,1.3563 -15.366,6.5794 -2.778,2.8832 -3.2686,5.0488 -4.6148,7.8234 -5.8493,12.0569 -22.985,-1.5106 -21.0198,12.2743 z"
         style="fill:#778591;fill-opacity:1;fill-rule:evenodd;stroke:none"
         id="path78" />
      <path
         d="m 422.6539,1015.6907 c -5.2413,-1.7255 -7.9362,-6.6974 -5.6455,-13.0711 2.2445,-6.245 4.974,-7.2312 9.7002,-10.4845 17.335,-11.9331 9.5343,10.8104 16.5744,16.0528 6.3289,4.7124 10.7878,0.1086 14.0879,-3.2317 30.3483,-30.7188 9.6242,-18.4096 10.1265,-30.5669 4.4161,-2.3564 11.1898,-1.9097 8.896,-9.2999 -5.4621,-1.7198 -8.4288,0.4434 -13.1386,-0.9195 -2.6855,-0.777 -6.9854,-3.6066 -8.2406,-4.968 -7.077,-7.6763 -2.2876,-13.8513 -10.7549,-15.6555 -9.4686,-2.0177 -13.5956,-1.0108 -15.681,-10.7246 -1.5043,-7.0072 2.7164,-17.604 -1.8006,-22.9552 -11.9848,6.4539 -10.8983,12.7 -17.6247,16.5251 -19.944,11.3417 -22.0722,-11.4557 -23.4181,-13.6579 -1.1064,-1.8102 -2.4976,-2.825 -3.6765,-4.8359 -2.484,-4.237 -2.327,-9.9394 0.0275,-13.9683 7.9095,-13.5371 21.9208,-3.4381 23.1738,-3.2026 2.7858,-4.7525 1.5003,-3.8775 1.7359,-10.055 0.3985,-10.4582 7.1215,-6.3411 8.9461,-14.2662 0.745,-3.2364 0.7404,-7.8656 -0.0878,-10.8309 -1.3981,-0.3161 -0.4207,-1.1909 -2.647,1.8056 -2.8293,3.8081 -2.0651,3.6791 -7.3259,6.738 -17.6133,10.2416 -2.6606,8.814 -35.0033,21.7278 -6.9268,2.7655 -6.1796,4.6928 -6.6938,12.71 -0.7509,11.7114 -9.8129,32.3779 -17.2836,38.5903 -7.9932,6.6467 -18.245,7.9041 -8.3416,22.002 6.2263,8.8633 10.8652,11.0032 2.6983,26.7653 -6.6566,12.8469 -1.9204,17.2321 3.7375,27.39 10.311,18.5108 -12.5694,14.1367 -18.8274,14.33 l 10.8048,9.1729 c 4.8668,3.6204 8.6247,1.8921 15.0877,4.3923 7.4823,2.8947 19.523,12.8792 28.2991,7.1487 5.938,-3.8772 2.8052,-9.3957 8.2125,-11.198 4.1936,-1.3978 3.6071,-0.1454 7.3781,-2.755 2.1605,-1.4953 3.3661,-2.6031 5.4138,-3.8636 9.876,-6.0812 23.0437,-0.051 32.8459,-5.7881 0.7345,-8.7749 -4.6114,-6.7666 -11.5551,-9.0524"
         style="fill:#778591;fill-opacity:1;fill-rule:evenodd;stroke:none"
         id="path80" />
      <path
         d="m 344.6337,1042.092 c 0.7999,1.0723 0.5768,0.9791 1.9803,2.2127 0.7871,0.692 1.3198,0.9587 2.2569,1.6308 22.5814,16.1997 40.3829,33.2447 70.9849,39.3593 16.7443,3.3458 37.6478,2.9135 54.2597,-0.7154 12.9075,-2.8197 37.6458,-8.2117 43.0608,-15.9134 -3.0388,-2.5643 -7.7567,-3.5397 -5.993,-10.6484 0.892,-3.5955 5.9408,-6.205 9.0536,-8.0991 4.1666,-2.5354 6.2509,-4.6588 9.28,-7.7862 4.7313,-4.8844 6.1506,-0.707 11.2986,-1.8953 1.948,-4.9904 -3.2652,-4.1681 -2.6915,-11.1883 0.8754,-2.6827 13.0828,-10.0996 15.0554,-8.809 2.9049,1.9009 1.2484,7.0146 -0.743,9.0712 -3.2643,3.3706 -7.3233,5.7498 -5.6162,12.2116 l 5.0374,-0.3608 c 0.6202,-2.5008 0.6644,-5.2416 1.0633,-7.5243 l 2.1889,-4.7651 c 1.9244,-1.9697 6.8511,-8.3542 4.0808,-12.2524 -3.3738,-2.5022 -6.9951,-1.5288 -10.1767,-3.8206 -2.2516,-1.6217 -4.0575,-5.3084 -1.7527,-8.8452 6.5875,-10.1075 13.9539,4.4433 14.2342,4.6865 0.8748,-2.0511 0.1721,-4.9742 0.1193,-7.6904 l 3.3288,-1.1868 c 0.0969,0.176 0.4036,-0.1338 0.5904,-0.2333 -0.002,-4.5309 1.1832,-8.191 2.556,-12.0135 1.4224,-3.9595 0.8867,-7.9796 1.5639,-11.8043 l 0.4654,-1.173 c 5.8323,-2.4988 6.1937,3.2791 8.0215,7.5688 6.0577,-2.4387 2.6362,-1.7734 5.1052,-6.5532 6.8386,0.3342 2.5044,9.2271 3.087,12.9546 0.3058,1.9582 -0.0358,0.7322 0.7971,1.7694 5.3648,-2.9069 -2.9282,-6.1523 2.3303,-8.7063 5.4434,2.9319 -2.4837,9.8005 3.1071,16.7627 4.2256,0.153 4.6865,-1.2776 8.0662,-2.4497 4.6256,-1.6044 3.8679,1.0102 6.3905,-2.0679 3.3806,-4.1255 5.0842,-8.653 5.0779,-15.2612 -2.5191,-1.2186 -1.2027,0.8107 -3.139,-1.5922 -0.7288,-0.9048 -1.4661,-2.7476 -2.2473,-3.8341 -7.428,0.0433 -9.4791,3.7159 -17.4949,-1.3414 -14.6699,-9.2551 -13.1077,-36.7242 -6.7229,-49.9396 3.92,-8.1136 -0.0496,-10.6294 2.3978,-17.7968 1.3745,-4.0249 5.4071,-9.9448 7.734,-13.9694 2.9999,-5.188 3.8004,-11.0364 11.4421,-8.5003 6.8173,2.2627 7.9693,7.8835 13.1303,7.4175 3.6587,-4.7708 0.2815,-5.7694 5.9531,-10.3337 4.5779,-3.6845 3.7273,-3.8183 9.1706,-6.5328 -1.0839,-18.0079 -11.8542,-41.8546 -19.3252,-54.6508 -18.6451,-31.9346 -45.2307,-53.5623 -80.9209,-66.5904 -16.2898,-5.9465 -40.5147,-12.8962 -59.3305,-14.898 5.877,11.0684 23.5961,26.4994 36.2735,33.249 6.4828,3.4514 8.8336,6.9808 13.659,11.9676 1.6484,1.7033 2.7831,2.3445 4.2548,4.2664 6.6901,8.7352 0.163,13.4124 11.1033,23.131 5.5469,4.9274 15.8125,9.6108 12.2043,21.9807 -2.3524,8.0642 -10.8272,12.3888 -20.7513,13.4379 -15.0982,1.5956 -15.0131,3.0291 -20.7589,13.4266 -7.6383,13.8217 -12.6528,5.087 -22.5888,3.7834 -6.5055,5.8643 -7.759,7.5651 -19.0975,10.4439 -9.9496,2.5266 -17.6491,4.1097 -18.2223,-7.5458 -4.5666,-0.2741 -4.8152,0.0405 -7.9908,-1.6503 -2.5833,-10.0667 -0.0281,-12.92 -6.2164,-24.2822 -2.9132,-5.3487 -13.0142,-11.4162 -10.9021,-17.6025 0.8603,-2.5198 2.1751,-2.4778 3.3557,-4.4147 2.2989,-3.7715 2.3998,-9.4468 6.23,-15.5378 3.1575,-5.0208 3.1147,-3.9425 7.8777,-6.8653 4.4538,-2.7331 3.3801,-3.9994 10.1098,-4.6638 1.9723,-13.3282 15.1968,-3.5861 1.3408,-29.465 -2.723,-5.0857 -6.308,-7.7896 -9.5443,-12.2046 -3.1172,-4.2534 -6.1733,-8.3509 -4.1573,-15.1996 -20.0877,0.4155 -27.4722,1.3733 -44.8469,7.4208 -24.8,8.6318 -53.9093,24.533 -72.4391,43.3139 -15.2889,15.4962 -27.2965,32.7935 -36.2749,53.8356 -11.3038,26.492 -16.276,59.1537 -11.3046,88.1255 4.5422,26.473 11.0231,55.5332 27.2098,76.1468 4.1706,5.3115 7.289,9.1485 11.6161,13.9895 5.3761,6.0143 8.8871,10.9639 14.7302,11.0631 7.3698,0.1247 19.8649,1.6285 17.7763,-7.7097 -1.0488,-4.6908 -7.5191,-9.9822 -9.3472,-16.3406 -4.6108,-16.0353 15.9097,-22.8305 1.5562,-38.9086 -15.9653,-17.883 -0.5122,-20.6649 8.0586,-29.5722 6.5812,-6.8394 14.1888,-23.978 14.7671,-36.6298 0.4278,-9.351 3.0135,-11.9861 11.1297,-14.3374 6.806,-1.9718 12.9373,-4.4161 17.4138,-8.2641 6.2028,-5.3323 7.308,-6.7774 14.6616,-10.9488 8.0496,-4.5664 9.9933,-12.1278 12.8047,-13.0941 2.0783,6.2138 3.5886,18.6845 -2.0469,22.2636 -4.1142,2.6129 -5.6225,3.1337 -5.4853,9.5958 0.117,5.5063 1.5077,7.9852 -1.9965,11.4987 -5.9737,0.62 -4.9912,-4.5501 -12.4285,-4.5107 -4.8787,0.0258 -8.7885,2.863 -10.131,6.2422 -1.853,4.6635 -0.256,9.1938 2.2255,12.5503 6.3844,8.6358 4.4336,19.5407 14.7608,18.4825 12.4163,-1.2719 13.6613,-20.9066 28.6027,-19.849 4.6131,8.2562 0.7087,14.3127 1.9968,23.6693 1.5318,11.1274 7.1498,8.2377 16.164,11.0162 7.6178,2.348 3.7508,10.0216 10.7637,16.3851 8.6116,7.814 12.9804,1.7283 20.5205,5.0157 3.4739,10.5641 -5.6086,9.3727 -8.0875,13.5272 3.5178,5.6358 11.7417,2.4962 -1.0709,19.0754 -2.6782,3.4651 -11.8355,13.4935 -15.4179,14.9845 1.6061,3.7296 4.4436,5.0432 3.7973,11.4285 -0.4491,4.4342 -1.8599,9.0088 -3.9065,11.6359 -4.3412,5.5721 -15.1064,7.9886 -11.698,16.9195 8.0119,1.8887 9.9576,-2.7015 13.4079,-6.6847 6.7453,-7.7882 15.0726,-12.4917 19.4054,-22.5176 1.931,-4.468 3.7372,-11.6456 10.7263,-8.8058 6.1123,2.4837 3.672,10.7025 3.9634,16.8245 0.6525,13.7253 18.0289,16.6322 -15.8573,36.6409 -7.1413,4.2165 -22.432,10.4204 -32.8099,9.32 -17.9132,-1.8995 -2.5787,-15.12 -27.9587,-13.5879 -8.8769,0.5358 -8.7205,-2.5151 -15.1324,-5.5927 -5.6634,-2.7182 -7.1122,-7.638 -1.4777,-11.6062 5.9136,-4.1649 12.2839,1.1225 17.0322,-2.3836 2.3899,-1.7649 5.6115,-9.3073 7.8327,-11.7111 -6.3879,-0.6395 -13.8203,-0.4124 -18.8512,2.2158 -7.7321,4.0391 -3.6014,4.7291 -14.6381,7.3446 -8.5981,27.2276 -30.2451,3.9926 -44.011,2.3658"
         style="fill:#778591;fill-opacity:1;fill-rule:evenodd;stroke:none"
         id="path82" />
      <path
         d="m 443.1971,1011.9589 c -5.3008,-4.5831 -7.1455,-5.9063 -7.588,-14.796 -0.2345,-4.7143 -1.16,-5.9553 -6.0897,-3.79 -2.3253,1.0214 -4.7696,3.3591 -6.0242,4.8836 -3.8344,4.6596 -5.6492,11.4786 0.8408,14.9573 8.1728,4.3815 7.5495,-0.927 14.2792,8.2819 0.4521,-5.4249 2.3485,-7.0772 4.5819,-9.5368"
         style="fill:#778591;fill-opacity:1;fill-rule:evenodd;stroke:none"
         id="path84" />
      <g
         id="g86">
        <g
           id="g88">
          <path
             d="m 326.1671,1027.6339 c 6.258,-0.1933 29.1384,4.1808 18.8274,-14.33 -5.6579,-10.1579 -10.3941,-14.5431 -3.7375,-27.39 8.1669,-15.7621 3.528,-17.902 -2.6983,-26.7653 -9.9034,-14.0979 0.3484,-15.3553 8.3416,-22.002 7.4707,-6.2124 16.5327,-26.8789 17.2836,-38.5903 0.5142,-8.0172 -0.233,-9.9445 6.6938,-12.71 32.3427,-12.9138 17.39,-11.4862 35.0033,-21.7278 5.2608,-3.0589 4.4966,-2.9299 7.3259,-6.738 2.2263,-2.9965 1.2489,-2.1217 2.647,-1.8056 0.8282,2.9653 0.8328,7.5945 0.0878,10.8309 -1.8246,7.9251 -8.5476,3.808 -8.9461,14.2662 -0.2356,6.1775 1.0499,5.3025 -1.7359,10.055 -1.253,-0.2355 -15.2643,-10.3345 -23.1738,3.2026 -2.3545,4.0289 -2.5115,9.7313 -0.0275,13.9683 1.1789,2.0109 2.5701,3.0257 3.6765,4.8359 1.3459,2.2022 3.4741,24.9996 23.4181,13.6579 6.7264,-3.8251 5.6399,-10.0712 17.6247,-16.5251 4.517,5.3512 0.2963,15.948 1.8006,22.9552 2.0854,9.7138 6.2124,8.7069 15.681,10.7246 8.4673,1.8042 3.6779,7.9792 10.7549,15.6555 1.2552,1.3614 5.5551,4.191 8.2406,4.968 4.7098,1.3629 7.6765,-0.8003 13.1386,0.9195 2.2938,7.3902 -4.4799,6.9435 -8.896,9.2999 -0.5023,12.1573 20.2218,-0.1519 -10.1265,30.5669 -3.3001,3.3403 -7.759,7.9441 -14.0879,3.2317 -7.0401,-5.2424 0.7606,-27.9859 -16.5744,-16.0528 -4.7262,3.2533 -7.4557,4.2395 -9.7002,10.4845 -2.2907,6.3737 0.4042,11.3456 5.6455,13.0711 6.9437,2.2858 12.2896,0.2775 11.5551,9.0524 -9.8022,5.7368 -22.9699,-0.2931 -32.8459,5.7881 -2.0477,1.2605 -3.2533,2.3683 -5.4138,3.8636 -3.771,2.6096 -3.1845,1.3572 -7.3781,2.755 -5.4073,1.8023 -2.2745,7.3208 -8.2125,11.198 -8.7761,5.7305 -20.8168,-4.254 -28.2991,-7.1487 -6.463,-2.5002 -10.2209,-0.7719 -15.0877,-4.3923 z"
             style="fill:#37b53f;fill-opacity:1;fill-rule:evenodd;stroke:none"
             id="path90" />
          <path
             d="m 451.6206,861.5971 -7.0583,-0.5259 c -5.1242,-15.2333 2.9959,-13.5626 -15.9537,-34.7519 -3.1439,-3.5155 -2.2855,-4.5476 0.1894,-7.6223 7.067,-8.7803 -1.2132,-13.4413 15.0488,-23.8028 12.106,-7.7131 8.3279,0.1448 10.4052,-8.1009 1.91,-7.5818 13.113,0.1007 3.8486,-21.7993 -7.9271,-18.7384 -20.6374,-22.7426 -18.1894,-32.2817 4.7152,-1.3108 14.2742,0.504 19.7847,1.133 14.0355,1.6024 6.2521,4.4651 23.7127,20.6022 12.3976,11.4579 15.6926,11.5735 25.7507,18.5496 4.3104,2.9897 7.8452,7.6657 11.3485,11.1739 10.9687,10.9831 0.7915,16.2961 16.9589,28.0582 3.6428,2.6501 8.8458,5.8195 9.1264,12.5983 0.305,7.3567 -4.2117,10.8453 -8.9986,13.3364 -12.3142,6.4083 -23.5437,-1.239 -31.2485,13.0224 -8.9244,16.518 -10.4426,7.2459 -20.3831,6.3595 -4.7415,-0.4227 -4.3753,2.2127 -6.5123,4.7772 -2.846,3.4155 -9.2484,5.9338 -15.346,7.1827 -10.8062,2.2136 -10.8374,2.0404 -12.484,-7.9086"
             style="fill:#b1dc9a;fill-opacity:1;fill-rule:evenodd;stroke:none"
             id="path92" />
          <path
             d="m 614.586,970.1116 c -5.7115,0.7545 -1.1959,2.6773 -5.4779,1.2271 -8.5011,-2.8789 -12.1,4.5295 -20.1821,-3.9053 -8.6468,-9.0241 -8.4178,-32 -3.06,-44.46 3.5711,-8.3047 1.9321,-5.5315 1.9885,-14.3306 0.0317,-4.9436 9.2656,-22.5507 11.7042,-24.8456 10.7178,0.9861 11.0583,10.9579 19.2912,6.8255 4.5097,-2.2635 2.221,-5.1154 5.1395,-8.8095 1.0452,-1.3224 2.6728,-1.8947 3.8736,-3.1215 2.2493,-2.2989 0.6956,-2.7374 4.3217,-3.6462 l 1.5406,6.4094 c 1.758,28.9069 0.5029,50.0048 -10.0973,78.4074 -1.8947,5.0769 -7.7689,19.6172 -10.5673,22.4799 z"
             style="fill:#b1dc9a;fill-opacity:1;fill-rule:evenodd;stroke:none"
             id="path94" />
          <path
             d="m 396.9317,1051.6048 c -1.9652,-13.7849 15.1705,-0.2174 21.0198,-12.2743 1.3462,-2.7746 1.8368,-4.9402 4.6148,-7.8234 5.0332,-5.2231 7.8803,0.866 15.366,-6.5794 -1.2135,5.7472 -4.3205,3.736 -7.0599,8.6558 -0.9715,1.7448 -1.4247,4.2013 -2.452,5.3581 -2.7337,3.0781 -3.6298,-0.4028 -5.2636,3.3131 4.1473,2.5676 8.3554,-0.3047 9.9796,-3.3029 5.5729,-10.2878 2.916,-3.7313 7.0313,-8.5006 4.4363,-5.1406 0.5372,-19.7155 12.4824,-16.0081 1.8269,3.7012 1.4445,9.1421 -0.2177,13.5142 -3.4546,9.0862 -16.556,11.0404 -14.3269,20.2779 1.0679,4.4249 6.45,6.6121 11.4906,4.8623 5.2716,-1.83 12.3318,-11.4698 17.9546,-17.0104 15.105,-14.8839 10.0616,-15.8111 14.7104,-21.0028 l 4.0575,1.26 c 1.6917,6.24 -0.6806,13.0842 1.9848,19.8335 2.7613,6.9928 6.6059,8.6615 0.8844,15.3388 -7.7896,9.091 -31.2154,22.1502 -45.7795,21.1774 -9.9777,-0.6664 -7.7556,-6.6569 -11.9829,-10.6835 -4.5907,-4.373 -13.1261,-1.9344 -19.7971,-2.734 z"
             style="fill:#37b53f;fill-opacity:1;fill-rule:evenodd;stroke:none"
             id="path96" />
          <path
             d="m 519.6932,1067.1123 -1.0639,-0.5752 c -2.8488,-1.487 -6.6081,-3.164 -4.9589,-8.3395 1.1639,-3.6522 5.5602,-4.8146 8.7644,-6.8417 3.9065,-2.4712 5.2118,-4.9439 8.2591,-7.2513 4.7551,-3.6011 6.5593,0.075 13.2273,-2.0205 2.2478,5.0856 8.1864,4.2091 10.3198,-0.081 2.6949,-5.4179 -1.0299,-9.0239 4.2633,-12.8367 2.215,-1.5957 2.4984,-1.0625 3.4268,-5.0758 0.519,-2.2436 0.9723,-5.1797 0.8855,-7.4106 -0.263,-6.7716 -0.3078,-1.5803 1.1792,-5.9828 0.8385,-2.4831 0.5576,-5.3458 0.6925,-7.9699 l 4.0088,-0.3288 c -0.5828,-13.0986 3.5819,-14.9989 3.8208,-25.3032 2.6858,2.7494 3.6199,15.7182 12.2114,5.2059 0.131,4.6547 -1.3221,6.887 0.005,11.014 2.2099,2.6467 1.8057,0.6868 3.253,2.2575 1.0347,1.1228 0.8598,2.4443 2.0498,4.1768 5.4638,3.4665 7.05,-2.8995 13.6978,-2.0718 0.1636,3.3199 -13.6791,19.9559 -16.6663,22.7701 -2.3312,2.196 -2.7456,3.0498 -4.7508,5.3377 -1.8474,2.1078 -3.1808,3.026 -5.1072,4.9924 -15.5758,15.8986 -37.9239,31.4416 -60.5239,40.6896 1.2838,-2.2473 1.8399,-1.9522 3.0067,-4.3557"
             style="fill:#b1dc9a;fill-opacity:1;fill-rule:evenodd;stroke:none"
             id="path98" />
          <path
             d="m 548.5158,1005.1747 c 8.4892,-6.5089 8.0317,3.7565 13.0805,8.0963 -6.6061,-1.3014 -14.3291,0.5505 -13.0805,-8.0963"
             style="fill:#b1dc9a;fill-opacity:1;fill-rule:evenodd;stroke:none"
             id="path100" />
          <path
             d="m 551.454,1022.8388 c 0.8747,3.8704 -2.9172,7.8914 -6.0571,11.09 -1.6166,1.6466 -0.1021,0.4847 -2.0291,1.5392 -1.2469,-2.6606 -6.561,-8.3877 8.0862,-12.6292"
             style="fill:#b1dc9a;fill-opacity:1;fill-rule:evenodd;stroke:none"
             id="path102" />
        </g>
        <path
           d="m 518.6293,1066.5371 1.0639,0.5752 c -1.1668,2.4035 -1.7229,2.1084 -3.0067,4.3557 22.6,-9.248 44.9481,-24.791 60.5239,-40.6896 1.9264,-1.9664 3.2598,-2.8846 5.1072,-4.9924 2.0052,-2.2879 2.4196,-3.1417 4.7508,-5.3377 2.9872,-2.8142 16.8299,-19.4502 16.6663,-22.7701 -6.6478,-0.8277 -8.234,5.5383 -13.6978,2.0718 -1.19,-1.7325 -1.0151,-3.054 -2.0498,-4.1768 -1.4473,-1.5707 -1.0431,0.3892 -3.253,-2.2575 -1.3269,-4.127 0.1262,-6.3593 -0.005,-11.014 -8.5915,10.5123 -9.5256,-2.4565 -12.2114,-5.2059 -0.2389,10.3043 -4.4036,12.2046 -3.8208,25.3032 l -4.0088,0.3288 c -0.1349,2.6241 0.146,5.4868 -0.6925,7.9699 -1.487,4.4025 -1.4422,-0.7888 -1.1792,5.9828 0.0868,2.2309 -0.3665,5.167 -0.8855,7.4106 -0.9284,4.0133 -1.2118,3.4801 -3.4268,5.0758 -5.2932,3.8128 -1.5684,7.4188 -4.2633,12.8367 -2.1334,4.2896 -8.072,5.1661 -10.3198,0.081 -6.668,2.0956 -8.4722,-1.5806 -13.2273,2.0205 -3.0473,2.3074 -4.3526,4.7801 -8.2591,7.2513 -3.2042,2.0271 -7.6005,3.1895 -8.7644,6.8417 -1.6492,5.1755 2.1101,6.8525 4.9589,8.3395 z"
           style="fill:#37b53f;fill-opacity:1;fill-rule:evenodd;stroke:#7b8793;stroke-width:0.216;stroke-linecap:butt;stroke-linejoin:miter;stroke-miterlimit:2.61313;stroke-dasharray:none;stroke-opacity:1"
           id="path104" />
        <path
           d="m 551.454,1022.8388 c -14.6472,4.2415 -9.3331,9.9686 -8.0862,12.6292 1.927,-1.0545 0.4125,0.1074 2.0291,-1.5392 3.1399,-3.1986 6.9318,-7.2196 6.0571,-11.09"
           style="fill:#37b53f;fill-opacity:1;fill-rule:evenodd;stroke:none"
           id="path106" />
        <path
           d="m 548.5158,1005.1747 c -1.2486,8.6468 6.4744,6.7949 13.0805,8.0963 -5.0488,-4.3398 -4.5913,-14.6052 -13.0805,-8.0963"
           style="fill:#37b53f;fill-opacity:1;fill-rule:evenodd;stroke:none"
           id="path108" />
        <path
           d="m 585.866,922.9734 c -5.3578,12.46 -5.5868,35.4359 3.06,44.46 8.0821,8.4348 11.681,1.0264 20.1821,3.9053 4.282,1.4502 -0.2336,-0.4726 5.4779,-1.2271 l -1.5253,12.2306 c 2.7984,-2.8627 8.6726,-17.403 10.5673,-22.4799 10.6002,-28.4026 11.8553,-49.5005 10.0973,-78.4074 l -1.5406,-6.4094 c -3.6261,0.9088 -2.0724,1.3473 -4.3217,3.6462 -1.2008,1.2268 -2.8284,1.7991 -3.8736,3.1215 -2.9185,3.6941 -0.6298,6.546 -5.1395,8.8095 -8.2329,4.1324 -8.5734,-5.8394 -19.2912,-6.8255 -2.4386,2.2949 -11.6725,19.902 -11.7042,24.8456 -0.0564,8.7991 1.5826,6.0259 -1.9885,14.3306"
           style="fill:#37b53f;fill-opacity:1;fill-rule:evenodd;stroke:none"
           id="path110" />
        <path
           d="m 451.6206,861.5971 c 1.6466,9.949 1.6778,10.1222 12.484,7.9086 6.0976,-1.2489 12.5,-3.7672 15.346,-7.1827 2.137,-2.5645 1.7708,-5.1999 6.5123,-4.7772 9.9405,0.8864 11.4587,10.1585 20.3831,-6.3595 7.7048,-14.2614 18.9343,-6.6141 31.2485,-13.0224 4.7869,-2.4911 9.3036,-5.9797 8.9986,-13.3364 -0.2806,-6.7788 -5.4836,-9.9482 -9.1264,-12.5983 -16.1674,-11.7621 -5.9902,-17.0751 -16.9589,-28.0582 -3.5033,-3.5082 -7.0381,-8.1842 -11.3485,-11.1739 -10.0581,-6.9761 -13.3531,-7.0917 -25.7507,-18.5496 -17.4606,-16.1371 -9.6772,-18.9998 -23.7127,-20.6022 -5.5105,-0.629 -15.0695,-2.4438 -19.7847,-1.133 -2.448,9.5391 10.2623,13.5433 18.1894,32.2817 9.2644,21.9 -1.9386,14.2175 -3.8486,21.7993 -2.0773,8.2457 1.7008,0.3878 -10.4052,8.1009 -16.262,10.3615 -7.9818,15.0225 -15.0488,23.8028 -2.4749,3.0747 -3.3333,4.1068 -0.1894,7.6223 18.9496,21.1893 10.8295,19.5186 15.9537,34.7519 z"
           style="fill:#37b53f;fill-opacity:1;fill-rule:evenodd;stroke:none"
           id="path112" />
      </g>
      <g
         id="g114">
        <path
           d="m 344.6337,1042.092 c 13.7659,1.6268 35.4129,24.8618 44.011,-2.3658 11.0367,-2.6155 6.906,-3.3055 14.6381,-7.3446 5.0309,-2.6282 12.4633,-2.8553 18.8512,-2.2158 -2.2212,2.4038 -5.4428,9.9462 -7.8327,11.7111 -4.7483,3.5061 -11.1186,-1.7813 -17.0322,2.3836 -5.6345,3.9682 -4.1857,8.888 1.4777,11.6062 6.4119,3.0776 6.2555,6.1285 15.1324,5.5927 25.38,-1.5321 10.0455,11.6884 27.9587,13.5879 10.3779,1.1004 25.6686,-5.1035 32.8099,-9.32 33.8862,-20.0087 16.5098,-22.9156 15.8573,-36.6409 -0.2914,-6.122 2.1489,-14.3408 -3.9634,-16.8245 -6.9891,-2.8398 -8.7953,4.3378 -10.7263,8.8058 -4.3328,10.0259 -12.6601,14.7294 -19.4054,22.5176 -3.4503,3.9832 -5.396,8.5734 -13.4079,6.6847 -3.4084,-8.9309 7.3568,-11.3474 11.698,-16.9195 2.0466,-2.6271 3.4574,-7.2017 3.9065,-11.6359 0.6463,-6.3853 -2.1912,-7.6989 -3.7973,-11.4285 3.5824,-1.491 12.7397,-11.5194 15.4179,-14.9845 12.8126,-16.5792 4.5887,-13.4396 1.0709,-19.0754 2.4789,-4.1545 11.5614,-2.9631 8.0875,-13.5272 -7.5401,-3.2874 -11.9089,2.7983 -20.5205,-5.0157 -7.0129,-6.3635 -3.1459,-14.0371 -10.7637,-16.3851 -9.0142,-2.7785 -14.6322,0.1112 -16.164,-11.0162 -1.2881,-9.3566 2.6163,-15.4131 -1.9968,-23.6693 -14.9414,-1.0576 -16.1864,18.5771 -28.6027,19.849 -10.3272,1.0582 -8.3764,-9.8467 -14.7608,-18.4825 -2.4815,-3.3565 -4.0785,-7.8868 -2.2255,-12.5503 1.3425,-3.3792 5.2523,-6.2164 10.131,-6.2422 7.4373,-0.0394 6.4548,5.1307 12.4285,4.5107 3.5042,-3.5135 2.1135,-5.9924 1.9965,-11.4987 -0.1372,-6.4621 1.3711,-6.9829 5.4853,-9.5958 5.6355,-3.5791 4.1252,-16.0498 2.0469,-22.2636 -2.8114,0.9663 -4.7551,8.5277 -12.8047,13.0941 -7.3536,4.1714 -8.4588,5.6165 -14.6616,10.9488 -4.4765,3.848 -10.6078,6.2923 -17.4138,8.2641 -8.1162,2.3513 -10.7019,4.9864 -11.1297,14.3374 -0.5783,12.6518 -8.1859,29.7904 -14.7671,36.6298 -8.5708,8.9073 -24.0239,11.6892 -8.0586,29.5722 14.3535,16.0781 -6.167,22.8733 -1.5562,38.9086 1.8281,6.3584 8.2984,11.6498 9.3472,16.3406 2.0886,9.3382 -10.4065,7.8344 -17.7763,7.7097 -5.8431,-0.099 -9.3541,-5.0488 -14.7302,-11.0631 -4.3271,-4.841 -7.4455,-8.678 -11.6161,-13.9895 -16.1867,-20.6136 -22.6676,-49.6738 -27.2098,-76.1468 -4.9714,-28.9718 8e-4,-61.6335 11.3046,-88.1255 8.9784,-21.0421 20.986,-38.3394 36.2749,-53.8356 18.5298,-18.7809 47.6391,-34.6821 72.4391,-43.3139 17.3747,-6.0475 24.7592,-7.0053 44.8469,-7.4208 -2.016,6.8487 1.0401,10.9462 4.1573,15.1996 3.2363,4.415 6.8213,7.1189 9.5443,12.2046 13.856,25.8789 0.6315,16.1368 -1.3408,29.465 -6.7297,0.6644 -5.656,1.9307 -10.1098,4.6638 -4.763,2.9228 -4.7202,1.8445 -7.8777,6.8653 -3.8302,6.091 -3.9311,11.7663 -6.23,15.5378 -1.1806,1.9369 -2.4954,1.8949 -3.3557,4.4147 -2.1121,6.1863 7.9889,12.2538 10.9021,17.6025 6.1883,11.3622 3.6331,14.2155 6.2164,24.2822 3.1756,1.6908 3.4242,1.3762 7.9908,1.6503 0.5732,11.6555 8.2727,10.0724 18.2223,7.5458 11.3385,-2.8788 12.592,-4.5796 19.0975,-10.4439 9.936,1.3036 14.9505,10.0383 22.5888,-3.7834 5.7458,-10.3975 5.6607,-11.831 20.7589,-13.4266 9.9241,-1.0491 18.3989,-5.3737 20.7513,-13.4379 3.6082,-12.3699 -6.6574,-17.0533 -12.2043,-21.9807 -10.9403,-9.7186 -4.4132,-14.3958 -11.1033,-23.131 -1.4717,-1.9219 -2.6064,-2.5631 -4.2548,-4.2664 -4.8254,-4.9868 -7.1762,-8.5162 -13.659,-11.9676 -12.6774,-6.7496 -30.3965,-22.1806 -36.2735,-33.249 18.8158,2.0018 43.0407,8.9515 59.3305,14.898 35.6902,13.0281 62.2758,34.6558 80.9209,66.5904 7.471,12.7962 18.2413,36.6429 19.3252,54.6508 -5.4433,2.7145 -4.5927,2.8483 -9.1706,6.5328 -5.6716,4.5643 -2.2944,5.5629 -5.9531,10.3337 -5.161,0.466 -6.313,-5.1548 -13.1303,-7.4175 -7.6417,-2.5361 -8.4422,3.3123 -11.4421,8.5003 -2.3269,4.0246 -6.3595,9.9445 -7.734,13.9694 -2.4474,7.1674 1.5222,9.6832 -2.3978,17.7968 -6.3848,13.2154 -7.947,40.6845 6.7229,49.9396 8.0158,5.0573 10.0669,1.3847 17.4949,1.3414 0.7812,1.0865 1.5185,2.9293 2.2473,3.8341 1.9363,2.4029 0.6199,0.3736 3.139,1.5922 0.006,6.6082 -1.6973,11.1357 -5.0779,15.2612 -2.5226,3.0781 -1.7649,0.4635 -6.3905,2.0679 -3.3797,1.1721 -3.8406,2.6027 -8.0662,2.4497 -5.5908,-6.9622 2.3363,-13.8308 -3.1071,-16.7627 -5.2585,2.554 3.0345,5.7994 -2.3303,8.7063 -0.8329,-1.0372 -0.4913,0.1888 -0.7971,-1.7694 -0.5826,-3.7275 3.7516,-12.6204 -3.087,-12.9546 -2.469,4.7798 0.9525,4.1145 -5.1052,6.5532 -1.8278,-4.2897 -2.1892,-10.0676 -8.0215,-7.5688 l -0.4654,1.173 c -0.6772,3.8247 -0.1415,7.8448 -1.5639,11.8043 -1.3728,3.8225 -2.5577,7.4826 -2.556,12.0135 -0.1868,0.0995 -0.4935,0.4093 -0.5904,0.2333 l -3.3288,1.1868 c 0.0528,2.7162 0.7555,5.6393 -0.1193,7.6904 -0.2803,-0.2432 -7.6467,-14.794 -14.2342,-4.6865 -2.3048,3.5368 -0.4989,7.2235 1.7527,8.8452 3.1816,2.2918 6.8029,1.3184 10.1767,3.8206 2.7703,3.8982 -2.1564,10.2827 -4.0808,12.2524 l -2.1889,4.7651 c -0.3989,2.2827 -0.4431,5.0235 -1.0633,7.5243 l -5.0374,0.3608 c -1.7071,-6.4618 2.3519,-8.841 5.6162,-12.2116 1.9914,-2.0566 3.6479,-7.1703 0.743,-9.0712 -1.9726,-1.2906 -14.18,6.1263 -15.0554,8.809 -0.5737,7.0202 4.6395,6.1979 2.6915,11.1883 -5.148,1.1883 -6.5673,-2.9891 -11.2986,1.8953 -3.0291,3.1274 -5.1134,5.2508 -9.28,7.7862 -3.1128,1.8941 -8.1616,4.5036 -9.0536,8.0991 -1.7637,7.1087 2.9542,8.0841 5.993,10.6484 -5.415,7.7017 -30.1533,13.0937 -43.0608,15.9134 -16.6119,3.6289 -37.5154,4.0612 -54.2597,0.7154 -30.602,-6.1146 -48.4035,-23.1596 -70.9849,-39.3593 -0.9371,-0.6721 -1.4698,-0.9388 -2.2569,-1.6308 -1.4035,-1.2336 -1.1804,-1.1404 -1.9803,-2.2127"
           style="fill:#353f9e;fill-opacity:1;fill-rule:evenodd;stroke:none"
           id="path116" />
        <path
           d="m 443.1971,1011.9589 c -2.2334,2.4596 -4.1298,4.1119 -4.5819,9.5368 -6.7297,-9.2089 -6.1064,-3.9004 -14.2792,-8.2819 -6.49,-3.4787 -4.6752,-10.2977 -0.8408,-14.9573 1.2546,-1.5245 3.6989,-3.8622 6.0242,-4.8836 4.9297,-2.1653 5.8552,-0.9243 6.0897,3.79 0.4425,8.8897 2.2872,10.2129 7.588,14.796"
           style="fill:#353f9e;fill-opacity:1;fill-rule:evenodd;stroke:none"
           id="path118" />
      </g>
      <g
         id="g120"
         transform="matrix(1.23244,-0.20767,0.20665,1.22635,0,0)">
        <path
           d="m 174.8055,734.701 c -57.4506,-11.0656 -97.4296,9.8691 -97.2723,9.5701 -5.8235,13.7568 -5.8238,41.2696 -5.9811,41.4193 -0.1573,0.1491 31.6369,-17.4949 106.0864,-11.8129 0.1576,0 -32.3879,-15.5026 -42.6184,-19.6894 -0.7872,0 22.6287,-14.4034 39.7854,-19.4871 z"
           style="fill:none;stroke:#231f20;stroke-width:3.6663;stroke-linecap:round;stroke-linejoin:round;stroke-miterlimit:2.61313;stroke-dasharray:none;stroke-opacity:1"
           id="path122" />
      </g>
      <path
         d="m 367.2612,864.7002 c -73.0907,-1.6393 -118.036,32.3365 -117.9039,31.9371 -4.3345,18.0799 1.351,51.8204 1.1877,52.0367 -0.163,0.2157 35.3752,-28.025 128.3037,-36.5182 0.1942,-0.0326 -43.1195,-12.2853 -56.5934,-15.2955 -0.97,0.1636 24.9123,-22.3628 45.0059,-32.1601"
         style="fill:#918f8f;fill-opacity:1;fill-rule:evenodd;stroke:none"
         id="path124" />
      <g
         id="g126"
         transform="scale(1.13993)">
        <path
           d="m 573.3876,824.6477 c 6.9812,-28.6826 -3.3585,-57.4072 -2.8726,-56.4349 -89.7211,-37.9636 -182.3029,-42.48 -182.1147,-42.7689 0.188,-0.2888 1.3842,-12.2507 6.4681,-23.7979 -17.3469,2.7487 -76.5198,33.2407 -79.0027,34.7836 0.6942,0.2727 53.0702,21.4461 80.714,41.5811 -0.216,0.0771 -5.0009,-16.9684 -9.413,-27.8535 0.0734,-0.4181 122.6696,26.233 186.2209,74.4905 z"
           style="fill:none;stroke:#231f20;stroke-width:4;stroke-linecap:round;stroke-linejoin:round;stroke-miterlimit:2.61313;stroke-dasharray:none;stroke-opacity:1"
           id="path128" />
      </g>
      <path
         d="m 653.6211,940.0397 c 7.958,-32.6963 -3.8285,-65.4401 -3.2746,-64.3318 -102.2757,-43.2756 -207.8124,-48.4242 -207.5978,-48.7536 0.2143,-0.3291 1.5778,-13.9649 7.3732,-27.1278 -19.7742,3.1334 -87.2272,37.8921 -90.0576,39.651 0.7915,0.3107 60.4965,24.4468 92.0084,47.3995 -0.2463,0.0879 -5.7008,-19.343 -10.7303,-31.7511 0.0836,-0.4765 139.8345,29.9035 212.2787,84.9138"
         style="fill:#918f8f;fill-opacity:1;fill-rule:evenodd;stroke:none"
         id="path130" />
      <path
         style="fill:#ff6015;stroke:#ff6015;stroke-width:0.656393"
         d=""
         id="path173"
         transform="matrix(0.75000002,0,0,-0.75000002,152.00766,1313.4949)" />
    </g>
  </g>
</svg>
