<?xml version="1.0" encoding="UTF-8" standalone="no"?>
<svg
   xmlns:dc="http://purl.org/dc/elements/1.1/"
   xmlns:cc="http://creativecommons.org/ns#"
   xmlns:rdf="http://www.w3.org/1999/02/22-rdf-syntax-ns#"
   xmlns:svg="http://www.w3.org/2000/svg"
   xmlns="http://www.w3.org/2000/svg"
   xmlns:sodipodi="http://sodipodi.sourceforge.net/DTD/sodipodi-0.dtd"
   xmlns:inkscape="http://www.inkscape.org/namespaces/inkscape"
   width="145.78659mm"
   height="130.38594mm"
   viewBox="0 0 145.78659 130.38594"
   version="1.1"
   id="svg8"
   inkscape:version="1.0.2 (e86c8708, 2021-01-15)"
   sodipodi:docname="world-logo.svg">
  <defs
     id="defs2" />
  <sodipodi:namedview
     id="base"
     pagecolor="#ffffff"
     bordercolor="#666666"
     borderopacity="1.0"
     inkscape:pageopacity="0.0"
     inkscape:pageshadow="2"
     inkscape:zoom="1.4309102"
     inkscape:cx="289.62412"
     inkscape:cy="327.31704"
     inkscape:document-units="mm"
     inkscape:current-layer="g54"
     inkscape:document-rotation="0"
     showgrid="false"
     inkscape:lockguides="false"
     inkscape:pagecheckerboard="true"
     fit-margin-top="0"
     fit-margin-left="0"
     fit-margin-right="0"
     fit-margin-bottom="0"
     inkscape:window-width="1792"
     inkscape:window-height="991"
     inkscape:window-x="0"
     inkscape:window-y="25"
     inkscape:window-maximized="1" />
  <metadata
     id="metadata5">
    <rdf:RDF>
      <cc:Work
         rdf:about="">
        <dc:format>image/svg+xml</dc:format>
        <dc:type
           rdf:resource="http://purl.org/dc/dcmitype/StillImage" />
        <dc:title></dc:title>
      </cc:Work>
    </rdf:RDF>
  </metadata>
  <g
     inkscape:label="Layer 1"
     inkscape:groupmode="layer"
     id="layer1"
     transform="translate(-32.953898,-77.553827)">
    <g
       id="g54"
       inkscape:label="hoptoad grey"
       transform="matrix(0.35277777,0,0,-0.35277777,-53.624925,463.37179)">
      <g
         id="g56"
         transform="scale(1.13993)">
        <path
           d="m 549.282,831.6179 c 0,0.1491 8.9297,-0.1542 24.3309,-7.1822 -4.6352,-4.0374 -19.834,-11.6011 -20.7368,-12.1541 -0.4484,5.0839 -1.6398,11.4701 -3.5941,19.3363 z"
           style="fill:none;stroke:#231f20;stroke-width:4;stroke-linecap:round;stroke-linejoin:round;stroke-miterlimit:2.61313;stroke-dasharray:none;stroke-opacity:1"
           id="path58" />
      </g>
      <path
         d="m 626.1423,947.9852 c 0,0.17 10.1792,-0.1758 27.7356,-8.1871 -5.2838,-4.6023 -22.6094,-13.2244 -23.6387,-13.8549 -0.511,5.7952 -1.8691,13.0751 -4.0969,22.042"
         style="fill:#918f8f;fill-opacity:1;fill-rule:evenodd;stroke:none"
         id="path60" />
      <g
         id="g62"
         transform="matrix(1.12408,-0.18942,0.18942,1.12408,0,0)">
        <path
           d="m 98.3594,850.5462 c -10.9154,2.0934 -18.9902,6.5792 -19.1398,6.2802 -0.1494,-0.2991 5.5329,6.5795 20.1866,10.7662 0,0 -1.4953,-9.57 -1.0468,-17.0464 z"
           style="fill:none;stroke:#231f20;stroke-width:4;stroke-linecap:round;stroke-linejoin:round;stroke-miterlimit:2.61313;stroke-dasharray:none;stroke-opacity:1"
           id="path64" />
      </g>
      <path
         d="m 271.6705,937.4528 c -11.8732,4.4206 -20.1005,10.9924 -20.3253,10.6846 -0.2245,-0.3079 7.4659,6.3479 24.7309,8.2786 0,0 -3.4937,-10.4743 -4.4056,-18.9632"
         style="fill:#918f8f;fill-opacity:1;fill-rule:evenodd;stroke:none"
         id="path66" />
      <path
         d="m 618.8012,985.375 c 0,0 28.6849,-42.1835 19.9666,-109.3961 C 622.1755,765.4581 538.3712,744.0851 538.3712,744.0851 c 0,0 -57.3695,-26.435 -113.0516,-18.5609 -55.6824,7.8743 -90.8345,38.8224 -97.4347,44.7913 -6.6002,5.9689 -14.7818,13.5131 -19.1829,19.1455 -5.6702,7.257 -6.289,7.1504 -12.0977,15.8678 -10.9157,16.382 -21.6811,38.7689 -25.708,58.9637 -7.8111,39.1717 -4.3132,60.111 5.3439,98.1179 1.8207,7.1651 4.6199,14.1837 7.3729,20.5923 3.1107,7.2408 5.8096,11.8757 9.6318,18.3333 3.4467,5.8232 15.039,20.196 19.1245,23.5999 l 23.084,18.8637 c 46.0633,35.2001 75.7925,60.1634 143.5155,45.6551 12.8518,-2.7533 30.6837,-8.0992 42.1413,-13.7886 9.4535,-4.6944 18.6296,-9.0601 27.6449,-15.0797 19.0358,-12.7097 22.0002,-15.5631 38.1807,-31.7316 11.4987,-11.4903 21.5773,-26.1958 29.8672,-40.0454 z m -1.9982,3.4344 c 8.2899,-13.8495 1.9982,-3.4344 1.9982,-3.4344 z"
         style="fill:#231f20;fill-opacity:1;fill-rule:evenodd;stroke:none"
         id="path76" />
      <path
         d="m 411.6283,1059.2765 c 6.671,0.7996 15.2064,-1.639 19.7971,2.734 4.2273,4.0266 2.0052,10.0171 11.9829,10.6835 14.5641,0.9728 37.9899,-12.0864 45.7795,-21.1774 5.7215,-6.6773 1.8769,-8.346 -0.8844,-15.3388 -2.6654,-6.7493 -0.2931,-13.5935 -1.9848,-19.8335 l -4.0575,-1.26 c -4.6488,5.1917 0.3946,6.1189 -14.7104,21.0028 -5.6228,5.5406 -12.683,15.1804 -17.9546,17.0104 -5.0406,1.7498 -10.4227,-0.4374 -11.4906,-4.8623 -2.2291,-9.2375 10.8723,-11.1917 14.3269,-20.2779 1.6622,-4.3721 2.0446,-9.813 0.2177,-13.5142 -11.9452,-3.7074 -8.0461,10.8675 -12.4824,16.0081 -4.1153,4.7693 -1.4584,-1.7872 -7.0313,8.5006 -1.6242,2.9982 -5.8323,5.8705 -9.9796,3.3029 1.6338,-3.7159 2.5299,-0.235 5.2636,-3.3131 1.0273,-1.1568 1.4805,-3.6133 2.452,-5.3581 2.7394,-4.9198 5.8464,-2.9086 7.0599,-8.6558 -7.4857,7.4454 -10.3328,1.3563 -15.366,6.5794 -2.778,2.8832 -3.2686,5.0488 -4.6148,7.8234 -5.8493,12.0569 -22.985,-1.5106 -21.0198,12.2743 z"
         style="fill:#778591;fill-opacity:1;fill-rule:evenodd;stroke:none"
         id="path78" />
      <path
         d="m 422.6539,1015.6907 c -5.2413,-1.7255 -7.9362,-6.6974 -5.6455,-13.0711 2.2445,-6.245 4.974,-7.2312 9.7002,-10.4845 17.335,-11.9331 9.5343,10.8104 16.5744,16.0528 6.3289,4.7124 10.7878,0.1086 14.0879,-3.2317 30.3483,-30.7188 9.6242,-18.4096 10.1265,-30.5669 4.4161,-2.3564 11.1898,-1.9097 8.896,-9.2999 -5.4621,-1.7198 -8.4288,0.4434 -13.1386,-0.9195 -2.6855,-0.777 -6.9854,-3.6066 -8.2406,-4.968 -7.077,-7.6763 -2.2876,-13.8513 -10.7549,-15.6555 -9.4686,-2.0177 -13.5956,-1.0108 -15.681,-10.7246 -1.5043,-7.0072 2.7164,-17.604 -1.8006,-22.9552 -11.9848,6.4539 -10.8983,12.7 -17.6247,16.5251 -19.944,11.3417 -22.0722,-11.4557 -23.4181,-13.6579 -1.1064,-1.8102 -2.4976,-2.825 -3.6765,-4.8359 -2.484,-4.237 -2.327,-9.9394 0.0275,-13.9683 7.9095,-13.5371 21.9208,-3.4381 23.1738,-3.2026 2.7858,-4.7525 1.5003,-3.8775 1.7359,-10.055 0.3985,-10.4582 7.1215,-6.3411 8.9461,-14.2662 0.745,-3.2364 0.7404,-7.8656 -0.0878,-10.8309 -1.3981,-0.3161 -0.4207,-1.1909 -2.647,1.8056 -2.8293,3.8081 -2.0651,3.6791 -7.3259,6.738 -17.6133,10.2416 -2.6606,8.814 -35.0033,21.7278 -6.9268,2.7655 -6.1796,4.6928 -6.6938,12.71 -0.7509,11.7114 -9.8129,32.3779 -17.2836,38.5903 -7.9932,6.6467 -18.245,7.9041 -8.3416,22.002 6.2263,8.8633 10.8652,11.0032 2.6983,26.7653 -6.6566,12.8469 -1.9204,17.2321 3.7375,27.39 10.311,18.5108 -12.5694,14.1367 -18.8274,14.33 l 10.8048,9.1729 c 4.8668,3.6204 8.6247,1.8921 15.0877,4.3923 7.4823,2.8947 19.523,12.8792 28.2991,7.1487 5.938,-3.8772 2.8052,-9.3957 8.2125,-11.198 4.1936,-1.3978 3.6071,-0.1454 7.3781,-2.755 2.1605,-1.4953 3.3661,-2.6031 5.4138,-3.8636 9.876,-6.0812 23.0437,-0.051 32.8459,-5.7881 0.7345,-8.7749 -4.6114,-6.7666 -11.5551,-9.0524"
         style="fill:#778591;fill-opacity:1;fill-rule:evenodd;stroke:none"
         id="path80" />
      <path
         d="m 344.6337,1042.092 c 0.7999,1.0723 0.5768,0.9791 1.9803,2.2127 0.7871,0.692 1.3198,0.9587 2.2569,1.6308 22.5814,16.1997 40.3829,33.2447 70.9849,39.3593 16.7443,3.3458 37.6478,2.9135 54.2597,-0.7154 12.9075,-2.8197 37.6458,-8.2117 43.0608,-15.9134 -3.0388,-2.5643 -7.7567,-3.5397 -5.993,-10.6484 0.892,-3.5955 5.9408,-6.205 9.0536,-8.0991 4.1666,-2.5354 6.2509,-4.6588 9.28,-7.7862 4.7313,-4.8844 6.1506,-0.707 11.2986,-1.8953 1.948,-4.9904 -3.2652,-4.1681 -2.6915,-11.1883 0.8754,-2.6827 13.0828,-10.0996 15.0554,-8.809 2.9049,1.9009 1.2484,7.0146 -0.743,9.0712 -3.2643,3.3706 -7.3233,5.7498 -5.6162,12.2116 l 5.0374,-0.3608 c 0.6202,-2.5008 0.6644,-5.2416 1.0633,-7.5243 l 2.1889,-4.7651 c 1.9244,-1.9697 6.8511,-8.3542 4.0808,-12.2524 -3.3738,-2.5022 -6.9951,-1.5288 -10.1767,-3.8206 -2.2516,-1.6217 -4.0575,-5.3084 -1.7527,-8.8452 6.5875,-10.1075 13.9539,4.4433 14.2342,4.6865 0.8748,-2.0511 0.1721,-4.9742 0.1193,-7.6904 l 3.3288,-1.1868 c 0.0969,0.176 0.4036,-0.1338 0.5904,-0.2333 -0.002,-4.5309 1.1832,-8.191 2.556,-12.0135 1.4224,-3.9595 0.8867,-7.9796 1.5639,-11.8043 l 0.4654,-1.173 c 5.8323,-2.4988 6.1937,3.2791 8.0215,7.5688 6.0577,-2.4387 2.6362,-1.7734 5.1052,-6.5532 6.8386,0.3342 2.5044,9.2271 3.087,12.9546 0.3058,1.9582 -0.0358,0.7322 0.7971,1.7694 5.3648,-2.9069 -2.9282,-6.1523 2.3303,-8.7063 5.4434,2.9319 -2.4837,9.8005 3.1071,16.7627 4.2256,0.153 4.6865,-1.2776 8.0662,-2.4497 4.6256,-1.6044 3.8679,1.0102 6.3905,-2.0679 3.3806,-4.1255 5.0842,-8.653 5.0779,-15.2612 -2.5191,-1.2186 -1.2027,0.8107 -3.139,-1.5922 -0.7288,-0.9048 -1.4661,-2.7476 -2.2473,-3.8341 -7.428,0.0433 -9.4791,3.7159 -17.4949,-1.3414 -14.6699,-9.2551 -13.1077,-36.7242 -6.7229,-49.9396 3.92,-8.1136 -0.0496,-10.6294 2.3978,-17.7968 1.3745,-4.0249 5.4071,-9.9448 7.734,-13.9694 2.9999,-5.188 3.8004,-11.0364 11.4421,-8.5003 6.8173,2.2627 7.9693,7.8835 13.1303,7.4175 3.6587,-4.7708 0.2815,-5.7694 5.9531,-10.3337 4.5779,-3.6845 3.7273,-3.8183 9.1706,-6.5328 -1.0839,-18.0079 -11.8542,-41.8546 -19.3252,-54.6508 -18.6451,-31.9346 -45.2307,-53.5623 -80.9209,-66.5904 -16.2898,-5.9465 -40.5147,-12.8962 -59.3305,-14.898 5.877,11.0684 23.5961,26.4994 36.2735,33.249 6.4828,3.4514 8.8336,6.9808 13.659,11.9676 1.6484,1.7033 2.7831,2.3445 4.2548,4.2664 6.6901,8.7352 0.163,13.4124 11.1033,23.131 5.5469,4.9274 15.8125,9.6108 12.2043,21.9807 -2.3524,8.0642 -10.8272,12.3888 -20.7513,13.4379 -15.0982,1.5956 -15.0131,3.0291 -20.7589,13.4266 -7.6383,13.8217 -12.6528,5.087 -22.5888,3.7834 -6.5055,5.8643 -7.759,7.5651 -19.0975,10.4439 -9.9496,2.5266 -17.6491,4.1097 -18.2223,-7.5458 -4.5666,-0.2741 -4.8152,0.0405 -7.9908,-1.6503 -2.5833,-10.0667 -0.0281,-12.92 -6.2164,-24.2822 -2.9132,-5.3487 -13.0142,-11.4162 -10.9021,-17.6025 0.8603,-2.5198 2.1751,-2.4778 3.3557,-4.4147 2.2989,-3.7715 2.3998,-9.4468 6.23,-15.5378 3.1575,-5.0208 3.1147,-3.9425 7.8777,-6.8653 4.4538,-2.7331 3.3801,-3.9994 10.1098,-4.6638 1.9723,-13.3282 15.1968,-3.5861 1.3408,-29.465 -2.723,-5.0857 -6.308,-7.7896 -9.5443,-12.2046 -3.1172,-4.2534 -6.1733,-8.3509 -4.1573,-15.1996 -20.0877,0.4155 -27.4722,1.3733 -44.8469,7.4208 -24.8,8.6318 -53.9093,24.533 -72.4391,43.3139 -15.2889,15.4962 -27.2965,32.7935 -36.2749,53.8356 -11.3038,26.492 -16.276,59.1537 -11.3046,88.1255 4.5422,26.473 11.0231,55.5332 27.2098,76.1468 4.1706,5.3115 7.289,9.1485 11.6161,13.9895 5.3761,6.0143 8.8871,10.9639 14.7302,11.0631 7.3698,0.1247 19.8649,1.6285 17.7763,-7.7097 -1.0488,-4.6908 -7.5191,-9.9822 -9.3472,-16.3406 -4.6108,-16.0353 15.9097,-22.8305 1.5562,-38.9086 -15.9653,-17.883 -0.5122,-20.6649 8.0586,-29.5722 6.5812,-6.8394 14.1888,-23.978 14.7671,-36.6298 0.4278,-9.351 3.0135,-11.9861 11.1297,-14.3374 6.806,-1.9718 12.9373,-4.4161 17.4138,-8.2641 6.2028,-5.3323 7.308,-6.7774 14.6616,-10.9488 8.0496,-4.5664 9.9933,-12.1278 12.8047,-13.0941 2.0783,6.2138 3.5886,18.6845 -2.0469,22.2636 -4.1142,2.6129 -5.6225,3.1337 -5.4853,9.5958 0.117,5.5063 1.5077,7.9852 -1.9965,11.4987 -5.9737,0.62 -4.9912,-4.5501 -12.4285,-4.5107 -4.8787,0.0258 -8.7885,2.863 -10.131,6.2422 -1.853,4.6635 -0.256,9.1938 2.2255,12.5503 6.3844,8.6358 4.4336,19.5407 14.7608,18.4825 12.4163,-1.2719 13.6613,-20.9066 28.6027,-19.849 4.6131,8.2562 0.7087,14.3127 1.9968,23.6693 1.5318,11.1274 7.1498,8.2377 16.164,11.0162 7.6178,2.348 3.7508,10.0216 10.7637,16.3851 8.6116,7.814 12.9804,1.7283 20.5205,5.0157 3.4739,10.5641 -5.6086,9.3727 -8.0875,13.5272 3.5178,5.6358 11.7417,2.4962 -1.0709,19.0754 -2.6782,3.4651 -11.8355,13.4935 -15.4179,14.9845 1.6061,3.7296 4.4436,5.0432 3.7973,11.4285 -0.4491,4.4342 -1.8599,9.0088 -3.9065,11.6359 -4.3412,5.5721 -15.1064,7.9886 -11.698,16.9195 8.0119,1.8887 9.9576,-2.7015 13.4079,-6.6847 6.7453,-7.7882 15.0726,-12.4917 19.4054,-22.5176 1.931,-4.468 3.7372,-11.6456 10.7263,-8.8058 6.1123,2.4837 3.672,10.7025 3.9634,16.8245 0.6525,13.7253 18.0289,16.6322 -15.8573,36.6409 -7.1413,4.2165 -22.432,10.4204 -32.8099,9.32 -17.9132,-1.8995 -2.5787,-15.12 -27.9587,-13.5879 -8.8769,0.5358 -8.7205,-2.5151 -15.1324,-5.5927 -5.6634,-2.7182 -7.1122,-7.638 -1.4777,-11.6062 5.9136,-4.1649 12.2839,1.1225 17.0322,-2.3836 2.3899,-1.7649 5.6115,-9.3073 7.8327,-11.7111 -6.3879,-0.6395 -13.8203,-0.4124 -18.8512,2.2158 -7.7321,4.0391 -3.6014,4.7291 -14.6381,7.3446 -8.5981,27.2276 -30.2451,3.9926 -44.011,2.3658"
         style="fill:#778591;fill-opacity:1;fill-rule:evenodd;stroke:none"
         id="path82" />
      <path
         d="m 443.1971,1011.9589 c -5.3008,-4.5831 -7.1455,-5.9063 -7.588,-14.796 -0.2345,-4.7143 -1.16,-5.9553 -6.0897,-3.79 -2.3253,1.0214 -4.7696,3.3591 -6.0242,4.8836 -3.8344,4.6596 -5.6492,11.4786 0.8408,14.9573 8.1728,4.3815 7.5495,-0.927 14.2792,8.2819 0.4521,-5.4249 2.3485,-7.0772 4.5819,-9.5368"
         style="fill:#778591;fill-opacity:1;fill-rule:evenodd;stroke:none"
         id="path84" />
      <g
         id="g86">
        <g
           id="g88">
          <path
             d="m 326.1671,1027.6339 c 6.258,-0.1933 29.1384,4.1808 18.8274,-14.33 -5.6579,-10.1579 -10.3941,-14.5431 -3.7375,-27.39 8.1669,-15.7621 3.528,-17.902 -2.6983,-26.7653 -9.9034,-14.0979 0.3484,-15.3553 8.3416,-22.002 7.4707,-6.2124 16.5327,-26.8789 17.2836,-38.5903 0.5142,-8.0172 -0.233,-9.9445 6.6938,-12.71 32.3427,-12.9138 17.39,-11.4862 35.0033,-21.7278 5.2608,-3.0589 4.4966,-2.9299 7.3259,-6.738 2.2263,-2.9965 1.2489,-2.1217 2.647,-1.8056 0.8282,2.9653 0.8328,7.5945 0.0878,10.8309 -1.8246,7.9251 -8.5476,3.808 -8.9461,14.2662 -0.2356,6.1775 1.0499,5.3025 -1.7359,10.055 -1.253,-0.2355 -15.2643,-10.3345 -23.1738,3.2026 -2.3545,4.0289 -2.5115,9.7313 -0.0275,13.9683 1.1789,2.0109 2.5701,3.0257 3.6765,4.8359 1.3459,2.2022 3.4741,24.9996 23.4181,13.6579 6.7264,-3.8251 5.6399,-10.0712 17.6247,-16.5251 4.517,5.3512 0.2963,15.948 1.8006,22.9552 2.0854,9.7138 6.2124,8.7069 15.681,10.7246 8.4673,1.8042 3.6779,7.9792 10.7549,15.6555 1.2552,1.3614 5.5551,4.191 8.2406,4.968 4.7098,1.3629 7.6765,-0.8003 13.1386,0.9195 2.2938,7.3902 -4.4799,6.9435 -8.896,9.2999 -0.5023,12.1573 20.2218,-0.1519 -10.1265,30.5669 -3.3001,3.3403 -7.759,7.9441 -14.0879,3.2317 -7.0401,-5.2424 0.7606,-27.9859 -16.5744,-16.0528 -4.7262,3.2533 -7.4557,4.2395 -9.7002,10.4845 -2.2907,6.3737 0.4042,11.3456 5.6455,13.0711 6.9437,2.2858 12.2896,0.2775 11.5551,9.0524 -9.8022,5.7368 -22.9699,-0.2931 -32.8459,5.7881 -2.0477,1.2605 -3.2533,2.3683 -5.4138,3.8636 -3.771,2.6096 -3.1845,1.3572 -7.3781,2.755 -5.4073,1.8023 -2.2745,7.3208 -8.2125,11.198 -8.7761,5.7305 -20.8168,-4.254 -28.2991,-7.1487 -6.463,-2.5002 -10.2209,-0.7719 -15.0877,-4.3923 z"
             style="fill:#37b53f;fill-opacity:1;fill-rule:evenodd;stroke:none"
             id="path90" />
          <path
             d="m 451.6206,861.5971 -7.0583,-0.5259 c -5.1242,-15.2333 2.9959,-13.5626 -15.9537,-34.7519 -3.1439,-3.5155 -2.2855,-4.5476 0.1894,-7.6223 7.067,-8.7803 -1.2132,-13.4413 15.0488,-23.8028 12.106,-7.7131 8.3279,0.1448 10.4052,-8.1009 1.91,-7.5818 13.113,0.1007 3.8486,-21.7993 -7.9271,-18.7384 -20.6374,-22.7426 -18.1894,-32.2817 4.7152,-1.3108 14.2742,0.504 19.7847,1.133 14.0355,1.6024 6.2521,4.4651 23.7127,20.6022 12.3976,11.4579 15.6926,11.5735 25.7507,18.5496 4.3104,2.9897 7.8452,7.6657 11.3485,11.1739 10.9687,10.9831 0.7915,16.2961 16.9589,28.0582 3.6428,2.6501 8.8458,5.8195 9.1264,12.5983 0.305,7.3567 -4.2117,10.8453 -8.9986,13.3364 -12.3142,6.4083 -23.5437,-1.239 -31.2485,13.0224 -8.9244,16.518 -10.4426,7.2459 -20.3831,6.3595 -4.7415,-0.4227 -4.3753,2.2127 -6.5123,4.7772 -2.846,3.4155 -9.2484,5.9338 -15.346,7.1827 -10.8062,2.2136 -10.8374,2.0404 -12.484,-7.9086"
             style="fill:#b1dc9a;fill-opacity:1;fill-rule:evenodd;stroke:none"
             id="path92" />
          <path
             d="m 614.586,970.1116 c -5.7115,0.7545 -1.1959,2.6773 -5.4779,1.2271 -8.5011,-2.8789 -12.1,4.5295 -20.1821,-3.9053 -8.6468,-9.0241 -8.4178,-32 -3.06,-44.46 3.5711,-8.3047 1.9321,-5.5315 1.9885,-14.3306 0.0317,-4.9436 9.2656,-22.5507 11.7042,-24.8456 10.7178,0.9861 11.0583,10.9579 19.2912,6.8255 4.5097,-2.2635 2.221,-5.1154 5.1395,-8.8095 1.0452,-1.3224 2.6728,-1.8947 3.8736,-3.1215 2.2493,-2.2989 0.6956,-2.7374 4.3217,-3.6462 l 1.5406,6.4094 c 1.758,28.9069 0.5029,50.0048 -10.0973,78.4074 -1.8947,5.0769 -7.7689,19.6172 -10.5673,22.4799 z"
             style="fill:#b1dc9a;fill-opacity:1;fill-rule:evenodd;stroke:none"
             id="path94" />
          <path
             d="m 396.9317,1051.6048 c -1.9652,-13.7849 15.1705,-0.2174 21.0198,-12.2743 1.3462,-2.7746 1.8368,-4.9402 4.6148,-7.8234 5.0332,-5.2231 7.8803,0.866 15.366,-6.5794 -1.2135,5.7472 -4.3205,3.736 -7.0599,8.6558 -0.9715,1.7448 -1.4247,4.2013 -2.452,5.3581 -2.7337,3.0781 -3.6298,-0.4028 -5.2636,3.3131 4.1473,2.5676 8.3554,-0.3047 9.9796,-3.3029 5.5729,-10.2878 2.916,-3.7313 7.0313,-8.5006 4.4363,-5.1406 0.5372,-19.7155 12.4824,-16.0081 1.8269,3.7012 1.4445,9.1421 -0.2177,13.5142 -3.4546,9.0862 -16.556,11.0404 -14.3269,20.2779 1.0679,4.4249 6.45,6.6121 11.4906,4.8623 5.2716,-1.83 12.3318,-11.4698 17.9546,-17.0104 15.105,-14.8839 10.0616,-15.8111 14.7104,-21.0028 l 4.0575,1.26 c 1.6917,6.24 -0.6806,13.0842 1.9848,19.8335 2.7613,6.9928 6.6059,8.6615 0.8844,15.3388 -7.7896,9.091 -31.2154,22.1502 -45.7795,21.1774 -9.9777,-0.6664 -7.7556,-6.6569 -11.9829,-10.6835 -4.5907,-4.373 -13.1261,-1.9344 -19.7971,-2.734 z"
             style="fill:#37b53f;fill-opacity:1;fill-rule:evenodd;stroke:none"
             id="path96" />
          <path
             d="m 519.6932,1067.1123 -1.0639,-0.5752 c -2.8488,-1.487 -6.6081,-3.164 -4.9589,-8.3395 1.1639,-3.6522 5.5602,-4.8146 8.7644,-6.8417 3.9065,-2.4712 5.2118,-4.9439 8.2591,-7.2513 4.7551,-3.6011 6.5593,0.075 13.2273,-2.0205 2.2478,5.0856 8.1864,4.2091 10.3198,-0.081 2.6949,-5.4179 -1.0299,-9.0239 4.2633,-12.8367 2.215,-1.5957 2.4984,-1.0625 3.4268,-5.0758 0.519,-2.2436 0.9723,-5.1797 0.8855,-7.4106 -0.263,-6.7716 -0.3078,-1.5803 1.1792,-5.9828 0.8385,-2.4831 0.5576,-5.3458 0.6925,-7.9699 l 4.0088,-0.3288 c -0.5828,-13.0986 3.5819,-14.9989 3.8208,-25.3032 2.6858,2.7494 3.6199,15.7182 12.2114,5.2059 0.131,4.6547 -1.3221,6.887 0.005,11.014 2.2099,2.6467 1.8057,0.6868 3.253,2.2575 1.0347,1.1228 0.8598,2.4443 2.0498,4.1768 5.4638,3.4665 7.05,-2.8995 13.6978,-2.0718 0.1636,3.3199 -13.6791,19.9559 -16.6663,22.7701 -2.3312,2.196 -2.7456,3.0498 -4.7508,5.3377 -1.8474,2.1078 -3.1808,3.026 -5.1072,4.9924 -15.5758,15.8986 -37.9239,31.4416 -60.5239,40.6896 1.2838,-2.2473 1.8399,-1.9522 3.0067,-4.3557"
             style="fill:#b1dc9a;fill-opacity:1;fill-rule:evenodd;stroke:none"
             id="path98" />
          <path
             d="m 548.5158,1005.1747 c 8.4892,-6.5089 8.0317,3.7565 13.0805,8.0963 -6.6061,-1.3014 -14.3291,0.5505 -13.0805,-8.0963"
             style="fill:#b1dc9a;fill-opacity:1;fill-rule:evenodd;stroke:none"
             id="path100" />
          <path
             d="m 551.454,1022.8388 c 0.8747,3.8704 -2.9172,7.8914 -6.0571,11.09 -1.6166,1.6466 -0.1021,0.4847 -2.0291,1.5392 -1.2469,-2.6606 -6.561,-8.3877 8.0862,-12.6292"
             style="fill:#b1dc9a;fill-opacity:1;fill-rule:evenodd;stroke:none"
             id="path102" />
        </g>
        <path
           d="m 518.6293,1066.5371 1.0639,0.5752 c -1.1668,2.4035 -1.7229,2.1084 -3.0067,4.3557 22.6,-9.248 44.9481,-24.791 60.5239,-40.6896 1.9264,-1.9664 3.2598,-2.8846 5.1072,-4.9924 2.0052,-2.2879 2.4196,-3.1417 4.7508,-5.3377 2.9872,-2.8142 16.8299,-19.4502 16.6663,-22.7701 -6.6478,-0.8277 -8.234,5.5383 -13.6978,2.0718 -1.19,-1.7325 -1.0151,-3.054 -2.0498,-4.1768 -1.4473,-1.5707 -1.0431,0.3892 -3.253,-2.2575 -1.3269,-4.127 0.1262,-6.3593 -0.005,-11.014 -8.5915,10.5123 -9.5256,-2.4565 -12.2114,-5.2059 -0.2389,10.3043 -4.4036,12.2046 -3.8208,25.3032 l -4.0088,0.3288 c -0.1349,2.6241 0.146,5.4868 -0.6925,7.9699 -1.487,4.4025 -1.4422,-0.7888 -1.1792,5.9828 0.0868,2.2309 -0.3665,5.167 -0.8855,7.4106 -0.9284,4.0133 -1.2118,3.4801 -3.4268,5.0758 -5.2932,3.8128 -1.5684,7.4188 -4.2633,12.8367 -2.1334,4.2896 -8.072,5.1661 -10.3198,0.081 -6.668,2.0956 -8.4722,-1.5806 -13.2273,2.0205 -3.0473,2.3074 -4.3526,4.7801 -8.2591,7.2513 -3.2042,2.0271 -7.6005,3.1895 -8.7644,6.8417 -1.6492,5.1755 2.1101,6.8525 4.9589,8.3395 z"
           style="fill:#37b53f;fill-opacity:1;fill-rule:evenodd;stroke:#7b8793;stroke-width:0.216;stroke-linecap:butt;stroke-linejoin:miter;stroke-miterlimit:2.61313;stroke-dasharray:none;stroke-opacity:1"
           id="path104" />
        <path
           d="m 551.454,1022.8388 c -14.6472,4.2415 -9.3331,9.9686 -8.0862,12.6292 1.927,-1.0545 0.4125,0.1074 2.0291,-1.5392 3.1399,-3.1986 6.9318,-7.2196 6.0571,-11.09"
           style="fill:#37b53f;fill-opacity:1;fill-rule:evenodd;stroke:none"
           id="path106" />
        <path
           d="m 548.5158,1005.1747 c -1.2486,8.6468 6.4744,6.7949 13.0805,8.0963 -5.0488,-4.3398 -4.5913,-14.6052 -13.0805,-8.0963"
           style="fill:#37b53f;fill-opacity:1;fill-rule:evenodd;stroke:none"
           id="path108" />
        <path
           d="m 585.866,922.9734 c -5.3578,12.46 -5.5868,35.4359 3.06,44.46 8.0821,8.4348 11.681,1.0264 20.1821,3.9053 4.282,1.4502 -0.2336,-0.4726 5.4779,-1.2271 l -1.5253,12.2306 c 2.7984,-2.8627 8.6726,-17.403 10.5673,-22.4799 10.6002,-28.4026 11.8553,-49.5005 10.0973,-78.4074 l -1.5406,-6.4094 c -3.6261,0.9088 -2.0724,1.3473 -4.3217,3.6462 -1.2008,1.2268 -2.8284,1.7991 -3.8736,3.1215 -2.9185,3.6941 -0.6298,6.546 -5.1395,8.8095 -8.2329,4.1324 -8.5734,-5.8394 -19.2912,-6.8255 -2.4386,2.2949 -11.6725,19.902 -11.7042,24.8456 -0.0564,8.7991 1.5826,6.0259 -1.9885,14.3306"
           style="fill:#37b53f;fill-opacity:1;fill-rule:evenodd;stroke:none"
           id="path110" />
        <path
           d="m 451.6206,861.5971 c 1.6466,9.949 1.6778,10.1222 12.484,7.9086 6.0976,-1.2489 12.5,-3.7672 15.346,-7.1827 2.137,-2.5645 1.7708,-5.1999 6.5123,-4.7772 9.9405,0.8864 11.4587,10.1585 20.3831,-6.3595 7.7048,-14.2614 18.9343,-6.6141 31.2485,-13.0224 4.7869,-2.4911 9.3036,-5.9797 8.9986,-13.3364 -0.2806,-6.7788 -5.4836,-9.9482 -9.1264,-12.5983 -16.1674,-11.7621 -5.9902,-17.0751 -16.9589,-28.0582 -3.5033,-3.5082 -7.0381,-8.1842 -11.3485,-11.1739 -10.0581,-6.9761 -13.3531,-7.0917 -25.7507,-18.5496 -17.4606,-16.1371 -9.6772,-18.9998 -23.7127,-20.6022 -5.5105,-0.629 -15.0695,-2.4438 -19.7847,-1.133 -2.448,9.5391 10.2623,13.5433 18.1894,32.2817 9.2644,21.9 -1.9386,14.2175 -3.8486,21.7993 -2.0773,8.2457 1.7008,0.3878 -10.4052,8.1009 -16.262,10.3615 -7.9818,15.0225 -15.0488,23.8028 -2.4749,3.0747 -3.3333,4.1068 -0.1894,7.6223 18.9496,21.1893 10.8295,19.5186 15.9537,34.7519 z"
           style="fill:#37b53f;fill-opacity:1;fill-rule:evenodd;stroke:none"
           id="path112" />
      </g>
      <g
         id="g114">
        <path
           d="m 344.6337,1042.092 c 13.7659,1.6268 35.4129,24.8618 44.011,-2.3658 11.0367,-2.6155 6.906,-3.3055 14.6381,-7.3446 5.0309,-2.6282 12.4633,-2.8553 18.8512,-2.2158 -2.2212,2.4038 -5.4428,9.9462 -7.8327,11.7111 -4.7483,3.5061 -11.1186,-1.7813 -17.0322,2.3836 -5.6345,3.9682 -4.1857,8.888 1.4777,11.6062 6.4119,3.0776 6.2555,6.1285 15.1324,5.5927 25.38,-1.5321 10.0455,11.6884 27.9587,13.5879 10.3779,1.1004 25.6686,-5.1035 32.8099,-9.32 33.8862,-20.0087 16.5098,-22.9156 15.8573,-36.6409 -0.2914,-6.122 2.1489,-14.3408 -3.9634,-16.8245 -6.9891,-2.8398 -8.7953,4.3378 -10.7263,8.8058 -4.3328,10.0259 -12.6601,14.7294 -19.4054,22.5176 -3.4503,3.9832 -5.396,8.5734 -13.4079,6.6847 -3.4084,-8.9309 7.3568,-11.3474 11.698,-16.9195 2.0466,-2.6271 3.4574,-7.2017 3.9065,-11.6359 0.6463,-6.3853 -2.1912,-7.6989 -3.7973,-11.4285 3.5824,-1.491 12.7397,-11.5194 15.4179,-14.9845 12.8126,-16.5792 4.5887,-13.4396 1.0709,-19.0754 2.4789,-4.1545 11.5614,-2.9631 8.0875,-13.5272 -7.5401,-3.2874 -11.9089,2.7983 -20.5205,-5.0157 -7.0129,-6.3635 -3.1459,-14.0371 -10.7637,-16.3851 -9.0142,-2.7785 -14.6322,0.1112 -16.164,-11.0162 -1.2881,-9.3566 2.6163,-15.4131 -1.9968,-23.6693 -14.9414,-1.0576 -16.1864,18.5771 -28.6027,19.849 -10.3272,1.0582 -8.3764,-9.8467 -14.7608,-18.4825 -2.4815,-3.3565 -4.0785,-7.8868 -2.2255,-12.5503 1.3425,-3.3792 5.2523,-6.2164 10.131,-6.2422 7.4373,-0.0394 6.4548,5.1307 12.4285,4.5107 3.5042,-3.5135 2.1135,-5.9924 1.9965,-11.4987 -0.1372,-6.4621 1.3711,-6.9829 5.4853,-9.5958 5.6355,-3.5791 4.1252,-16.0498 2.0469,-22.2636 -2.8114,0.9663 -4.7551,8.5277 -12.8047,13.0941 -7.3536,4.1714 -8.4588,5.6165 -14.6616,10.9488 -4.4765,3.848 -10.6078,6.2923 -17.4138,8.2641 -8.1162,2.3513 -10.7019,4.9864 -11.1297,14.3374 -0.5783,12.6518 -8.1859,29.7904 -14.7671,36.6298 -8.5708,8.9073 -24.0239,11.6892 -8.0586,29.5722 14.3535,16.0781 -6.167,22.8733 -1.5562,38.9086 1.8281,6.3584 8.2984,11.6498 9.3472,16.3406 2.0886,9.3382 -10.4065,7.8344 -17.7763,7.7097 -5.8431,-0.099 -9.3541,-5.0488 -14.7302,-11.0631 -4.3271,-4.841 -7.4455,-8.678 -11.6161,-13.9895 -16.1867,-20.6136 -22.6676,-49.6738 -27.2098,-76.1468 -4.9714,-28.9718 8e-4,-61.6335 11.3046,-88.1255 8.9784,-21.0421 20.986,-38.3394 36.2749,-53.8356 18.5298,-18.7809 47.6391,-34.6821 72.4391,-43.3139 17.3747,-6.0475 24.7592,-7.0053 44.8469,-7.4208 -2.016,6.8487 1.0401,10.9462 4.1573,15.1996 3.2363,4.415 6.8213,7.1189 9.5443,12.2046 13.856,25.8789 0.6315,16.1368 -1.3408,29.465 -6.7297,0.6644 -5.656,1.9307 -10.1098,4.6638 -4.763,2.9228 -4.7202,1.8445 -7.8777,6.8653 -3.8302,6.091 -3.9311,11.7663 -6.23,15.5378 -1.1806,1.9369 -2.4954,1.8949 -3.3557,4.4147 -2.1121,6.1863 7.9889,12.2538 10.9021,17.6025 6.1883,11.3622 3.6331,14.2155 6.2164,24.2822 3.1756,1.6908 3.4242,1.3762 7.9908,1.6503 0.5732,11.6555 8.2727,10.0724 18.2223,7.5458 11.3385,-2.8788 12.592,-4.5796 19.0975,-10.4439 9.936,1.3036 14.9505,10.0383 22.5888,-3.7834 5.7458,-10.3975 5.6607,-11.831 20.7589,-13.4266 9.9241,-1.0491 18.3989,-5.3737 20.7513,-13.4379 3.6082,-12.3699 -6.6574,-17.0533 -12.2043,-21.9807 -10.9403,-9.7186 -4.4132,-14.3958 -11.1033,-23.131 -1.4717,-1.9219 -2.6064,-2.5631 -4.2548,-4.2664 -4.8254,-4.9868 -7.1762,-8.5162 -13.659,-11.9676 -12.6774,-6.7496 -30.3965,-22.1806 -36.2735,-33.249 18.8158,2.0018 43.0407,8.9515 59.3305,14.898 35.6902,13.0281 62.2758,34.6558 80.9209,66.5904 7.471,12.7962 18.2413,36.6429 19.3252,54.6508 -5.4433,2.7145 -4.5927,2.8483 -9.1706,6.5328 -5.6716,4.5643 -2.2944,5.5629 -5.9531,10.3337 -5.161,0.466 -6.313,-5.1548 -13.1303,-7.4175 -7.6417,-2.5361 -8.4422,3.3123 -11.4421,8.5003 -2.3269,4.0246 -6.3595,9.9445 -7.734,13.9694 -2.4474,7.1674 1.5222,9.6832 -2.3978,17.7968 -6.3848,13.2154 -7.947,40.6845 6.7229,49.9396 8.0158,5.0573 10.0669,1.3847 17.4949,1.3414 0.7812,1.0865 1.5185,2.9293 2.2473,3.8341 1.9363,2.4029 0.6199,0.3736 3.139,1.5922 0.006,6.6082 -1.6973,11.1357 -5.0779,15.2612 -2.5226,3.0781 -1.7649,0.4635 -6.3905,2.0679 -3.3797,1.1721 -3.8406,2.6027 -8.0662,2.4497 -5.5908,-6.9622 2.3363,-13.8308 -3.1071,-16.7627 -5.2585,2.554 3.0345,5.7994 -2.3303,8.7063 -0.8329,-1.0372 -0.4913,0.1888 -0.7971,-1.7694 -0.5826,-3.7275 3.7516,-12.6204 -3.087,-12.9546 -2.469,4.7798 0.9525,4.1145 -5.1052,6.5532 -1.8278,-4.2897 -2.1892,-10.0676 -8.0215,-7.5688 l -0.4654,1.173 c -0.6772,3.8247 -0.1415,7.8448 -1.5639,11.8043 -1.3728,3.8225 -2.5577,7.4826 -2.556,12.0135 -0.1868,0.0995 -0.4935,0.4093 -0.5904,0.2333 l -3.3288,1.1868 c 0.0528,2.7162 0.7555,5.6393 -0.1193,7.6904 -0.2803,-0.2432 -7.6467,-14.794 -14.2342,-4.6865 -2.3048,3.5368 -0.4989,7.2235 1.7527,8.8452 3.1816,2.2918 6.8029,1.3184 10.1767,3.8206 2.7703,3.8982 -2.1564,10.2827 -4.0808,12.2524 l -2.1889,4.7651 c -0.3989,2.2827 -0.4431,5.0235 -1.0633,7.5243 l -5.0374,0.3608 c -1.7071,-6.4618 2.3519,-8.841 5.6162,-12.2116 1.9914,-2.0566 3.6479,-7.1703 0.743,-9.0712 -1.9726,-1.2906 -14.18,6.1263 -15.0554,8.809 -0.5737,7.0202 4.6395,6.1979 2.6915,11.1883 -5.148,1.1883 -6.5673,-2.9891 -11.2986,1.8953 -3.0291,3.1274 -5.1134,5.2508 -9.28,7.7862 -3.1128,1.8941 -8.1616,4.5036 -9.0536,8.0991 -1.7637,7.1087 2.9542,8.0841 5.993,10.6484 -5.415,7.7017 -30.1533,13.0937 -43.0608,15.9134 -16.6119,3.6289 -37.5154,4.0612 -54.2597,0.7154 -30.602,-6.1146 -48.4035,-23.1596 -70.9849,-39.3593 -0.9371,-0.6721 -1.4698,-0.9388 -2.2569,-1.6308 -1.4035,-1.2336 -1.1804,-1.1404 -1.9803,-2.2127"
           style="fill:#353f9e;fill-opacity:1;fill-rule:evenodd;stroke:none"
           id="path116" />
        <path
           d="m 443.1971,1011.9589 c -2.2334,2.4596 -4.1298,4.1119 -4.5819,9.5368 -6.7297,-9.2089 -6.1064,-3.9004 -14.2792,-8.2819 -6.49,-3.4787 -4.6752,-10.2977 -0.8408,-14.9573 1.2546,-1.5245 3.6989,-3.8622 6.0242,-4.8836 4.9297,-2.1653 5.8552,-0.9243 6.0897,3.79 0.4425,8.8897 2.2872,10.2129 7.588,14.796"
           style="fill:#353f9e;fill-opacity:1;fill-rule:evenodd;stroke:none"
           id="path118" />
      </g>
      <g
         id="g120"
         transform="matrix(1.23244,-0.20767,0.20665,1.22635,0,0)">
        <path
           d="m 174.8055,734.701 c -57.4506,-11.0656 -97.4296,9.8691 -97.2723,9.5701 -5.8235,13.7568 -5.8238,41.2696 -5.9811,41.4193 -0.1573,0.1491 31.6369,-17.4949 106.0864,-11.8129 0.1576,0 -32.3879,-15.5026 -42.6184,-19.6894 -0.7872,0 22.6287,-14.4034 39.7854,-19.4871 z"
           style="fill:none;stroke:#231f20;stroke-width:3.6663;stroke-linecap:round;stroke-linejoin:round;stroke-miterlimit:2.61313;stroke-dasharray:none;stroke-opacity:1"
           id="path122" />
      </g>
      <path
         d="m 367.2612,864.7002 c -73.0907,-1.6393 -118.036,32.3365 -117.9039,31.9371 -4.3345,18.0799 1.351,51.8204 1.1877,52.0367 -0.163,0.2157 35.3752,-28.025 128.3037,-36.5182 0.1942,-0.0326 -43.1195,-12.2853 -56.5934,-15.2955 -0.97,0.1636 24.9123,-22.3628 45.0059,-32.1601"
         style="fill:#918f8f;fill-opacity:1;fill-rule:evenodd;stroke:none"
         id="path124" />
      <g
         id="g126"
         transform="scale(1.13993)">
        <path
           d="m 573.3876,824.6477 c 6.9812,-28.6826 -3.3585,-57.4072 -2.8726,-56.4349 -89.7211,-37.9636 -182.3029,-42.48 -182.1147,-42.7689 0.188,-0.2888 1.3842,-12.2507 6.4681,-23.7979 -17.3469,2.7487 -76.5198,33.2407 -79.0027,34.7836 0.6942,0.2727 53.0702,21.4461 80.714,41.5811 -0.216,0.0771 -5.0009,-16.9684 -9.413,-27.8535 0.0734,-0.4181 122.6696,26.233 186.2209,74.4905 z"
           style="fill:none;stroke:#231f20;stroke-width:4;stroke-linecap:round;stroke-linejoin:round;stroke-miterlimit:2.61313;stroke-dasharray:none;stroke-opacity:1"
           id="path128" />
      </g>
      <path
         d="m 653.6211,940.0397 c 7.958,-32.6963 -3.8285,-65.4401 -3.2746,-64.3318 -102.2757,-43.2756 -207.8124,-48.4242 -207.5978,-48.7536 0.2143,-0.3291 1.5778,-13.9649 7.3732,-27.1278 -19.7742,3.1334 -87.2272,37.8921 -90.0576,39.651 0.7915,0.3107 60.4965,24.4468 92.0084,47.3995 -0.2463,0.0879 -5.7008,-19.343 -10.7303,-31.7511 0.0836,-0.4765 139.8345,29.9035 212.2787,84.9138"
         style="fill:#918f8f;fill-opacity:1;fill-rule:evenodd;stroke:none"
         id="path130" />
      <path
         style="fill:#ff6015;stroke:#ff6015;stroke-width:0.656393"
         d=""
         id="path173"
         transform="matrix(0.75000002,0,0,-0.75000002,152.00766,1313.4949)" />
    </g>
  </g>
</svg>
